<svg id="Layer_1" data-name="Layer 1" xmlns="http://www.w3.org/2000/svg" viewBox="0 0 27.58846 4.92184"><defs><style>.cls-1{fill:#fef4e9;}.cls-2{fill:#e3f9ed;}.cls-3{fill:#23cb6d;}.cls-4{fill:#fcaa46;}.cls-5{fill:#2e2e2e;}.cls-6{fill:#c43f1f;}.cls-7{fill:#fefefe;}</style></defs><path class="cls-1" d="M.87574,2.312a.38062.38062,0,0,1-.125-.23648,1.5375,1.5375,0,0,1,.01356-1.0179A1.5679,1.5679,0,0,1,1.8239.06452,1.20207,1.20207,0,0,1,2.26447.00611a.12334.12334,0,0,0-.04435.14644.13572.13572,0,0,0,.138.07035A1.127,1.127,0,0,1,2.6062.26123a1.36852,1.36852,0,0,1-.53176,2.68015,1.34423,1.34423,0,0,1-.96739-.616C1.02343,2.19613.96682,2.19572.87574,2.312ZM2.02816,1.19962a.36991.36991,0,0,0-.28474.10584.62628.62628,0,0,0-.07193.59264.25977.25977,0,0,0,.33891.11444.30266.30266,0,0,0,.11129-.39383.22288.22288,0,0,0-.32279-.103c-.01323.006-.02566.02872-.0444.00865a.226.226,0,0,1,.21623-.222C2.04009,1.29318,2.04883,1.2653,2.02816,1.19962Zm.39477.81485c.08026.02815.11439.00253.14078-.05912.092-.21483.18951-.42729.28349-.64128a.11543.11543,0,0,0,.01153-.11736c-.16354,0-.33429,0-.505,0-.03242,0-.04507.01789-.045.04861.00007.03.01076.04948.04391.04967l.07687.00034c.10339,0,.20677,0,.32549,0Z"/><path class="cls-1" d="M8.71049,2.13777c-.03473-.01465-.04292-.04673-.05189-.07849A1.58353,1.58353,0,0,1,9.58518.115a1.34323,1.34323,0,0,1,.59427-.10891.12331.12331,0,0,0-.04429.14658c.02512.0576.08129.06562.13819.071A1.51279,1.51279,0,0,1,10.501.25456a1.37545,1.37545,0,0,1,1.03391,1.51661,1.3592,1.3592,0,0,1-1.67864,1.1434,1.32366,1.32366,0,0,1-.91648-.73713C8.8731,2.04155,8.81181,2.033,8.71049,2.13777Zm1.23489-.93335a.33206.33206,0,0,0-.35523.20928.68913.68913,0,0,0-.03132.41.27368.27368,0,0,0,.17168.20007.24842.24842,0,0,0,.28391-.08744.33585.33585,0,0,0-.00958-.37165.22611.22611,0,0,0-.28847-.05038c-.01374.00614-.02527.02748-.04532.01318a.22322.22322,0,0,1,.21183-.22491C9.94965,1.29394,9.96507,1.26978,9.94538,1.20442Zm.42957.821a.32994.32994,0,0,0,.3485-.20377.68207.68207,0,0,0,.031-.40921.25084.25084,0,0,0-.27865-.22214.26131.26131,0,0,0-.22775.27705c.00187.227.169.33713.34592.25643.01486-.00677.03153-.02063.0481-.002-.01505.12923-.06127.17956-.19945.20193C10.38256,1.93345,10.34237,1.94566,10.375,2.02542Z"/><path class="cls-1" d="M24.64082.81339A.43091.43091,0,0,1,24.78652.577,1.63146,1.63146,0,0,1,25.344.14474a1.46388,1.46388,0,0,1,.66539-.13863.12333.12333,0,0,0-.04435.14644c.025.05761.08109.06574.138.07113a1.30471,1.30471,0,0,1,.22732.031,1.32987,1.32987,0,0,1,.9859.93872,1.31257,1.31257,0,0,1-.34482,1.36441,1.30951,1.30951,0,0,1-1.2055.37456,1.364,1.364,0,0,1-.9981-1.93321C24.8296.86739,24.78269.80155,24.64082.81339Zm1.15845.78559a.22456.22456,0,0,0,.043-.33843.27632.27632,0,0,0-.35974-.0082.21948.21948,0,0,0-.06861.14519.23857.23857,0,0,0,.10456.20116c-.14293.12583-.16287.25151-.06071.36a.30473.30473,0,0,0,.39769.00449C25.95718,1.86011,25.93867,1.72534,25.79927,1.599Zm.25418-.19625c.07015.03267.10255.01073.12912-.05374.02984-.07242.10074-.08039.169-.06649a.11808.11808,0,0,1,.09615.12828.12739.12739,0,0,1-.10962.14148c-.03842.00862-.078.01215-.11783.0181-.02833.101.04659.076.094.08169a.14733.14733,0,0,1,.14871.13352.14125.14125,0,0,1-.09681.1535.15307.15307,0,0,1-.1966-.07311c-.02439-.07094-.063-.06462-.11491-.05263a.20919.20919,0,0,0,.18031.21327.2717.2717,0,0,0,.31182-.12335.2314.2314,0,0,0,.02368-.13845.23525.23525,0,0,0-.1237-.16609c.105-.08834.13356-.16741.09881-.262a.2413.2413,0,0,0-.257-.14686C26.16607,1.19481,26.09187,1.26034,26.05345,1.40273Z"/><path class="cls-2" d="M17.7377.06934c.00258-.02333.01144-.04215.03821-.04266a1.58979,1.58979,0,0,1,.31865-.0205.12053.12053,0,0,0-.04485.14558c.02579.05615.08073.06668.13811.07184A1.51468,1.51468,0,0,1,18.41558.254a1.37743,1.37743,0,0,1,.99959,1.68669,1.37047,1.37047,0,1,1-2.56978-.92484,1.34531,1.34531,0,0,1,.81933-.73021C17.80149.23936,17.818.18241,17.7377.06934Zm.81812,1.13452a.3304.3304,0,0,0-.34221.19265.6441.6441,0,0,0-.03561.43894.25029.25029,0,0,0,.20142.19386.23081.23081,0,0,0,.264-.12815.31331.31331,0,0,0-.03981-.34745.2076.2076,0,0,0-.22057-.05778c-.03065.00939-.06017.02248-.09124.03428a.209.209,0,0,1,.19756-.22893C18.54812,1.29278,18.58105,1.28063,18.55582,1.20386Zm-.96564.817a.33188.33188,0,0,0,.37548-.28505.82962.82962,0,0,0,.00856-.30595.25779.25779,0,0,0-.23353-.23853.24043.24043,0,0,0-.24989.15784.33254.33254,0,0,0,.0583.33742.22023.22023,0,0,0,.18115.05847.453.453,0,0,0,.13208-.04949c.00288.15271-.05393.20394-.27038.24528A.10546.10546,0,0,0,17.59018,2.02082Z"/><path class="cls-3" d="M17.7377.06934c.08026.11307.06379.17-.073.21634a1.34531,1.34531,0,0,0-.81933.73021A1.37031,1.37031,0,1,0,18.41558.254,1.51468,1.51468,0,0,0,18.18782.2236c-.05738-.00516-.11232-.01569-.13811-.07184a.12053.12053,0,0,1,.04485-.14558,1.48935,1.48935,0,0,1,1.26332.63454,1.58536,1.58536,0,1,1-2.82221,1.28035,1.59867,1.59867,0,0,1,.859-1.75927A.55437.55437,0,0,1,17.7377.06934Z"/><path class="cls-4" d="M24.64082.81339c.14187-.01184.18878.054.127.18578a1.364,1.364,0,0,0,.9981,1.93321,1.30951,1.30951,0,0,0,1.2055-.37456,1.31257,1.31257,0,0,0,.34482-1.36441,1.32987,1.32987,0,0,0-.9859-.93872,1.30471,1.30471,0,0,0-.22732-.031c-.05686-.00539-.11293-.01352-.138-.07113a.12333.12333,0,0,1,.04435-.14644,1.4146,1.4146,0,0,1,.965.32783,1.54861,1.54861,0,0,1,.61394,1.27633,1.58559,1.58559,0,0,1-3.129.33721,1.61534,1.61534,0,0,1,.12008-1.058A.2332.2332,0,0,1,24.64082.81339Z"/><path class="cls-4" d="M8.71049,2.13777c.10132-.10474.16261-.09622.22926.03967a1.32366,1.32366,0,0,0,.91648.73713,1.3592,1.3592,0,0,0,1.67864-1.1434A1.37545,1.37545,0,0,0,10.501.25456a1.51279,1.51279,0,0,0-.22761-.03085c-.0569-.0054-.11307-.01342-.13819-.071a.12331.12331,0,0,1,.04429-.14658A1.44931,1.44931,0,0,1,11.22.39773a1.556,1.556,0,0,1,.53689,1.28966,1.58451,1.58451,0,0,1-2.7888.9241A1.44806,1.44806,0,0,1,8.72,2.2124.11294.11294,0,0,1,8.71049,2.13777Z"/><path class="cls-4" d="M.87574,2.312c.09108-.11629.14769-.11588.23131.01342a1.34423,1.34423,0,0,0,.96739.616A1.36852,1.36852,0,0,0,2.6062.26123,1.127,1.127,0,0,0,2.35811.2229a.13572.13572,0,0,1-.138-.07035A.12334.12334,0,0,1,2.26447.00611,1.451,1.451,0,0,1,3.32229.4122a1.55419,1.55419,0,0,1,.52006,1.26546A1.58052,1.58052,0,0,1,2.51883,3.14742,1.56187,1.56187,0,0,1,.92167,2.43256.19049.19049,0,0,1,.87574,2.312Z"/><path class="cls-5" d="M2.55081,4.74532a.12906.12906,0,0,1-.09408-.00292c0-.08037-.00061-.16384.00023-.24731.00051-.05111-.019-.08946-.07311-.08862-.05563.00087-.0833.034-.081.09361.00311.07988.00077.16.00077.24059a.1061.1061,0,0,1-.09026.00467V4.324c.10415.06251.22561-.05588.3197.059a.42074.42074,0,0,1,.06628-.04244.131.131,0,0,1,.19767.11456c.00925.0935.0019.18864.0019.28329-.02643.02339-.05484.01379-.08289.009-.02069-.03032-.01022-.06413-.01132-.09612-.00177-.05108-.0004-.10227-.00076-.15341-.00033-.04678-.00719-.09335-.06749-.09087a.08464.08464,0,0,0-.08544.094C2.55018,4.58123,2.55081,4.66138,2.55081,4.74532Z"/><path class="cls-5" d="M15.89237,4.455a.15163.15163,0,0,1,.07423.18525.16605.16605,0,0,1-.17137.11076c-.06916.00292-.13854.00061-.21431.00061V4.19159a1.047,1.047,0,0,1,.23377.00309.14715.14715,0,0,1,.13694.09249A.13236.13236,0,0,1,15.89237,4.455Zm-.2107.21486c.06347-.00282.13275.02538.18115-.03835a.07785.07785,0,0,0-.00013-.09328c-.04875-.06113-.1174-.036-.18874-.0402A.54244.54244,0,0,0,15.68167,4.66989Zm-.00506-.24431c.06215-.01152.12642.02327.1731-.03943a.0618.0618,0,0,0,0-.08072c-.04776-.05847-.111-.02982-.17314-.03611Z"/><path class="cls-5" d="M26.68668,4.4682c.00075.19386-.09842.30338-.26032.28748-.14069-.01381-.21468-.13-.20415-.32051a.23769.23769,0,0,1,.23144-.2539C26.59542,4.18128,26.686,4.29281,26.68668,4.4682Zm-.09837.00261c-.00214-.01844-.00421-.05119-.01-.08327-.01206-.06675-.04417-.11664-.11925-.11967a.11942.11942,0,0,0-.12794.10924.44806.44806,0,0,0-.013.10783c.00344.12088.05525.19183.13574.19222C26.53577,4.67756,26.58186,4.61137,26.58831,4.47081Z"/><path class="cls-5" d="M25.28862,4.58636c.047-.0067.08687-.02464.1049.03372a.09473.09473,0,0,0,.08575.05867c.0498.00853.10166.00269.12079-.04982.02127-.05839-.024-.08422-.07117-.10321a.94111.94111,0,0,1-.15045-.06425.13973.13973,0,0,1,.0132-.25439.19914.19914,0,0,1,.30388.14138c-.0449.01381-.08187.01653-.10315-.03984-.01492-.03952-.05475-.04463-.09279-.044-.04224.00072-.08273.00714-.09171.05846-.00771.04413.0191.06723.05636.08209.05073.02023.103.03746.15158.062a.14264.14264,0,0,1,.0852.16146.14583.14583,0,0,1-.1341.12384A.2123.2123,0,0,1,25.28862,4.58636Z"/><path class="cls-5" d="M26.15341,4.26854h-.25057a.43777.43777,0,0,0-.00883.15079h.21589c.002.07826.002.07826-.20037.08728a.27746.27746,0,0,0-.00546.16523c.06318,0,.12811-.00139.19295.00044.05153.00145.05149.0032.05876.0749h-.36033V4.18705c.10707,0,.20858.00148.31-.00058C26.16167,4.18532,26.16287,4.21743,26.15341,4.26854Z"/><path class="cls-5" d="M8.43277,4.74338c-.09569.0103-.09569.0103-.14957-.11563H8.07387c-.03938.03818-.01636.167-.14719.11347q.0947-.25275.18969-.50621c.01078-.02875.02474-.05041.06225-.04881a.06245.06245,0,0,1,.06263.04865C8.304,4.40428,8.36842,4.57306,8.43277,4.74338ZM8.1061,4.53769a.27575.27575,0,0,0,.14056-.00917.88672.88672,0,0,0-.065-.20471A.80363.80363,0,0,0,8.1061,4.53769Z"/><path class="cls-5" d="M.001,4.18936a1.1273,1.1273,0,0,1,.26912.00935.165.165,0,0,1,.14474.17678.15622.15622,0,0,1-.149.15944c-.05036.008-.10167.01015-.15317.015-.02618.02756-.013.0622-.015.09383-.00209.03232-.00046.06488-.00046.09234A.11367.11367,0,0,1,.001,4.74763Zm.10007.27987c.0775-.01422.15239.02056.20167-.051a.0854.0854,0,0,0-.00852-.11115C.23925,4.248.16934,4.27074.1011,4.27552Z"/><path class="cls-5" d="M17.36956,4.1929a.87176.87176,0,0,1,.27543.007.16475.16475,0,0,1,.13923.1706.15668.15668,0,0,1-.14437.16376c-.05335.009-.10782.01144-.16454.0171-.0202.062.00029.1253-.01477.18907-.02755.023-.05825.00783-.091.00982Zm.09559.07555a.98706.98706,0,0,0,.01094.19551c.06572-.00535.13712.02363.19114-.03863a.08369.08369,0,0,0,.00636-.10215C17.6247,4.24218,17.54724,4.27672,17.46515,4.26845Z"/><path class="cls-5" d="M10.85439,4.3568c.08956-.03373.176-.052.23194.03481a.286.286,0,0,1,.01185.28284.12135.12135,0,0,1-.14131.07944.44557.44557,0,0,0-.18952.00072V4.16949c.02565-.02223.05329-.00706.087-.01032Zm.00118.18246c.00429.04279-.01544.09452.03595.12606a.08134.08134,0,0,0,.10919-.009.21685.21685,0,0,0,.00737-.2162.081.081,0,0,0-.11565-.01969C10.84423,4.44812,10.85769,4.495,10.85557,4.53926Z"/><path class="cls-5" d="M18.47551,4.752a1.209,1.209,0,0,0-.23326.00125.10749.10749,0,0,1-.12-.10313.11572.11572,0,0,1,.08543-.13509,1.25081,1.25081,0,0,1,.14914-.02911c-.01338-.09041-.04328-.10684-.115-.0645a.11093.11093,0,0,1-.10385.0227.157.157,0,0,1,.2-.112c.08129.01205.12024.0584.125.15213A1.63389,1.63389,0,0,0,18.47551,4.752Zm-.113-.194c-.06084.001-.12961-.02108-.144.06791-.00653.0404.0302.05892.06334.05554C18.35016,4.67453,18.3833,4.63656,18.3625,4.55805Z"/><path class="cls-5" d="M3.66688,4.74607a.129.129,0,0,1-.08466-.00032.14918.14918,0,0,1-.00613-.02967c-.00079-.07682.00014-.15367-.00144-.23047-.00093-.0455-.0216-.08111-.07121-.07889a.077.077,0,0,0-.08333.08212c.0001.08367,0,.16733,0,.24668a.09492.09492,0,0,1-.09433.00921V4.33348a.56253.56253,0,0,0,.21737-.00255c.07417-.00614.11818.03972.12257.12329C3.6707,4.54875,3.66688,4.64375,3.66688,4.74607Z"/><path class="cls-5" d="M3.23918,4.75378a.74582.74582,0,0,0-.21552.00032.11732.11732,0,0,1-.13909-.10759.12279.12279,0,0,1,.10067-.13636c.04541-.01162.09263-.01615.13927-.02389-.02265-.09433-.05182-.11108-.121-.06074-.03606.02624-.06409.04151-.10444.01744a.164.164,0,0,1,.20647-.11044c.07958.01344.11694.06063.12115.15577A1.57068,1.57068,0,0,0,3.23918,4.75378ZM3.126,4.55794c-.06076.00121-.12958-.021-.14391.06807-.00653.04058.0305.05887.06344.05549C3.1138,4.67449,3.147,4.63651,3.126,4.55794Z"/><path class="cls-5" d="M12.03534,4.34629c.07932-.03484.10933-.00066.12433.0701a1.64779,1.64779,0,0,0,.05578.16837.50593.50593,0,0,0,.068-.18337c.01562-.06743.051-.08106.12056-.05588-.05792.16411-.11474.3281-.174.4912a.12585.12585,0,0,1-.107.08349c-.02664.00376-.05365.00244-.05731-.03289-.00219-.02112-.00306-.0409.02784-.04905.09616-.02538.08544-.09036.05833-.16314C12.11126,4.56621,12.074,4.45606,12.03534,4.34629Z"/><path class="cls-5" d="M16.41487,4.57508h-.25824c.02626.10444.067.12869.15389.09112.03429-.01482.0633-.04155.08767.00963a.18557.18557,0,0,1-.24571.0597.22266.22266,0,0,1-.08833-.27722.17771.17771,0,0,1,.21342-.12521C16.37234,4.34985,16.41306,4.41731,16.41487,4.57508Zm-.25913-.07492a.48294.48294,0,0,0,.16151-.0001c.00352-.06034-.02165-.09736-.07878-.096C16.18487,4.40524,16.15438,4.43833,16.15574,4.50016Z"/><path class="cls-5" d="M9.4035,4.5756c.0348.10361.07181.125.15205.09377.03155-.01226.06131-.0502.091.00163a.17662.17662,0,0,1-.23862.06766.22183.22183,0,0,1-.09535-.27457.17583.17583,0,0,1,.20924-.1317c.10125.015.14533.08751.1405.24321Zm.16636-.07621c-.00315-.066-.03126-.1018-.088-.09518a.07557.07557,0,0,0-.07234.09743A.5048.5048,0,0,0,9.56986,4.49939Z"/><path class="cls-5" d="M4.51794,4.67663a.19219.19219,0,0,1-.25972.05261.23235.23235,0,0,1-.07338-.28409.17815.17815,0,0,1,.21322-.11151c.09486.01866.13256.08666.12716.24119H4.266c.04313.10911.07947.13.16414.08982C4.46749,4.64692,4.494,4.6311,4.51794,4.67663Zm-.08328-.176c.00465-.05456-.01825-.09019-.06841-.09612-.06337-.00749-.08972.03381-.09871.09657A.59409.59409,0,0,0,4.43466,4.5006Z"/><path class="cls-5" d="M.82607,4.6779a.19773.19773,0,0,1-.26624.04867.23423.23423,0,0,1-.071-.27638.1779.1779,0,0,1,.21-.11717c.09681.01631.13248.07535.13716.23248-.0843.02319-.17272-.00128-.25787.01494.03087.10425.06864.12607.163.08153C.77657,4.64529.7996,4.63541.82607,4.6779ZM.57384,4.50778a.90211.90211,0,0,0,.166-.00911c.00453-.06133-.02469-.09253-.07407-.095C.60943,4.4009.58192,4.43833.57384,4.50778Z"/><path class="cls-5" d="M20.194,4.57338H19.9444c.022.10273.064.12716.14985.0962.02216-.008.03771-.03994.06759-.021a.19983.19983,0,0,1,.0262.02461.15939.15939,0,0,1-.19338.07963.17073.17073,0,0,1-.1482-.14028.227.227,0,0,1,.10693-.27154C20.09648,4.28127,20.20957,4.38662,20.194,4.57338Zm-.08347-.075c-.00593-.05286-.0246-.09455-.08216-.09454-.05951,0-.08657.03766-.08679.09821A.53571.53571,0,0,0,20.11048,4.49842Z"/><path class="cls-5" d="M10.05615,4.44912c-.0778.0727-.14681-.14208-.22773-.005.00714.05132.05357.0524.08928.06235.0689.01918.13751.03785.14592.1239a.10648.10648,0,0,1-.06514.10486.23.23,0,0,1-.22772-.01565.12713.12713,0,0,1-.04814-.09017c.04122-.01231.0785-.02385.10621.028.01312.02455.04026.02816.06689.02937.03181.00145.062-.00628.07148-.03727.01107-.0362-.02006-.05061-.04783-.06084C9.88188,4.57483,9.842,4.56677,9.806,4.55a.10623.10623,0,0,1-.07023-.1017.11535.11535,0,0,1,.07235-.10113A.16766.16766,0,0,1,10.05615,4.44912Z"/><path class="cls-5" d="M16.47237,4.62605c.04155-.00529.07739-.02113.101.02438.01737.03355.05083.037.08524.03615a.05612.05612,0,0,0,.05882-.03916c.00808-.03015-.01481-.046-.04034-.05514-.03422-.0122-.06936-.0219-.10328-.03481-.05568-.02118-.09707-.05733-.08646-.12206a.12551.12551,0,0,1,.11345-.10252.15357.15357,0,0,1,.20448.11755c-.07742.07093-.14646-.14153-.22765-.006.01036.05129.05593.05259.092.06258.0651.01806.12985.03593.14286.11469a.10612.10612,0,0,1-.06622.11436.22831.22831,0,0,1-.22735-.01795A.12514.12514,0,0,1,16.47237,4.62605Z"/><path class="cls-5" d="M10.46915,4.45314c-.04505.01376-.07787.01758-.10143-.024a.06522.06522,0,0,0-.07729-.02637c-.02221.00449-.04294.01324-.04741.03853-.00464.02626.0117.04061.03422.04825.04138.01405.08414.02461.12438.04132a.10884.10884,0,0,1,.07465.11025.11982.11982,0,0,1-.08518.10448.18952.18952,0,0,1-.25869-.1155c.044-.01594.08092-.02228.10941.02757.01655.029.04809.02961.07811.02884.028-.00073.05136-.01024.058-.03961.007-.03123-.01331-.0467-.0397-.05562-.038-.01284-.07726-.02252-.114-.03828a.10611.10611,0,0,1-.07434-.10939.11449.11449,0,0,1,.07542-.099A.16811.16811,0,0,1,10.46915,4.45314Z"/><path class="cls-5" d="M1.8478,4.54318a.18987.18987,0,0,1-.18412.21422.19328.19328,0,0,1-.20183-.21947.189.189,0,0,1,.18927-.20925A.19323.19323,0,0,1,1.8478,4.54318Zm-.292-.00479c-.00217.08651.03818.146.099.14584.05712-.00012.09687-.05458.0989-.1355.00213-.085-.03945-.146-.09949-.14609C1.597,4.40259,1.5579,4.45656,1.55585,4.53839Z"/><path class="cls-5" d="M20.26231,4.62724c.03936-.00924.07534-.02263.10142.0275.01732.03329.05363.03428.0876.03107.02746-.00258.05047-.01279.0542-.04379.00319-.02648-.0149-.0399-.03661-.04763-.0412-.01466-.08416-.025-.124-.04253a.10985.10985,0,0,1-.07275-.1012.119.119,0,0,1,.08033-.10832.1671.1671,0,0,1,.2404.10965c-.03505.01454-.0679.02369-.09431-.01559a.07311.07311,0,0,0-.07446-.03545c-.02782.00334-.05046.01394-.05515.04368-.00414.02622.01421.03883.03649.0462.04152.01374.08434.02444.12431.04173a.10464.10464,0,0,1,.06958.10187.11408.11408,0,0,1-.07846.108A.17816.17816,0,0,1,20.26231,4.62724Z"/><path class="cls-5" d="M19.7807,4.47617c-.04986.02077-.07434.00609-.10393-.03261a.08074.08074,0,0,0-.14936.02842.23256.23256,0,0,0-.00077.14078.08236.08236,0,0,0,.14339.0424c.03254-.03208.05923-.05072.10317-.0348a.14935.14935,0,0,1-.18209.135.18061.18061,0,0,1-.16548-.1959c-.00592-.12368.04778-.208.14374-.2258C19.68134,4.31294,19.74239,4.35226,19.7807,4.47617Z"/><path class="cls-5" d="M18.90137,4.47612c-.0498.02078-.07434.00633-.104-.03245a.08073.08073,0,0,0-.1494.02819.23256.23256,0,0,0-.00084.14078.0854.0854,0,0,0,.14508.04434.11214.11214,0,0,1,.10142-.03666.14918.14918,0,0,1-.18192.13506.18061.18061,0,0,1-.16555-.19586c-.00594-.12369.04775-.20807.1437-.22585C18.80184,4.31293,18.86291,4.35223,18.90137,4.47612Z"/><path class="cls-5" d="M4.1051,4.47561c-.04854.02038-.08.0142-.10263-.03211a.07043.07043,0,0,0-.08328-.03773.08715.08715,0,0,0-.07015.07549.35213.35213,0,0,0-.0013.11973.08455.08455,0,0,0,.15289.04706A.07978.07978,0,0,1,4.103,4.62516c-.04541.11232-.10392.14745-.2085.12787-.09658-.01809-.1503-.10135-.14525-.22514A.18138.18138,0,0,1,3.903,4.33257C4.01279,4.31722,4.06551,4.35276,4.1051,4.47561Z"/><path class="cls-5" d="M9.24269,4.47689c-.047.01634-.07787.01445-.098-.02916a.07137.07137,0,0,0-.09126-.04062.0911.0911,0,0,0-.067.09019c-.00134.02912-.00106.05835-.00054.08751a.09353.09353,0,0,0,.06287.09371.07553.07553,0,0,0,.09531-.033c.02516-.03966.05829-.03574.095-.02258a.15887.15887,0,0,1-.2.13064.19547.19547,0,0,1-.15388-.21971A.189.189,0,0,1,9.04677,4.332C9.15714,4.31876,9.20909,4.35609,9.24269,4.47689Z"/><path class="cls-5" d="M8.82369,4.47474c-.04147.02093-.07421.01977-.09752-.02849A.07168.07168,0,0,0,8.634,4.40744a.08734.08734,0,0,0-.06418.08063.46176.46176,0,0,0,.00025.10916c.01444.086.09006.11594.14985.05456a.08.08,0,0,1,.10219-.0276.16077.16077,0,0,1-.20243.1292.19593.19593,0,0,1-.15207-.22115.18817.18817,0,0,1,.163-.20042C8.74136,4.31929,8.793,4.35723,8.82369,4.47474Z"/><path class="cls-5" d="M1.32943,4.31842c.02487.029.07815-.00593.07891.04925.00075.0544-.05258.023-.08015.05478v.30813c-.03209.03249-.06106.02021-.09253.01795a1.85708,1.85708,0,0,1-.00837-.2268c-.004-.04742.02853-.111-.05338-.13006-.0162-.00376-.0142-.04347-.00211-.04483.0686-.00769.05393-.06508.06761-.10462a.13142.13142,0,0,1,.14577-.08888c.01771.00043.03949.00011.04182.0242.002.02042.00661.04689-.025.05088A.07359.07359,0,0,0,1.32943,4.31842Z"/><path class="cls-5" d="M19.083,4.2407c.02173.03527-.01355.09634.06316.0985.0284.00079.02892.04013-.00142.06293a.19942.19942,0,0,0-.00084.27742.04733.04733,0,0,1,.022.05279c-.00248.024-.02511.0221-.04242.024-.06893.00756-.1166-.01887-.12432-.09091-.00622-.058-.00228-.117-.00564-.17546-.00206-.03573.0191-.08576-.04769-.08921-.01741-.00091-.0206-.01886-.01893-.03342a.06.06,0,0,1,.01126-.02683C19.02634,4.36089,18.95916,4.17151,19.083,4.2407Z"/><path class="cls-5" d="M12.00333,4.75038c-.13816.009-.16368-.01213-.16915-.13218-.00232-.05094-.0004-.10208-.00062-.15312-.00012-.02941.00169-.05658-.04007-.06434-.04369-.00812-.03788-.0575-.01348-.05909.08031-.00523.03734-.07591.06811-.10611.046-.01126.09473-.0143.08152.05443-.01282.06666.083.02106.07337.08382-.00722.0472-.08541.01191-.072.07409.01869.0866-.04971.19708.07158.25634C12.00824,4.707,12.00333,4.73134,12.00333,4.75038Z"/><path class="cls-5" d="M16.93792,4.23325c.04108-.00586.09089-.01286.07816.0505-.01493.07427.07468.029.07917.0803.0053.06051-.09226.02-.07666.08264.02058.08263-.05783.19162.07.2483.02245.01.01672.05137-.02641.06052a.10146.10146,0,0,1-.13488-.08965c-.00671-.054-.00062-.10953-.0043-.1641-.00275-.04085.02521-.09672-.05341-.10619-.02033-.00244-.02325-.0564.00528-.05749C16.95367,4.33506,16.90825,4.27082,16.93792,4.23325Z"/><path class="cls-5" d="M11.507,4.74605a.13638.13638,0,0,1-.093-.00382c0-.17643-.00072-.35742.00035-.53839.00043-.07128.05185-.03985.09264-.04278Z"/><path class="cls-5" d="M1.00642,4.74306a.12325.12325,0,0,1-.08827.003V4.3404c.06286-.0123.13226.02181.20205-.01839.0124.05086.03984.09389-.037.09946-.06854.005-.07922.05025-.07735.10769C1.00814,4.5982,1.00642,4.66738,1.00642,4.74306Z"/><path class="cls-5" d="M17.95769,4.74881a.15771.15771,0,0,1-.09071-.00508v-.407a.60968.60968,0,0,0,.21069-.00905c.00861.05114.02359.0914-.04823.09512-.06209.00322-.07372.047-.07225.10059C17.95919,4.59588,17.95769,4.66848,17.95769,4.74881Z"/><path class="cls-5" d="M2.02119,4.74613c-.037.00668-.06143.01294-.0887-.00414v-.4045c.06953-.00865.13727.02793.20532-.02317.00949.05959.03533.10352-.04088.10818-.06016.00368-.07737.04413-.07614.09905C2.02242,4.5942,2.02119,4.66692,2.02119,4.74613Z"/><path class="cls-5" d="M11.21455,4.34351a.09258.09258,0,0,1,.08865.00241v.39621a.11917.11917,0,0,1-.08865.0047Z"/><path class="cls-5" d="M19.248,4.34193a.12853.12853,0,0,1,.085-.00151v.39976c-.02173.02263-.0502.01171-.085.0069Z"/><path class="cls-5" d="M11.62033,4.34743a.109.109,0,0,1,.08783-.00787v.40609c-.05818.01717-.09241.012-.089-.06561C11.62388,4.57053,11.62033,4.46066,11.62033,4.34743Z"/><path class="cls-5" d="M10.565,4.34825a.10935.10935,0,0,1,.08756-.00965v.40663c-.05709.01813-.09208.01448-.08873-.06435C10.56848,4.57137,10.565,4.46151,10.565,4.34825Z"/><path class="cls-5" d="M19.28731,4.17912c.02855.00106.05031.01263.05254.04314.00228.03118-.0181.04582-.04676.048a.04379.04379,0,0,1-.05215-.04234C19.239,4.19874,19.25764,4.182,19.28731,4.17912Z"/><path class="cls-5" d="M11.31126,4.2203c-.00659.0353-.02332.05169-.05311.05011-.02873-.00152-.04915-.01568-.04785-.047.00128-.03092.02275-.04364.05116-.0441C11.29254,4.17884,11.30335,4.20112,11.31126,4.2203Z"/><path class="cls-5" d="M11.6548,4.27143c-.01326.00125-.03337-.01059-.03519-.04152-.00165-.02817.0098-.04894.04227-.05006.02876-.001.05.00928.05247.04063C11.71674,4.25032,11.70214,4.26788,11.6548,4.27143Z"/><path class="cls-5" d="M10.65943,4.22105a.04237.04237,0,0,1-.044.04908c-.02966.00191-.04955-.00982-.0511-.04083-.00142-.02848.01057-.0487.04287-.04953C10.63594,4.179,10.65591,4.18958,10.65943,4.22105Z"/><path class="cls-6" d="M2.02816,1.19962c.02067.06568.01193.09356-.05743.1027a.226.226,0,0,0-.21623.222c.01874.02007.03117-.00266.0444-.00865a.22288.22288,0,0,1,.32279.103.30266.30266,0,0,1-.11129.39383.25977.25977,0,0,1-.33891-.11444.62628.62628,0,0,1,.07193-.59264A.36991.36991,0,0,1,2.02816,1.19962Zm.01576.557a.16325.16325,0,0,0-.09664-.1701.16511.16511,0,0,0-.18536.05948.16238.16238,0,0,0-.0125.14681c.0232.1089.07969.15935.16753.14941C1.99735,1.93315,2.04253,1.87044,2.04392,1.75665Z"/><path class="cls-6" d="M2.42293,2.01447l.332-.71911c-.11872,0-.2221,0-.32549,0L2.35261,1.295c-.03315-.00019-.04384-.01969-.04391-.04967-.00007-.03072.01258-.0486.045-.04861.17074,0,.34149,0,.505,0a.11543.11543,0,0,1-.01153.11736c-.094.214-.1915.42645-.28349.64128C2.53732,2.017,2.50319,2.04262,2.42293,2.01447Z"/><path class="cls-6" d="M9.94538,1.20442c.01969.06536.00427.08952-.0625.09815a.22322.22322,0,0,0-.21183.22491c.02005.0143.03158-.007.04532-.01318a.22611.22611,0,0,1,.28847.05038.33585.33585,0,0,1,.00958.37165.24842.24842,0,0,1-.28391.08744.27368.27368,0,0,1-.17168-.20007.68913.68913,0,0,1,.03132-.41A.33206.33206,0,0,1,9.94538,1.20442Zm.01353.552a.16306.16306,0,0,0-.0968-.1699.16515.16515,0,0,0-.1853.05966.16258.16258,0,0,0-.01237.14684c.02318.10885.07978.15927.16765.14923C9.91243,1.933,9.95756,1.87029,9.95891,1.75639Z"/><path class="cls-6" d="M10.375,2.02542c-.03258-.07976.00761-.092.06763-.10169.13818-.02237.1844-.0727.19945-.20193-.01657-.01865-.03324-.00479-.0481.002-.17687.0807-.34405-.02941-.34592-.25643a.26131.26131,0,0,1,.22775-.277.25084.25084,0,0,1,.27865.22214.68207.68207,0,0,1-.031.40921A.32994.32994,0,0,1,10.375,2.02542Zm.28429-.52833c-.00067-.12358-.06737-.2166-.1559-.21743-.08694-.00082-.15272.084-.15071.19445a.16464.16464,0,0,0,.14991.18235A.15128.15128,0,0,0,10.65924,1.49709Z"/><path class="cls-6" d="M25.79927,1.599c.1394.12636.15791.26113.05617.36423a.30473.30473,0,0,1-.39769-.00449c-.10216-.10851-.08222-.23419.06071-.36a.23857.23857,0,0,1-.10456-.20116.21948.21948,0,0,1,.06861-.14519.27632.27632,0,0,1,.35974.0082A.22456.22456,0,0,1,25.79927,1.599Zm-.13839.05049a.14824.14824,0,0,0-.15835.1466.14338.14338,0,0,0,.153.1503.13678.13678,0,0,0,.15488-.14475A.14113.14113,0,0,0,25.66088,1.64947ZM25.663,1.556a.13106.13106,0,0,0,.12773-.14681.12955.12955,0,0,0-.14341-.13036.13169.13169,0,0,0-.12486.13952A.13775.13775,0,0,0,25.663,1.556Z"/><path class="cls-6" d="M26.05345,1.40273c.03842-.14239.11262-.20792.235-.21292a.2413.2413,0,0,1,.257.14686c.03475.09463.00617.1737-.09881.262a.23525.23525,0,0,1,.1237.16609.2314.2314,0,0,1-.02368.13845.2717.2717,0,0,1-.31182.12335.20919.20919,0,0,1-.18031-.21327c.05189-.012.09052-.01831.11491.05263a.15307.15307,0,0,0,.1966.07311.14125.14125,0,0,0,.09681-.1535.14733.14733,0,0,0-.14871-.13352c-.04737-.00567-.12229.01931-.094-.08169.03985-.00595.07941-.00948.11783-.0181a.12739.12739,0,0,0,.10962-.14148.11808.11808,0,0,0-.09615-.12828c-.06823-.0139-.13913-.00593-.169.06649C26.156,1.41346,26.1236,1.4354,26.05345,1.40273Z"/><path class="cls-5" d="M18.55582,1.20386c.02523.07677-.0077.08892-.06651.09742a.209.209,0,0,0-.19756.22893c.03107-.0118.06059-.02489.09124-.03428a.2076.2076,0,0,1,.22057.05778.31331.31331,0,0,1,.03981.34745.23081.23081,0,0,1-.264.12815.25029.25029,0,0,1-.20142-.19386.6441.6441,0,0,1,.03561-.43894A.3304.3304,0,0,1,18.55582,1.20386Zm.01931.56c.00055-.11464-.05785-.18894-.14964-.19037a.159.159,0,0,0-.16074.15678c.00064.12492.0731.21928.16654.21687C18.51949,1.94482,18.5746,1.8746,18.57513,1.76381Zm-.29883-.205.00647-.00738-.006-.00776-.00645.00739Z"/><path class="cls-5" d="M17.59018,2.02082a.10546.10546,0,0,1,.00177-.08c.21645-.04134.27326-.09257.27038-.24528a.453.453,0,0,1-.13208.04949.22023.22023,0,0,1-.18115-.05847.33254.33254,0,0,1-.0583-.33742.24043.24043,0,0,1,.24989-.15784.25779.25779,0,0,1,.23353.23853.82962.82962,0,0,1-.00856.30595A.33188.33188,0,0,1,17.59018,2.02082Zm.28836-.51213c.00252-.12791-.06412-.22719-.15494-.23083-.08687-.00348-.15515.07949-.15632.18994a.16994.16994,0,0,0,.15413.19108A.15639.15639,0,0,0,17.87854,1.50869Z"/><path class="cls-1" d="M15.68167,4.66989a.54244.54244,0,0,1-.00772-.17183c.07134.00423.14-.02093.18874.0402a.07785.07785,0,0,1,.00013.09328C15.81442,4.69527,15.74514,4.66707,15.68167,4.66989Z"/><path class="cls-7" d="M15.67661,4.42558V4.26932c.06219.00629.12538-.02236.17314.03611a.0618.0618,0,0,1,0,.08072C15.803,4.44885,15.73876,4.41406,15.67661,4.42558Z"/><path class="cls-7" d="M26.58831,4.47081c-.00645.14056-.05254.20675-.13442.20635-.08049-.00039-.1323-.07134-.13574-.19222a.44806.44806,0,0,1,.013-.10783.11942.11942,0,0,1,.12794-.10924c.07508.003.10719.05292.11925.11967C26.5841,4.41962,26.58617,4.45237,26.58831,4.47081Z"/><path class="cls-2" d="M8.1061,4.53769a.80363.80363,0,0,1,.07557-.21388.88672.88672,0,0,1,.065.20471A.27575.27575,0,0,1,8.1061,4.53769Z"/><path class="cls-7" d="M.1011,4.46923V4.27552c.06824-.00478.13815-.02753.19315.03159a.0854.0854,0,0,1,.00852.11115C.25349,4.48979.1786,4.455.1011,4.46923Z"/><path class="cls-7" d="M17.46515,4.26845c.08209.00827.15955-.02627.20844.05473a.08369.08369,0,0,1-.00636.10215c-.054.06226-.12542.03328-.19114.03863A.98706.98706,0,0,1,17.46515,4.26845Z"/><path class="cls-1" d="M10.85557,4.53926c.00212-.04424-.01134-.09114.03686-.1188a.081.081,0,0,1,.11565.01969.21685.21685,0,0,1-.00737.2162.08134.08134,0,0,1-.10919.009C10.84013,4.63378,10.85986,4.58205,10.85557,4.53926Z"/><path class="cls-2" d="M18.3625,4.55805c.0208.07851-.01234.11648-.08066.12345-.03314.00338-.06987-.01514-.06334-.05554C18.23289,4.537,18.30166,4.55906,18.3625,4.55805Z"/><path class="cls-2" d="M3.126,4.55794c.021.07857-.01224.11655-.08047.12356-.03294.00338-.07-.01491-.06344-.05549C2.99646,4.537,3.06528,4.55915,3.126,4.55794Z"/><path class="cls-2" d="M16.15574,4.50016c-.00136-.06183.02913-.09492.08273-.09614.05713-.00132.0823.0357.07878.096A.48294.48294,0,0,1,16.15574,4.50016Z"/><path class="cls-2" d="M9.56986,4.49939a.5048.5048,0,0,1-.16031.00225.07557.07557,0,0,1,.07234-.09743C9.5386,4.39759,9.56671,4.43342,9.56986,4.49939Z"/><path class="cls-2" d="M4.43466,4.5006a.59409.59409,0,0,1-.16712.00045c.009-.06276.03534-.10406.09871-.09657C4.41641,4.41041,4.43931,4.446,4.43466,4.5006Z"/><path class="cls-2" d="M.57384,4.50778c.00808-.06945.03559-.10688.09192-.10409.04938.00245.0786.03365.07407.095A.90211.90211,0,0,1,.57384,4.50778Z"/><path class="cls-2" d="M20.11048,4.49842a.53571.53571,0,0,1-.16895.00367c.00022-.06055.02728-.0982.08679-.09821C20.08588,4.40387,20.10455,4.44556,20.11048,4.49842Z"/><path class="cls-1" d="M1.55585,4.53839c.00205-.08183.04115-.1358.09836-.13575.06.00007.10162.06112.09949.14609-.002.08092-.04178.13538-.0989.1355C1.594,4.68435,1.55368,4.6249,1.55585,4.53839Z"/><path class="cls-1" d="M2.04392,1.75665c-.00139.11379-.04657.1765-.127.1856-.08784.00994-.14433-.04051-.16753-.14941a.16238.16238,0,0,1,.0125-.14681.16511.16511,0,0,1,.18536-.05948A.16325.16325,0,0,1,2.04392,1.75665Z"/><path class="cls-1" d="M9.95891,1.75639c-.00135.1139-.04648.17665-.12682.18583-.08787.01-.14447-.04038-.16765-.14923a.16258.16258,0,0,1,.01237-.14684.16515.16515,0,0,1,.1853-.05966A.16306.16306,0,0,1,9.95891,1.75639Z"/><path class="cls-1" d="M10.65924,1.49709a.15128.15128,0,0,1-.1567.15937.16464.16464,0,0,1-.14991-.18235c-.002-.1104.06377-.19527.15071-.19445C10.59187,1.28049,10.65857,1.37351,10.65924,1.49709Z"/><path class="cls-1" d="M25.66088,1.64947a.14113.14113,0,0,1,.14954.15215.13678.13678,0,0,1-.15488.14475.14338.14338,0,0,1-.153-.1503A.14824.14824,0,0,1,25.66088,1.64947Z"/><path class="cls-1" d="M25.663,1.556a.13775.13775,0,0,1-.14054-.13765.13169.13169,0,0,1,.12486-.13952.12955.12955,0,0,1,.14341.13036A.13106.13106,0,0,1,25.663,1.556Z"/><path class="cls-2" d="M18.57513,1.76381c-.00053.11079-.05564.181-.14384.18328-.09344.00241-.1659-.09195-.16654-.21687a.159.159,0,0,1,.16074-.15678C18.51728,1.57487,18.57568,1.64917,18.57513,1.76381Z"/><polygon class="cls-3" points="18.276 1.559 18.27 1.551 18.277 1.544 18.283 1.551 18.276 1.559"/><path class="cls-2" d="M17.87854,1.50869a.15639.15639,0,0,1-.15713.15019.16994.16994,0,0,1-.15413-.19108c.00117-.11045.06945-.19342.15632-.18994C17.81442,1.2815,17.88106,1.38078,17.87854,1.50869Z"/></svg>