<svg id="Layer_1" data-name="Layer 1" xmlns="http://www.w3.org/2000/svg" viewBox="0 0 27.58846 4.92184"><defs><style>.cls-1{fill:#fef4e9;}.cls-2{fill:#e3f9ed;}.cls-3{fill:#23cb6d;}.cls-4{fill:#fcaa46;}.cls-5{fill:#2e2e2e;}.cls-6{fill:#c43f1f;}.cls-7{fill:#fefefe;}</style></defs><path class="cls-1" d="M24.6408.8134A.43085.43085,0,0,1,24.7865.577,1.6314,1.6314,0,0,1,25.344.14476a1.46392,1.46392,0,0,1,.6654-.13863.12333.12333,0,0,0-.04436.14644c.025.05761.08109.06574.13794.07113a1.30564,1.30564,0,0,1,.22733.031,1.32991,1.32991,0,0,1,.9859.93871,1.31255,1.31255,0,0,1-.34481,1.3644,1.30951,1.30951,0,0,1-1.2055.37456A1.364,1.364,0,0,1,24.76782.99918C24.82959.86741,24.78266.80155,24.6408.8134Zm1.1627.78723c.11928-.13188.12927-.26051.02733-.35177a.27931.27931,0,0,0-.35219.00716c-.09865.09937-.08507.21935.0387.342-.14287.13146-.16238.25812-.05626.36518a.30962.30962,0,0,0,.39083.00413C25.95734,1.86592,25.93939,1.7299,25.8035,1.60063Zm.41355-.0297c.00727.0695.00727.0695.10336.08177a.14313.14313,0,0,1,.14232.13912.135.135,0,0,1-.09208.14616.15507.15507,0,0,1-.19879-.06788c-.02518-.07774-.06547-.06949-.12115-.05413a.21831.21831,0,0,0,.21218.21423.26035.26035,0,0,0,.2911-.14244c.045-.106.01455-.19047-.10486-.29073.10406-.08712.13314-.16947.094-.26617a.24847.24847,0,0,0-.27193-.14034.23282.23282,0,0,0-.214.21513.12643.12643,0,0,0,.09331.00609c.0556-.11793.11683-.157.20725-.12881a.12568.12568,0,0,1,.0893.1451C26.441,1.52111,26.399,1.54782,26.21705,1.57093Z"/><path class="cls-1" d="M1.16058.4894C1.16609.41827,1.22523.38514,1.27074.348A1.568,1.568,0,0,1,1.92018.03494a.94614.94614,0,0,1,.3443-.02881.1233.1233,0,0,0-.04431.14653.1371.1371,0,0,0,.13817.0704,1.237,1.237,0,0,1,.25892.04087A1.38918,1.38918,0,0,1,3.6299,1.64985,1.38518,1.38518,0,0,1,2.24635,2.956,1.36887,1.36887,0,0,1,1.20708.71051C1.28.62919,1.29369.54612,1.16058.4894Zm.894,1.1088a.22383.22383,0,0,0,.0411-.33936.27751.27751,0,0,0-.35183-.01223.21652.21652,0,0,0-.075.15332.23522.23522,0,0,0,.10578.19877c-.14432.12489-.16387.25421-.06046.362a.30546.30546,0,0,0,.39777.00079C2.21235,1.85759,2.1933,1.726,2.0546,1.5982Zm.69993-.30283L2.42365,2.014c.06971.02574.10906.01323.13724-.05273.09325-.21826.19263-.43391.28818-.65121.014-.03191.03837-.06492.00768-.11373-.14994,0-.30673-.00052-.46351.00038-.03759.00022-.087-.0137-.08422.053.00244.059.04733.0448.081.04516C2.50589,1.29614,2.62182,1.29537,2.75453,1.29537Z"/><path class="cls-1" d="M8.682,1.086A.89426.89426,0,0,1,8.87635.67845,1.59993,1.59993,0,0,1,9.82306.03827a1.024,1.024,0,0,1,.3564-.03214.12333.12333,0,0,0-.04435.14645c.025.05761.08106.06605.138.07106A1.39111,1.39111,0,0,1,10.49.25134a1.36731,1.36731,0,0,1,1.04231,1.52841,1.36912,1.36912,0,0,1-2.72446-.15494,1.685,1.685,0,0,1,.04392-.39093C8.882,1.09453,8.81718,1.04225,8.682,1.086Zm1.56094.51593a.85223.85223,0,0,0,.01836.23835.25029.25029,0,0,0,.254.19912.24429.24429,0,0,0,.25039-.20276,1.068,1.068,0,0,0-.00212-.45616.23772.23772,0,0,0-.24665-.19131.24309.24309,0,0,0-.25237.18452A.69477.69477,0,0,0,10.24291,1.60192Zm-.55284-.00318c-.1449.12466-.16428.25518-.06034.36262a.30534.30534,0,0,0,.39781-.00057c.09992-.10424.08074-.23429-.05284-.35821.11723-.13628.12707-.26129.02773-.35218a.27528.27528,0,0,0-.35939.01243A.21735.21735,0,0,0,9.69007,1.59874Z"/><path class="cls-2" d="M17.73769.06936c.00259-.02333.01145-.04215.03821-.04267A1.59052,1.59052,0,0,1,18.09455.0062a.12051.12051,0,0,0-.04484.14558c.02578.05615.08073.06667.13811.07184a1.51468,1.51468,0,0,1,.22776.03044,1.37739,1.37739,0,0,1,.99957,1.6867,1.37046,1.37046,0,1,1-2.56977-.92485A1.3453,1.3453,0,0,1,17.66472.2857C17.80149.23937,17.818.18243,17.73769.06936Zm.816,1.13258a.33618.33618,0,0,0-.33739.189.6372.6372,0,0,0-.0368.449.2485.2485,0,0,0,.21541.19213.23083.23083,0,0,0,.24558-.12543.3229.3229,0,0,0-.02464-.34086.22207.22207,0,0,0-.27827-.05355c-.01574.00626-.02943.02035-.04859.01136A.21236.21236,0,0,1,18.494,1.301C18.55766,1.29212,18.57975,1.27259,18.55364,1.20194Zm-.96339.81633a.32344.32344,0,0,0,.36911-.25711.80185.80185,0,0,0,.01336-.338.25654.25654,0,0,0-.22785-.23178.24053.24053,0,0,0-.25229.15393.32953.32953,0,0,0,.05375.338.22525.22525,0,0,0,.292.02158c.0087-.00445.01743-.01268.02725-.00178-.00924.13875-.06018.19733-.20488.22357C17.60837,1.93625,17.56345,1.9411,17.59025,2.01827Z"/><path class="cls-3" d="M17.73769.06936c.08027.11307.0638.17-.073.21634a1.3453,1.3453,0,0,0-.81934.73021,1.37031,1.37031,0,1,0,1.5702-.76185,1.51468,1.51468,0,0,0-.22776-.03044c-.05738-.00517-.11233-.01569-.13811-.07184A.12051.12051,0,0,1,18.09455.0062a1.48937,1.48937,0,0,1,1.26332.63453,1.58536,1.58536,0,1,1-2.82221,1.28035,1.59868,1.59868,0,0,1,.859-1.75926A.55437.55437,0,0,1,17.73769.06936Z"/><path class="cls-4" d="M1.16058.4894c.13311.05672.11938.13979.0465.22111A1.36887,1.36887,0,0,0,2.24635,2.956,1.38518,1.38518,0,0,0,3.6299,1.64985,1.38918,1.38918,0,0,0,2.61726.26393,1.237,1.237,0,0,0,2.35834.22306a.1371.1371,0,0,1-.13817-.0704A.1233.1233,0,0,1,2.26448.00613,1.44926,1.44926,0,0,1,3.30505.3978a1.5561,1.5561,0,0,1,.53683,1.28977,1.58612,1.58612,0,0,1-3.13.24815A1.55386,1.55386,0,0,1,1.01826.60334.2471.2471,0,0,1,1.16058.4894Z"/><path class="cls-4" d="M24.6408.8134c.14186-.01185.18879.054.127.18578a1.364,1.364,0,0,0,.99809,1.93319,1.30951,1.30951,0,0,0,1.2055-.37456,1.31255,1.31255,0,0,0,.34481-1.3644,1.32991,1.32991,0,0,0-.9859-.93871A1.30564,1.30564,0,0,0,26.103.2237c-.05685-.00539-.11292-.01352-.13794-.07113a.12333.12333,0,0,1,.04436-.14644,1.41453,1.41453,0,0,1,.965.32782,1.54855,1.54855,0,0,1,.61395,1.27633,1.58559,1.58559,0,0,1-3.129.3372,1.61529,1.61529,0,0,1,.12008-1.058A.23306.23306,0,0,1,24.6408.8134Z"/><path class="cls-4" d="M8.682,1.086c.13521-.04374.2.00854.16978.14789a1.685,1.685,0,0,0-.04392.39093A1.36952,1.36952,0,1,0,10.49.25134a1.39111,1.39111,0,0,0-.21689-.0277c-.05692-.005-.11295-.01345-.138-.07106a.12333.12333,0,0,1,.04435-.14645,1.41457,1.41457,0,0,1,.965.32784,1.54863,1.54863,0,0,1,.61392,1.27637,1.58557,1.58557,0,0,1-3.13148.32631A1.42443,1.42443,0,0,1,8.682,1.086Z"/><path class="cls-5" d="M2.21286,4.32159c.105.07043.22757-.05608.3204.06113a.24809.24809,0,0,1,.1206-.05353.11711.11711,0,0,1,.14017.10555,1.71337,1.71337,0,0,1,.00925.30068.08945.08945,0,0,1-.08771.01136c-.01876-.027-.01017-.05713-.01092-.08562-.00134-.05111,0-.10229-.00059-.15343-.00059-.04866-.00025-.10358-.0687-.10039-.06174.00288-.08569.04619-.08486.10585.00108.07646.00027.153.00027.22733a.10155.10155,0,0,1-.09393.00226c0-.07452-.001-.15075.00032-.22693.00092-.05522-.00465-.10963-.07446-.10931-.06413.0003-.08275.04507-.07992.10565.00355.07616.00085.15261.00085.22528-.03184.02583-.05975.01129-.09077.01205Z"/><path class="cls-5" d="M15.58043,4.19149a1.06313,1.06313,0,0,1,.23525.00332.14662.14662,0,0,1,.13631.09327.13167.13167,0,0,1-.058.166.15377.15377,0,0,1,.06873.19748.17566.17566,0,0,1-.17939.10037c-.06558.00187-.13126.00038-.20286.00038Zm.10065.4781c.06337-.00205.13261.02555.1808-.0372A.07653.07653,0,0,0,15.857,4.531a.184.184,0,0,0-.1825-.02256A.48238.48238,0,0,0,15.68108,4.66959Zm-.004-.245c.07647-.00866.16591.03107.18524-.07679.01117-.06228-.04881-.08423-.18524-.07049Z"/><path class="cls-5" d="M26.2196,4.46429a.34453.34453,0,0,1,.02869-.1496.215.215,0,0,1,.20912-.13262.2108.2108,0,0,1,.20387.13992.40093.40093,0,0,1,.01274.25817.21454.21454,0,0,1-.22961.17727.2256.2256,0,0,1-.21788-.19476A.81476.81476,0,0,1,26.2196,4.46429Zm.36889.006c-.00007-.12843-.04858-.20235-.13334-.20317-.08523-.00083-.13676.07365-.13834.19994-.00161.12893.05433.21226.14088.20983C26.541,4.67452,26.58857,4.59935,26.58849,4.47026Z"/><path class="cls-5" d="M25.291,4.58649c.0418-.00445.08313-.02765.10462.03748.01407.04265.05789.05352.0988.05665.046.00352.09242-.00563.10709-.05572.0156-.0533-.0226-.07885-.06667-.09648a1.46522,1.46522,0,0,1-.151-.06343.13421.13421,0,0,1-.08-.133.15173.15173,0,0,1,.10191-.13109.20332.20332,0,0,1,.29457.14468c-.04252.01428-.08028.02763-.10421-.03152-.01981-.049-.06624-.052-.11184-.04887-.03473.00236-.06559.0124-.075.05141a.0683.0683,0,0,0,.049.08563c.03716.015.07532.02751.11241.04264.106.04323.1451.10061.12925.18794-.01457.08022-.08181.12416-.19194.12543A.19067.19067,0,0,1,25.291,4.58649Z"/><path class="cls-5" d="M25.89386,4.26911a.50476.50476,0,0,0,.00741.1502h.20647c.03047.07242-.00055.08823-.06163.0847-.0469-.00271-.09409-.00054-.14326-.00054a.42774.42774,0,0,0-.008.15137c.08221.05683.20688-.03955.27017.05941l-.00754.0317h-.36163V4.19611a1.87854,1.87854,0,0,1,.31543-.008c.03818-.00045.03824.0046.03987.081Z"/><path class="cls-5" d="M8.43605,4.75061c-.05176-.00342-.10295.02632-.11347-.034-.01726-.099-.08412-.10156-.16046-.09548-.02531.002-.05092.00031-.08.00031-.04917.03865-.02249.17084-.15584.12021.06441-.1708.1295-.34189.19316-.51351a.0583.0583,0,0,1,.06671-.04149c.03692.00184.04641.0265.05721.05544C8.30563,4.40883,8.36934,4.575,8.43605,4.75061Zm-.1904-.22093a.90581.90581,0,0,0-.06118-.20361.57579.57579,0,0,0-.07595.21534C8.15947,4.5367,8.20186,4.55152,8.24565,4.52968Z"/><path class="cls-5" d="M17.45747,4.74987h-.0866V4.1968a.65368.65368,0,0,1,.29779.00875.16206.16206,0,0,1,.11465.17838.15675.15675,0,0,1-.135.14968c-.02855.006-.05807.00738-.08713.01093-.02818.00344-.05834-.00729-.08709.0126C17.45389,4.61539,17.47723,4.67894,17.45747,4.74987Zm.0143-.28269c.07363-.013.15082.0258.202-.0528a.08306.08306,0,0,0-.00654-.10217c-.05615-.06659-.12829-.04445-.19541-.03379Z"/><path class="cls-5" d="M0,4.18945a1.10413,1.10413,0,0,1,.27405.00981.1648.1648,0,0,1,.1406.18013.15623.15623,0,0,1-.1526.15607c-.0501.00767-.101.0101-.15016.01477-.024.03157-.01211.06561-.01419.09742-.00189.02889-.0004.058-.0004.0872C.06624,4.7644.03458,4.74762,0,4.75108Zm.09729.0855c0,.03418-.00171.06283.00046.09119.00238.03116-.01105.06518.01294.09265.154.012.20837-.012.20752-.09068S.26284,4.26449.09729,4.27495Z"/><path class="cls-5" d="M10.76442,4.76662V4.17051a.09505.09505,0,0,1,.08995-.00358v.18979c.08953-.03349.176-.0521.232.03484a.28618.28618,0,0,1,.01187.28285.12426.12426,0,0,1-.14154.08007A.2719.2719,0,0,0,10.76442,4.76662Zm.27084-.22776a.39216.39216,0,0,0-.014-.07247.07935.07935,0,0,0-.10188-.0577c-.08435.02378-.05955.09475-.064.15333-.00422.05576.00581.10262.069.11707.053.01213.08275-.019.09927-.06307A.37109.37109,0,0,0,11.03526,4.53886Z"/><path class="cls-5" d="M18.47564,4.75123a1.34594,1.34594,0,0,0-.23279.002.10735.10735,0,0,1-.12053-.10253.11555.11555,0,0,1,.08478-.13545,1.22369,1.22369,0,0,1,.14916-.02919c-.01217-.08991-.04563-.11112-.11286-.06325-.03544.02523-.06349.04545-.10556.02257a.15662.15662,0,0,1,.1996-.11336c.08144.01188.12055.05822.12548.15176A1.59861,1.59861,0,0,0,18.47564,4.75123ZM18.36348,4.558c-.06371-.00185-.12615-.01447-.14474.06243-.01.04136.02552.06278.05766.06126C18.34432,4.67845,18.38244,4.6427,18.36348,4.558Z"/><path class="cls-5" d="M3.41994,4.73957a.116.116,0,0,1-.09557.00522v-.412a.96965.96965,0,0,0,.23525-.00029c.07664.00149.10508.05885.107.12742.00267.09449.00067.1891.00067.28237a.09679.09679,0,0,1-.09181-.0011c0-.07875.00023-.15907-.00009-.2394-.00021-.05241-.01311-.09915-.07762-.09436-.05627.00418-.08055.04042-.07851.09817C3.422,4.582,3.41994,4.65867,3.41994,4.73957Z"/><path class="cls-5" d="M3.23825,4.75588a.62317.62317,0,0,0-.21558-.00153.11774.11774,0,0,1-.13821-.10895.12318.12318,0,0,1,.10186-.13558c.04543-.01141.0925-.01628.13906-.02412-.02473-.09414-.05333-.11015-.12267-.05944-.0363.02655-.06437.04022-.10448.01652a.16666.16666,0,0,1,.20844-.11015c.07892.01379.11622.06139.12.15675A1.7968,1.7968,0,0,0,3.23825,4.75588Zm-.10882-.19656c-.06275-.00452-.12305-.01576-.14651.0568-.01286.03977.01915.06422.053.06468C3.10554,4.68174,3.14264,4.6459,3.12943,4.55932Z"/><path class="cls-5" d="M12.40354,4.34467c-.0549.15855-.1081.31362-.16244.46829a.14377.14377,0,0,1-.11382.10657c-.026.00428-.05415.00622-.06094-.028-.00512-.0258-.00194-.0447.03338-.0552.07663-.02278.08407-.0759.05658-.14661-.04355-.112-.08012-.22669-.121-.34424.073-.02984.10814-.0069.12324.06672a1.56322,1.56322,0,0,0,.05388.16569.35148.35148,0,0,0,.06977-.1723C12.29805,4.34175,12.32747,4.31865,12.40354,4.34467Z"/><path class="cls-5" d="M16.41427,4.57644h-.259c.03048.10467.06862.1248.15766.08989.04473-.01754.04473-.01754.08509.01137a.18793.18793,0,0,1-.24738.0567.22356.22356,0,0,1-.086-.27819.17849.17849,0,0,1,.215-.12287C16.37359,4.35086,16.41431,4.42017,16.41427,4.57644Zm-.09343-.07283c-.00409-.064-.02668-.10659-.09088-.09911a.07663.07663,0,0,0-.07078.09911Z"/><path class="cls-5" d="M9.66522,4.575H9.40715c.0257.10435.06661.12879.15346.09133.03422-.01476.06327-.04184.08786.00934a.18532.18532,0,0,1-.24552.06.22176.22176,0,0,1-.0886-.27712.1777.1777,0,0,1,.21328-.12544C9.62251,4.34973,9.66321,4.417,9.66522,4.575Zm-.09588-.07462c-.00152-.06509-.02863-.10162-.08546-.09635a.07662.07662,0,0,0-.07513.09687A.51506.51506,0,0,0,9.56934,4.50035Z"/><path class="cls-5" d="M4.53046,4.5731h-.259c.02863.11.06829.13316.16207.08984.03387-.01565.05786-.03046.08182.00844a.18023.18023,0,0,1-.24126.06677.22623.22623,0,0,1-.097-.27655A.18171.18171,0,0,1,4.38,4.33147C4.48567,4.34315,4.52373,4.4007,4.53046,4.5731Zm-.26295-.06533a.90208.90208,0,0,0,.166-.00912c.00453-.06132-.02468-.09252-.07406-.095C4.3031,4.40088,4.2756,4.43831,4.26751,4.50777Z"/><path class="cls-5" d="M.83659,4.57341H.57708c.0305.11068.069.133.16334.08913.03445-.016.05809-.029.08171.00934a.18157.18157,0,0,1-.24224.06593A.22631.22631,0,0,1,.48373,4.461.18152.18152,0,0,1,.687,4.33155C.7924,4.34351.83053,4.4016.83659,4.57341Zm-.263-.07084a.57536.57536,0,0,0,.16522-.003C.7464,4.43964.71759,4.40833.66846,4.404.61176,4.399.58381,4.43621.57355,4.50257Z"/><path class="cls-5" d="M20.19421,4.57323h-.2495c.02127.10248.06425.129.14887.09544.03213-.01276.06206-.04863.09292.00738-.03931.0816-.11222.089-.19156.07676a.17081.17081,0,0,1-.14842-.14.227.227,0,0,1,.1066-.27169C20.09606,4.28115,20.20915,4.38613,20.19421,4.57323Zm-.08114-.07241c-.01213-.06093-.03336-.10109-.09123-.097-.05392.0038-.07945.03986-.08182.09555A.54471.54471,0,0,0,20.11307,4.50082Z"/><path class="cls-5" d="M16.80562,4.45331c-.06175.0254-.08523-.0143-.12014-.04025a.07008.07008,0,0,0-.108.02841c.008.05092.04963.05412.08224.06306.07206.01978.14663.03622.15361.12876a.11047.11047,0,0,1-.07745.10836.223.223,0,0,1-.22567-.03155.12021.12021,0,0,1-.03761-.0806c.04326-.01562.07961-.02.10832.02989.01876.03256.0563.02858.0894.02589a.05144.05144,0,0,0,.04735-.03869.04188.04188,0,0,0-.03151-.05c-.03728-.01432-.076-.025-.1132-.0394-.0555-.02151-.09678-.05787-.0855-.12265a.126.126,0,0,1,.11415-.1018A.15346.15346,0,0,1,16.80562,4.45331Z"/><path class="cls-5" d="M10.0575,4.45c-.082.0571-.15258-.1331-.232-.00263.02676.05531.079.05168.12214.06636.06523.02217.12739.05347.1142.13616-.01231.07725-.07373.10165-.14493.10673-.10395.00743-.14922-.02-.19676-.12616.04266-.0134.07842-.02614.10753.02539.01858.03289.05444.03269.088.02974a.051.051,0,0,0,.053-.04485c.00259-.02474-.01618-.039-.03768-.04673-.041-.01475-.08383-.02525-.12337-.04311a.10731.10731,0,0,1-.07193-.10075.11428.11428,0,0,1,.07079-.10205A.17011.17011,0,0,1,10.0575,4.45Z"/><path class="cls-5" d="M10.464,4.45527c-.036.00922-.06943.019-.09406-.02354a.06944.06944,0,0,0-.08687-.02737c-.02162.00582-.04084.01758-.04079.04439a.04068.04068,0,0,0,.0318.03948c.03794.01283.07677.02314.1143.037a.11161.11161,0,0,1,.08662.1232.12552.12552,0,0,1-.11219.10468.171.171,0,0,1-.22678-.12535c.0401-.0114.077-.02011.10361.02725.0186.033.0539.03355.0878.0307a.04849.04849,0,0,0,.05131-.0463.04539.04539,0,0,0-.03742-.04691c-.03815-.0123-.07707-.02286-.114-.03821a.10724.10724,0,0,1-.07758-.10733.11841.11841,0,0,1,.09238-.10958A.15484.15484,0,0,1,10.464,4.45527Z"/><path class="cls-5" d="M1.84747,4.54878a.18841.18841,0,0,1-.18939.209.19467.19467,0,0,1-.1959-.22546.18722.18722,0,0,1,.19456-.20339A.19337.19337,0,0,1,1.84747,4.54878ZM1.75392,4.5437c.00039-.08463-.044-.14417-.10467-.14048-.0561.00342-.09314.0589-.09359.14016-.00044.08057.03656.13615.09323.14009C1.71009,4.68773,1.75352,4.62993,1.75392,4.5437Z"/><path class="cls-5" d="M20.5915,4.453c-.03593.01415-.06965.02068-.09511-.019a.07038.07038,0,0,0-.07554-.03246c-.028.004-.05029.01615-.0522.04636-.0016.02525.01681.03756.0398.04427.035.01022.0702.02.10424.03286a.11131.11131,0,0,1,.08533.12368.12059.12059,0,0,1-.10063.10256.17893.17893,0,0,1-.23827-.12027c.0426-.01463.07711-.02485.10682.02628.02123.03654.06281.03328.09947.02619a.04552.04552,0,0,0,.04052-.0447.04091.04091,0,0,0-.03016-.041c-.041-.01507-.08343-.02668-.12391-.04305a.11077.11077,0,0,1-.07936-.10731.12189.12189,0,0,1,.09326-.11032A.15986.15986,0,0,1,20.5915,4.453Z"/><path class="cls-5" d="M4.10424,4.47647c-.05033.02056-.07462.0047-.104-.03362a.0808.0808,0,0,0-.14911.02994.23282.23282,0,0,0-.00027.14079.08228.08228,0,0,0,.14374.0409c.03273-.03249.0598-.04977.10343-.03381a.15111.15111,0,0,1-.184.13456.18541.18541,0,0,1-.16566-.20775.19.19,0,0,1,.146-.214C4.00647,4.31332,4.0673,4.35309,4.10424,4.47647Z"/><path class="cls-5" d="M19.78158,4.62c-.04969.12049-.11651.15795-.22243.13162a.19833.19833,0,0,1-.13384-.22427.18108.18108,0,0,1,.15433-.19486c.10983-.015.16244.02075.20129.14338-.0378.01114-.0704.02828-.09628-.02378a.07548.07548,0,0,0-.10026-.04281.097.097,0,0,0-.06325.09394.349.349,0,0,0,.0059.1087.08475.08475,0,0,0,.14428.0455A.12224.12224,0,0,1,19.78158,4.62Z"/><path class="cls-5" d="M18.89981,4.47781c-.046.01513-.07641.01348-.09735-.02949a.07291.07291,0,0,0-.09151-.041.09394.09394,0,0,0-.06846.08964.346.346,0,0,0,.0032.10895.083.083,0,0,0,.14757.04635c.03328-.03264.06024-.04775.10291-.02963a.15807.15807,0,0,1-.19932.131c-.09881-.01586-.15458-.09685-.1515-.22a.18286.18286,0,0,1,.15948-.20166C18.81548,4.319,18.86784,4.35693,18.89981,4.47781Z"/><path class="cls-5" d="M8.83069,4.6263c-.06194.11941-.13017.15386-.23254.12416a.21008.21008,0,0,1-.12663-.23965.178.178,0,0,1,.16988-.18034c.10526-.00729.15223.02956.18233.14416-.04139.021-.07414.02-.09746-.02828a.07173.07173,0,0,0-.09207-.039.08728.08728,0,0,0-.0643.08052.46133.46133,0,0,0,.0002.10917.08658.08658,0,0,0,.15182.05684C8.76442,4.61955,8.76442,4.61955,8.83069,4.6263Z"/><path class="cls-5" d="M9.23961,4.47647c-.04269.01952-.07487.01524-.0972-.03268a.06947.06947,0,0,0-.0828-.03825.08385.08385,0,0,0-.07024.07458A.42141.42141,0,0,0,8.98846,4.6c.0148.085.085.10693.1527.05131.03969-.03261.03969-.03261.09938-.02317a.16651.16651,0,0,1-.21679.12367.20483.20483,0,0,1-.13617-.23321A.18279.18279,0,0,1,9.0621,4.3301C9.16734,4.324,9.21493,4.363,9.23961,4.47647Z"/><path class="cls-5" d="M1.42112,4.15841c.038.09835-.13013.06122-.10006.13086.015.04713.03492.04362.05209.0444.02067.00094.03432.00781.03507.03112.00066.02064-.00567.03809-.02834.03711-.06548-.00284-.054.04376-.05426.08206-.00065.08695-.00021.17391-.00021.25815a.1004.1004,0,0,1-.09736-.00375c0-.07644.00152-.1561-.00061-.23567-.00114-.04214.01958-.09337-.051-.11034-.02274-.00546-.02262-.04793.01141-.05487.03207-.00654.03584-.022.04288-.04953C1.2623,4.16455,1.28042,4.15347,1.42112,4.15841Z"/><path class="cls-5" d="M19.085,4.24248c.017.03143-.009.10057.07122.10214.01539.0003.01642.03833-.01188.05825a.19676.19676,0,0,0,.00035.27685.04726.04726,0,0,1,.02093.05337c-.00282.02409-.02588.0214-.043.02326-.06922.00753-.11614-.02006-.12367-.09178-.00609-.058-.00235-.117-.00537-.17549-.00187-.03613.01792-.08556-.04862-.08864-.01708-.00078-.01994-.01953-.0181-.034A.05656.05656,0,0,1,18.93886,4.34C19.02692,4.36125,18.9595,4.17042,19.085,4.24248Z"/><path class="cls-5" d="M11.84375,4.23543c.04318-.0058.0993-.01981.08455.04447-.01737.07563.07.03316.07492.0836.00589.06006-.09037.02254-.07172.08538.02413.08125-.05876.18957.06624.24808.01882.00881.01445.05262-.03031.05962a.09655.09655,0,0,1-.12643-.08536c-.00824-.05733-.00435-.11631-.00767-.17445-.00228-.03976.01765-.08817-.0514-.10011-.02784-.00482-.02756-.054-.0008-.0562C11.85258,4.33472,11.82535,4.27846,11.84375,4.23543Z"/><path class="cls-5" d="M16.9408,4.23263c.03851-.00528.088-.01213.07538.05138-.01463.07358.07461.02878.07912.08013.00531.06063-.09265.01944-.07679.08274.02071.08264-.05746.19161.07022.2483.02237.00993.01616.0514-.02686.06037a.10144.10144,0,0,1-.13465-.09c-.00665-.05405-.00076-.10953-.00418-.16415-.00258-.04113.02363-.096-.05372-.1061-.02108-.00276-.02285-.05627.00592-.05729C16.95461,4.33515,16.90676,4.26951,16.9408,4.23263Z"/><path class="cls-5" d="M11.41862,4.17036a.09226.09226,0,0,1,.08924-.00249v.57294a.0935.0935,0,0,1-.08924.00231Z"/><path class="cls-5" d="M1.12847,4.3297c.0042.047.02363.08876-.04407.09194-.06823.00321-.08041.04833-.07852.10638.00235.07233.00056.14479.00056.21218-.032.01908-.05665.00928-.08774.01294V4.34039A1.07614,1.07614,0,0,0,1.12847,4.3297Z"/><path class="cls-5" d="M17.95768,4.74677a.14417.14417,0,0,1-.08972-.00225V4.33936c.06618-.0077.13522.02473.201-.02156.0209.06045.034.09939-.03754.10431-.06131.00422-.07585.04463-.07427.0992C17.95927,4.59388,17.95768,4.66655,17.95768,4.74677Z"/><path class="cls-5" d="M2.139,4.31239c.01175.06853.025.10776-.04134.11029-.05989.00228-.078.043-.07682.09817.00161.07272.00039.1455.00039.2132-.02972.032-.05737.01288-.08848.01849v-.415C2.00147,4.3283,2.06937,4.36656,2.139,4.31239Z"/><path class="cls-5" d="M11.21577,4.34011A.14743.14743,0,0,1,11.302,4.341V4.7397c-.02561.02152-.05355.013-.08624.00685Z"/><path class="cls-5" d="M19.33432,4.74608a.13165.13165,0,0,1-.08807-.00206V4.3478c.02727-.024.05538-.01075.08807-.0103Z"/><path class="cls-5" d="M11.62371,4.74378V4.34813a.07769.07769,0,0,1,.07982-.00819c.0037.008.00914.01433.00919.0207.00086.10607-.00246.21232.00256.31818C11.71885,4.75411,11.68783,4.76474,11.62371,4.74378Z"/><path class="cls-5" d="M10.65545,4.337v.40176c-.025.02272-.05228.01516-.09036.005,0-.11806.00192-.23773-.00074-.3573C10.56282,4.31746,10.607,4.3348,10.65545,4.337Z"/><path class="cls-5" d="M19.34072,4.22613a.04669.04669,0,0,1-.05272.04432.04276.04276,0,0,1-.047-.04754.04415.04415,0,0,1,.0515-.04334A.046.046,0,0,1,19.34072,4.22613Z"/><path class="cls-5" d="M11.31016,4.22558a.04668.04668,0,0,1-.05112.04489c-.02864-.001-.04939-.0148-.04876-.04614.00062-.03111.022-.04458.05029-.045A.04673.04673,0,0,1,11.31016,4.22558Z"/><path class="cls-5" d="M11.66238,4.27009c-.03212-.00074-.04472-.02-.04268-.04906a.04149.04149,0,0,1,.05108-.04123.04193.04193,0,0,1,.0436.04952C11.71225,4.26082,11.69116,4.27107,11.66238,4.27009Z"/><path class="cls-5" d="M10.65956,4.22468a.04369.04369,0,0,1-.05056.04563.04018.04018,0,0,1-.04474-.04739.04128.04128,0,0,1,.04928-.04326A.04233.04233,0,0,1,10.65956,4.22468Z"/><path class="cls-6" d="M25.8035,1.60063c.13589.12927.15384.26529.04841.36671a.30962.30962,0,0,1-.39083-.00413c-.10612-.10706-.08661-.23372.05626-.36518-.12377-.12266-.13735-.24264-.0387-.342a.27931.27931,0,0,1,.35219-.00716C25.93277,1.34012,25.92278,1.46875,25.8035,1.60063Zm-.15921.34494a.13743.13743,0,0,0,.16555-.1327.14087.14087,0,0,0-.13776-.16266.14788.14788,0,0,0-.16955.1456A.14045.14045,0,0,0,25.64429,1.94557Zm.01791-.66712a.13141.13141,0,0,0-.13962.13592.1375.1375,0,0,0,.13638.14152.13019.13019,0,0,0,.13226-.1318A.1315.1315,0,0,0,25.6622,1.27845Z"/><path class="cls-6" d="M26.21705,1.57093c.182-.02311.22391-.04982.23-.1429a.12568.12568,0,0,0-.0893-.1451c-.09042-.02823-.15165.01088-.20725.12881a.12643.12643,0,0,1-.09331-.00609.23282.23282,0,0,1,.214-.21513.24847.24847,0,0,1,.27193.14034c.03916.0967.01008.17905-.094.26617.11941.10026.14988.18472.10486.29073a.26035.26035,0,0,1-.2911.14244.21831.21831,0,0,1-.21218-.21423c.05568-.01536.096-.02361.12115.05413a.15507.15507,0,0,0,.19879.06788.135.135,0,0,0,.09208-.14616.14313.14313,0,0,0-.14232-.13912C26.22432,1.64043,26.22432,1.64043,26.21705,1.57093Z"/><path class="cls-6" d="M2.0546,1.5982c.1387.12777.15775.25939.05741.36325a.30546.30546,0,0,1-.39777-.00079c-.10341-.10775-.08386-.23707.06046-.362a.23522.23522,0,0,1-.10578-.19877.21652.21652,0,0,1,.075-.15332.27751.27751,0,0,1,.35183.01223A.22383.22383,0,0,1,2.0546,1.5982Zm-.14008.34848a.1378.1378,0,0,0,.15115-.149A.14126.14126,0,0,0,1.912,1.64964.14731.14731,0,0,0,1.75782,1.8.14316.14316,0,0,0,1.91452,1.94668Zm-.00215-.39091a.1302.1302,0,0,0,.13382-.1409.13423.13423,0,1,0-.26844-.00217A.13724.13724,0,0,0,1.91237,1.55577Z"/><path class="cls-6" d="M2.75453,1.29537c-.13271,0-.24864.00077-.36456-.00048-.03362-.00036-.07851.01388-.081-.04516-.00275-.06669.04663-.05277.08422-.053.15678-.0009.31357-.00038.46351-.00038.03069.04881.00635.08182-.00768.11373-.09555.2173-.19493.43295-.28818.65121-.02818.066-.06753.07847-.13724.05273Z"/><path class="cls-6" d="M10.24291,1.60192a.69477.69477,0,0,1,.02163-.22824.24309.24309,0,0,1,.25237-.18452.23772.23772,0,0,1,.24665.19131,1.068,1.068,0,0,1,.00212.45616.24429.24429,0,0,1-.25039.20276.25029.25029,0,0,1-.254-.19912A.85223.85223,0,0,1,10.24291,1.60192Zm.10918.08363c.09784-.07427.1763-.1328.2535-.19294.03035-.02364.06843-.04243.05529-.09507a.1491.1491,0,0,0-.29071-.01173A1.0171,1.0171,0,0,0,10.35209,1.68555Zm.31588-.1334c-.09073.06845-.17162.12826-.25114.18984a.1083.1083,0,0,0,.02247.18952.1495.1495,0,0,0,.218-.09419A.69029.69029,0,0,0,10.668,1.55215Z"/><path class="cls-6" d="M9.69007,1.59874a.21735.21735,0,0,1-.047-.33591.27528.27528,0,0,1,.35939-.01243c.09934.09089.0895.2159-.02773.35218.13358.12392.15276.254.05284.35821a.30534.30534,0,0,1-.39781.00057C9.52579,1.85392,9.54517,1.7234,9.69007,1.59874Zm.14144.05071a.14811.14811,0,0,0-.15887.146.14327.14327,0,0,0,.15233.15084.13655.13655,0,0,0,.15545-.1441A.141.141,0,0,0,9.83151,1.64945Zm.13005-.22984a.1347.1347,0,1,0-.26914-.00073.137.137,0,0,0,.13017.13652A.13032.13032,0,0,0,9.96156,1.41961Z"/><path class="cls-5" d="M18.55364,1.20194c.02611.07065.004.09018-.05961.099a.21236.21236,0,0,0-.20509.22265c.01916.009.03285-.0051.04859-.01136a.22207.22207,0,0,1,.27827.05355.3229.3229,0,0,1,.02464.34086.23083.23083,0,0,1-.24558.12543A.2485.2485,0,0,1,18.17945,1.84a.6372.6372,0,0,1,.0368-.449A.33618.33618,0,0,1,18.55364,1.20194Zm.02148.55846c-.00063-.11422-.06062-.18739-.153-.18666a.15761.15761,0,0,0-.1571.15989c.00239.12175.06892.21095.15888.213C18.51693,1.94879,18.57575,1.87635,18.57512,1.7604Zm-.29188-.20852-.00591-.00816-.00695.00689.00544.00811Z"/><path class="cls-5" d="M17.59025,2.01827c-.0268-.07717.01812-.082.07044-.09151.1447-.02624.19564-.08482.20488-.22358-.00982-.01089-.01855-.00266-.02725.00179a.22525.22525,0,0,1-.292-.02158.32953.32953,0,0,1-.05375-.338.24053.24053,0,0,1,.25229-.15393.25654.25654,0,0,1,.22785.23178.80185.80185,0,0,1-.01336.338A.32344.32344,0,0,1,17.59025,2.01827Zm.28619-.52808c-.00657-.12973-.07019-.21379-.1605-.212a.17269.17269,0,0,0-.14815.1973c.00311.11169.06983.18752.16124.18328A.15344.15344,0,0,0,17.87644,1.49019Z"/><path class="cls-1" d="M15.68108,4.66959a.48238.48238,0,0,1-.00659-.16119.184.184,0,0,1,.1825.02256.07653.07653,0,0,1,.00489.10143C15.81369,4.69514,15.74445,4.66754,15.68108,4.66959Z"/><path class="cls-7" d="M15.677,4.42455V4.27727c.13643-.01374.19641.00821.18524.07049C15.84294,4.45562,15.7535,4.41589,15.677,4.42455Z"/><path class="cls-7" d="M26.58849,4.47026c.00008.12909-.04752.20426-.1308.2066-.08655.00243-.14249-.0809-.14088-.20983.00158-.12629.05311-.20077.13834-.19994C26.53991,4.26791,26.58842,4.34183,26.58849,4.47026Z"/><path class="cls-2" d="M8.24565,4.52968c-.04379.02184-.08618.007-.13713.01173a.57579.57579,0,0,1,.07595-.21534A.90581.90581,0,0,1,8.24565,4.52968Z"/><path class="cls-7" d="M17.47177,4.46718V4.27842c.06712-.01066.13926-.0328.19541.03379a.08306.08306,0,0,1,.00654.10217C17.62259,4.493,17.5454,4.45414,17.47177,4.46718Z"/><path class="cls-7" d="M.09729,4.27495c.16555-.01046.22006.01447.22092.09316s-.05351.10263-.20752.09068C.0867,4.43132.10013,4.3973.09775,4.36614.09558,4.33778.09729,4.30913.09729,4.27495Z"/><path class="cls-1" d="M11.03526,4.53886a.37109.37109,0,0,1-.01159.07716c-.01652.044-.04628.0752-.09927.06307-.06315-.01445-.07318-.06131-.069-.11707.00443-.05858-.02037-.12955.064-.15333a.07935.07935,0,0,1,.10188.0577A.39216.39216,0,0,1,11.03526,4.53886Z"/><path class="cls-2" d="M18.36348,4.558c.019.08473-.01916.12048-.08708.12369-.03214.00152-.06765-.0199-.05766-.06126C18.23733,4.5435,18.29977,4.55612,18.36348,4.558Z"/><path class="cls-2" d="M3.12943,4.55932c.01321.08658-.02389.12242-.09351.12148-.03385-.00046-.06586-.02491-.053-.06468C3.00638,4.54356,3.06668,4.5548,3.12943,4.55932Z"/><path class="cls-2" d="M16.32084,4.50361h-.16166A.07663.07663,0,0,1,16.23,4.4045C16.29416,4.397,16.31675,4.43966,16.32084,4.50361Z"/><path class="cls-2" d="M9.56934,4.50035a.51506.51506,0,0,1-.16059.00052A.07662.07662,0,0,1,9.48388,4.404C9.54071,4.39873,9.56782,4.43526,9.56934,4.50035Z"/><path class="cls-2" d="M4.26751,4.50777c.00809-.06946.03559-.10689.09193-.10409.04938.00245.07859.03365.07406.095A.90208.90208,0,0,1,4.26751,4.50777Z"/><path class="cls-2" d="M.57355,4.50257C.58381,4.43621.61176,4.399.66846,4.404c.04913.00433.07794.03564.07031.09555A.57536.57536,0,0,1,.57355,4.50257Z"/><path class="cls-2" d="M20.11307,4.50082a.54471.54471,0,0,1-.173-.00146c.00237-.05569.0279-.09175.08182-.09555C20.07971,4.39973,20.10094,4.43989,20.11307,4.50082Z"/><path class="cls-1" d="M1.75392,4.5437c-.0004.08623-.04383.144-.105.13977-.05667-.00394-.09367-.05952-.09323-.14009.00045-.08126.03749-.13674.09359-.14016C1.71,4.39953,1.75431,4.45907,1.75392,4.5437Z"/><path class="cls-1" d="M25.64429,1.94557a.14045.14045,0,0,1-.14176-.14976.14788.14788,0,0,1,.16955-.1456.14087.14087,0,0,1,.13776.16266A.13743.13743,0,0,1,25.64429,1.94557Z"/><path class="cls-1" d="M25.6622,1.27845a.1315.1315,0,0,1,.129.14564.13019.13019,0,0,1-.13226.1318.1375.1375,0,0,1-.13638-.14152A.13141.13141,0,0,1,25.6622,1.27845Z"/><path class="cls-1" d="M1.91452,1.94668A.14316.14316,0,0,1,1.75782,1.8.14731.14731,0,0,1,1.912,1.64964a.14126.14126,0,0,1,.15366.14806A.1378.1378,0,0,1,1.91452,1.94668Z"/><path class="cls-1" d="M1.91237,1.55577a.13724.13724,0,0,1-.13462-.14307.13423.13423,0,1,1,.26844.00217A.1302.1302,0,0,1,1.91237,1.55577Z"/><path class="cls-1" d="M10.35209,1.68555a1.0171,1.0171,0,0,1,.01808-.29974.1491.1491,0,0,1,.29071.01173c.01314.05264-.02494.07143-.05529.09507C10.52839,1.55275,10.44993,1.61128,10.35209,1.68555Z"/><path class="cls-1" d="M10.668,1.55215a.69029.69029,0,0,1-.01069.28517.1495.1495,0,0,1-.218.09419.1083.1083,0,0,1-.02247-.18952C10.49635,1.68041,10.57724,1.6206,10.668,1.55215Z"/><path class="cls-1" d="M9.83151,1.64945a.141.141,0,0,1,.14891.15278.13655.13655,0,0,1-.15545.1441.14327.14327,0,0,1-.15233-.15084A.14811.14811,0,0,1,9.83151,1.64945Z"/><path class="cls-1" d="M9.96156,1.41961a.13032.13032,0,0,1-.139.13579.137.137,0,0,1-.13017-.13652.1347.1347,0,1,1,.26914.00073Z"/><path class="cls-2" d="M18.57512,1.7604c.00063.116-.05819.18839-.15126.18625-.09-.00207-.15649-.09127-.15888-.213a.15761.15761,0,0,1,.1571-.15989C18.5145,1.573,18.57449,1.64618,18.57512,1.7604Z"/><polygon class="cls-3" points="18.283 1.552 18.276 1.559 18.27 1.551 18.277 1.544 18.283 1.552"/><path class="cls-2" d="M17.87644,1.49019a.15344.15344,0,0,1-.14741.16854c-.09141.00424-.15813-.07159-.16124-.18328a.17269.17269,0,0,1,.14815-.1973C17.80625,1.2764,17.86987,1.36046,17.87644,1.49019Z"/></svg>