<?xml version="1.0" encoding="UTF-8"?>
<svg id="Layer_2" xmlns="http://www.w3.org/2000/svg" version="1.1" viewBox="0 0 27.5 27.5">
  <!-- Generator: Adobe Illustrator 29.0.1, SVG Export Plug-In . SVG Version: 2.1.0 Build 192)  -->
  <defs>
    <style>
      .st0 {
        fill: gray;
      }
    </style>
  </defs>
  <g id="Layer_1-2">
    <path class="st0" d="M13.8,0C6.2,0,0,6.2,0,13.8s6.2,13.8,13.8,13.8,13.8-6.2,13.8-13.8S21.3,0,13.8,0ZM13.8,25.5c-1.1-1.1-3.3-3.6-4.4-7.2,1.3-.3,2.8-.5,4.4-.5,1.6,0,3.1.3,4.4.6-1.1,3.6-3.3,6.1-4.4,7.1ZM13.7,16c-1.8,0-3.3.2-4.8.5-.2-.9-.3-1.8-.3-2.8s.1-1.9.3-2.9c1.4.3,2.9.6,4.6.6h.2c1.8,0,3.4-.3,4.8-.7.2.9.3,1.9.3,2.9s-.1,2-.3,2.9c-1.5-.4-3.1-.7-4.8-.7ZM13.8,2c1.1,1.1,3.3,3.5,4.4,7.1-1.3.4-2.8.6-4.4.6h-.2c-1.5,0-2.9-.2-4.2-.5,1.1-3.7,3.3-6.1,4.4-7.2h0ZM20.2,10.3c1.8-.6,3.2-1.4,4.3-2.1.9,1.7,1.4,3.6,1.4,5.6s-.5,3.9-1.4,5.6c-1-.7-2.5-1.5-4.3-2.1.2-1.1.4-2.2.4-3.5s-.1-2.4-.4-3.5ZM23.5,6.7c-.9.6-2.2,1.3-3.8,1.9-.9-3-2.5-5.3-3.8-6.7,3.1.6,5.8,2.3,7.5,4.8ZM11.5,1.9c-1.3,1.5-2.9,3.8-3.8,6.9-1.6-.6-2.9-1.3-3.9-1.9,1.8-2.6,4.5-4.4,7.7-5h0ZM3,8.4c1,.7,2.5,1.4,4.3,2.1-.2,1-.3,2.1-.3,3.3s.1,2.3.3,3.3c-1.8.6-3.3,1.4-4.3,2.1-.8-1.6-1.3-3.4-1.3-5.4s.5-3.8,1.3-5.4h0ZM3.8,20.6c.9-.6,2.3-1.3,3.9-1.9.9,3.1,2.5,5.4,3.8,6.8-3.2-.6-5.9-2.4-7.7-5ZM16,25.6c1.2-1.5,2.8-3.7,3.8-6.7,1.6.6,2.9,1.3,3.8,1.9-1.8,2.5-4.4,4.2-7.5,4.8Z"/>
  </g>
</svg>