<?xml version="1.0" encoding="UTF-8"?>
<svg id="Layer_2" data-name="Layer 2" xmlns="http://www.w3.org/2000/svg" viewBox="0 0 27.5 27.5">
  <g id="Layer_1-2" data-name="Layer 1">
    <path d="M13.75,0C6.17,0,0,6.17,0,13.75s6.17,13.75,13.75,13.75,13.75-6.17,13.75-13.75S21.33,0,13.75,0ZM13.75,25.49c-1.13-1.1-3.3-3.58-4.4-7.22,1.31-.32,2.76-.54,4.35-.54,1.63.01,3.1.26,4.43.62-1.11,3.6-3.26,6.05-4.38,7.14ZM13.71,16.03c-1.75-.03-3.34.2-4.77.55-.16-.89-.27-1.83-.27-2.83s.1-1.95.27-2.85c1.39.34,2.91.57,4.59.57.06,0,.12,0,.18,0,1.77-.02,3.37-.29,4.82-.67.18.93.29,1.91.29,2.95s-.11,2.03-.29,2.95c-1.45-.39-3.05-.66-4.82-.67ZM13.75,2.01c1.12,1.09,3.27,3.55,4.38,7.14-1.33.36-2.8.61-4.43.62h-.16c-1.53,0-2.93-.21-4.19-.52,1.1-3.65,3.27-6.14,4.41-7.24ZM20.16,10.29c1.77-.64,3.21-1.43,4.26-2.12.88,1.67,1.38,3.57,1.38,5.58s-.5,3.91-1.38,5.58c-1.04-.69-2.49-1.48-4.26-2.12.22-1.08.36-2.23.36-3.46s-.14-2.38-.36-3.46ZM23.52,6.72c-.93.62-2.2,1.33-3.77,1.91-.93-3-2.51-5.27-3.76-6.72,3.09.58,5.76,2.35,7.53,4.81ZM11.51,1.92c-1.27,1.47-2.88,3.79-3.8,6.86-1.63-.56-2.94-1.26-3.87-1.86,1.77-2.56,4.5-4.4,7.67-4.99ZM2.98,8.38c1.05.67,2.52,1.44,4.33,2.05-.2,1.04-.33,2.14-.33,3.32s.13,2.27.33,3.31c-1.81.62-3.28,1.4-4.33,2.07-.81-1.62-1.28-3.44-1.28-5.37s.47-3.75,1.28-5.37ZM3.84,20.59c.94-.6,2.25-1.29,3.88-1.85.92,3.06,2.52,5.37,3.79,6.84-3.17-.6-5.9-2.44-7.67-4.99ZM15.99,25.58c1.25-1.45,2.83-3.72,3.76-6.72,1.57.58,2.85,1.29,3.77,1.91-1.77,2.46-4.44,4.22-7.53,4.81Z"/>
  </g>
</svg>