<?xml version="1.0" encoding="UTF-8"?>
<svg id="Layer_1" xmlns="http://www.w3.org/2000/svg" version="1.1" viewBox="0 0 257.8 238.7">
  <!-- Generator: Adobe Illustrator 29.0.1, SVG Export Plug-In . SVG Version: 2.1.0 Build 192)  -->
  <defs>
    <style>
      .st0 {
        fill: #8835a7;
      }
    </style>
  </defs>
  <g id="Layer_2">
    <path class="st0" d="M127.7,0C136,0,142.6,9,150.4,10.8s20.3-8.4,27.5-5-2.9,32,3.4,37,41.8-19.2,46.8-12.8-4.6,24.9-1.1,32.3-16.4,20.5-14.6,28.5c1.8,7.7-2.8,11.1-2.8,19.4s49.9,21.9,48.1,29.7-23.4,12.8-26.9,20-26.2,1.4-31.2,7.7c-5.1,6.3,3.1,23.8-3.2,28.8s-25.9-16-33.3-12.5,1.8,53-6.2,54.8c-7.7,1.8-21.1-46.1-29.3-46.1s-20.2,41.7-27.9,39.9c-8-1.8-11.1-23-18.3-26.5s-1.3-23.4-7.6-28.5-28.1,8.2-33.1,1.8,6.6-21.6,3.1-29-18.6-8.6-20.4-16.6S0,118.4,0,110.1s13.7-17.9,15.5-25.6c1.8-7.7,3-18.1,6.5-25.3s25.9-2.4,30.9-8.7-5.7-28.3.6-33.4,15.1-10.9,22.4-14.4,20.3,6.4,28.2,4.6S119.4,0,127.7,0Z"/>
  </g>
</svg>