<?xml version="1.0" encoding="UTF-8"?>
<svg id="Layer_1" xmlns="http://www.w3.org/2000/svg" version="1.1" viewBox="0 0 627.2 1066">
  <!-- Generator: Adobe Illustrator 29.0.1, SVG Export Plug-In . SVG Version: 2.1.0 Build 192)  -->
  <defs>
    <style>
      .st0 {
        fill: #123a75;
      }
    </style>
  </defs>
  <path class="st0" d="M291.8,1.1c-.3.8.6,3,2,4.9,5.1,6.6,7.2,15.7,4.4,18.5s-11.6,1.5-15.5-.9c-5.5-3.4-6.1-2.5-5.8,9.6.2,5.9.5,10.8.8,11.1s1.9-.6,3.8-1.9c1.9-1.2,5.3-2.8,7.5-3.5,9.1-2.7,11.1-1.1,9.4,7.5-.7,3.2-2.2,7.5-3.4,9.5-1.3,2.4-1.7,4-1.1,4.6.6.4,5.6.6,11.3.4l10.2-.4v-2.8c0-1.6-.4-3.1-.9-3.4-1.2-.8-4.1-9.9-4.1-13s.7-2.7,2-3.1c2.7-.9,13.1,1.3,15.2,3.2,2.9,2.6,3.9.7,3.2-6.2-.4-3.8-.2-7.6.4-9.5,1.5-4-.7-5.1-5.1-2.5-2.1,1.3-5.2,1.9-9.6,1.9-5.6.1-6.6-.2-6.9-1.7-.4-2.2,2-10.3,5-16.5,2.6-5.5,1.6-6.9-3.7-5.2-2.7.9-4.8.9-7.8.1-8.8-2.2-10.7-2.3-11.3-.7Z"/>
  <path class="st0" d="M346.1,13.4c-.4.3-.7,4.3-.7,8.7s-.7,11.9-1.6,16.6c-.8,4.7-2.2,12.1-3,16.5s-2.1,10.9-2.8,14.4c-2.5,11.5-.7,11.8,11.2,1.7,8.1-6.9,21.6-16.6,22.9-16.6s1.4-.6,2.2-1.4c.9-.7,5.3-2.8,9.9-4.7,4.5-1.8,8.2-3.6,8.2-4,0-.8-13.9-9.9-15-9.9s-2.1,2-3.9,4.4c-6.7,9.4-22.2,22.9-24.1,21s4.6-24.4,9.5-31.6c4-5.8,4.3-5-3.7-10-2.3-1.5-5.2-3.4-6.4-4.3-1.1-.8-2.4-1.2-2.7-.8Z"/>
  <path class="st0" d="M247.9,27.1c-2.2,2.6-14.6,9.6-16.9,9.6s-3.1,1.9-5.1,4.2l-3.7,4.3.4,9.5c.3,8.2.8,10.4,3.5,16,6.4,13.4,15.4,20.5,24.7,19.7,7.7-.7,12.2-2.8,18.4-9s6.6-5.7,7.9-5.7c2.6,0,5.3-1,5.3-1.9s-3-3.9-6.6-7.7c-8.1-8.4-13.6-17-18.5-28.9-5.7-14-5.9-14.2-9.4-10.1ZM242.1,41.9c5.6,2.4,10.3,6.8,10.3,9.7,0,4.2-7.3,10.1-12.5,10.1s-5.6-6.5-5.8-12c-.2-4.4.2-5.5,2.2-7.1,2.8-2.3,2.3-2.2,5.8-.7ZM259.3,62.6c1,.6,2.3,3.3,3.1,6.6,1.2,4.9,1.1,6-.3,9-1.3,2.8-2.2,3.5-4.5,3.5-3.3,0-10.3-4.7-12.8-8.5-1.6-2.5-1.6-2.7.7-5.2,2.1-2.2,8.9-6,11.2-6.2.5-.1,1.6.3,2.6.8Z"/>
  <path class="st0" d="M392,51.4c-5.3,15.1-16.6,30.2-27.6,37.3-2.8,1.8-5,3.9-5,4.8,0,1.9,10.8,12.2,12.7,12.2s3.3-4,3.3-7.7,2.7-8.9,9.1-17.3c11.1-14.6,17.9-18.6,24.4-14.4,3.2,2.1,4.1,7,2.2,11.5-.8,2-5.2,6.9-10.2,11.5-4.8,4.3-9.8,9.6-11.1,11.7-4.5,6.9-4.2,20.7.4,20.7s2-.9,2.4-4.9c.6-5.9,2.6-8.7,11.2-15.1,11-8.4,16.6-16.7,16.6-24.7s-2.8-10.7-12.5-18.6c-4.4-3.5-9.1-7.6-10.4-9.1-1.4-1.4-2.8-2.6-3.1-2.6s-1.5,2.1-2.4,4.7Z"/>
  <path class="st0" d="M201.4,59.4c-3.6,2.5-6.7,6-10.7,12.1-1.9,2.9-5.3,6.7-7.4,8.6-4,3.4-4.1,4.6-.3,4.6s5.3,1.1,5.9,4.8c.8,4.9,3.9,11.3,9.4,19.5,9.4,14.1,12,18.2,12,20,.1,2.3,2.7,3.3,4.6,1.7,2.6-2.1,1.9-9.9-1.5-16.5-3.9-7.6-3.9-11.7-.1-15.6,5.4-5.3,9.1-3.6,15.5,7l3.7,6,6.1-4.2c6.8-4.7,8.4-6.6,7.5-9.1-.4-1.1-1.9-1.6-4.7-1.6-5.4,0-11.2-3.4-19-11.1-9.4-9.3-14-17.2-14-24s-.3-3.9-2.3-3.9-3.4.8-4.7,1.7ZM208.8,82.8c2.5,2.2,4.6,4.6,4.6,5.3,0,2.4-4.7,5.8-7.6,5.4-3.4-.4-7.4-6.5-7.4-11.6s.3-3.2,2.9-3.2,4.3,1.3,7.5,4.1Z"/>
  <path class="st0" d="M430.1,82.4c-.4.3-.7,1.5-.7,2.5,0,1.9-1.9,5.6-6.5,12.8-3.1,4.9-20.3,22.6-24.7,25.4-1.6,1-2.8,2.4-2.8,3.2,0,1.6,11.8,13.6,12.4,12.5.3-.3,2.1-3.8,4.1-7.6,8.7-16.8,24.5-33.5,31.6-33.5s4.8,3.6,2.6,8.8c-.8,2-2.9,7.5-4.7,12.2-3.8,10.3-11.7,29.5-13.5,33-2,4-2.8,8.7-1.5,9.5.7.4,4.2-.5,7.8-2,16.8-6.8,24.2-9.7,33.2-13,1.9-.7,6.4-2.1,10-3,3.6-1,7.2-1.9,8-2.2,1.1-.3.1-1.6-3.2-4.6-2.5-2.3-5.4-5.4-6.3-7-2-3.2-4.1-3.5-5-.7-.3,1.1-2.4,3.5-4.6,5.3-4.2,3.6-21,12.7-23.4,12.7s-1.8-2.6,1.5-9.7c1.7-3.4,3-6.7,3-7.3,0-1.6,3.9-8.5,6.1-10.9,1.2-1.3,3.7-3,5.6-3.7,3.3-1.4,3.3-1.5,1.6-3.9-1-1.3-2.1-2.5-2.5-2.5s-2.3-2.7-4.3-6-4.3-6-5.1-6-4.8-3.4-8.8-7.5c-7-7.2-8.5-8.3-9.9-6.8Z"/>
  <path class="st0" d="M164.8,96.1c-2.7,2.6-5.7,5.4-6.8,6.1-2.7,1.9-1.5,3.8,5.1,8.3,10.6,7.2,23.1,19.3,28.8,27.9,1.9,2.8,3.5,5.6,3.5,6.2s.8,1.5,1.9,2c1.6.9,2.7.1,7.1-5,4.8-5.5,5.9-8.9,3-8.9s-13.1-8.9-18.9-14.9c-7.3-7.6-16.6-19.9-17.8-23.6l-1-3-4.9,4.9Z"/>
  <path class="st0" d="M153.4,114.7c0,4.4-2.2,7.2-11.7,15-12.2,10-17.3,17.6-17.3,25.8s.6,3.9,5.5.6c2.1-1.4,4.4-2.3,5.1-2s1.8,2.4,2.4,4.8c4.1,16.9,21.1,26.8,32.8,19.4,4.5-2.8,11.9-11.1,15.9-17.7.9-1.5,3.1-3.4,4.9-4.3,3.4-1.6,4.9-5.6,2.1-5.6s-4.8-2.4-9.1-5.3c-12-8-13.6-9-14.4-8.3-.3.4.7,3.2,2.3,6.2,2.5,4.6,3,6.7,3,12.3s-1.6,11.6-5.7,13.7c-8,4.1-18.4-1.8-23-12.9-.9-2.3-1.7-5.2-1.7-6.5-.1-3.2,3-8.8,8.4-15.1,6.3-7.4,7.8-10.6,7.2-15.3-.9-6.8-6.7-10.9-6.7-4.8Z"/>
  <path class="st0" d="M473.9,149.5c-6.9,2.9-12.1,6.9-15.9,12-3.6,4.9-7.6,15.3-7.6,19.7s4.4,13.7,9.6,19.3c2.9,3.1,5.4,6.4,5.6,7.4.5,3.2,2.2,2.2,4.8-2.8,3.8-7.6,13.3-16.4,22-20.6,7.2-3.5,16.7-6.8,19.6-6.8s1.7-1.8-.8-4.3c-2.4-2.3-6.8-8.2-6.8-9.1,0-2.1-7.7-12.9-10.4-14.5-4.2-2.6-14.2-2.8-20.1-.3ZM496.1,161.9c2.7,2.5,2.9,4.7.7,9.1-4,7.8-7.2,8.6-12.5,2.9-7.2-7.6-7.2-9.2-.5-12.3,5.5-2.5,9.5-2.4,12.3.3ZM474.8,175.4c5.3,8,4.3,11.6-4.1,15.4-5.6,2.6-6.7,2.4-9.7-1.2-3.8-4.5-3.4-7.8,1.7-13.3,5.7-5.9,8.7-6.1,12.1-.9Z"/>
  <path class="st0" d="M305.4,166.9c-1.9.5-4.7,1.2-6.2,1.5-3,.6-13.8,9.8-13.8,11.8s-.7,1.8-1.5,2.5-1.5,2-1.5,3-.7,3.1-1.6,4.9c-3.6,7.3-2.7,36.5,1.5,47.1,1.2,3,2.4,8.4,2.7,12s1,7.8,1.5,9.4c1.3,4.1,1.1,8.3-.5,13.6-2.3,7.4-4.3,10.4-10.9,16.6-6.3,6-7.3,6.8-16.2,13.9-2.7,2.2-7,5.9-9.4,8.2-2.5,2.3-4.8,4-5.3,3.7-1.3-.8-.9-3.8.7-6,2.2-3,1.8-6.7-1.4-11.1-3.6-5-8-8.2-13.4-9.8-3.4-1-4.3-1.7-4.5-3.9-.2-1.7-1.3-3.1-3.4-4.2-2.6-1.4-2.8-1.7-1.6-3.2,1.8-2.1,6.8-13.8,6.8-15.9s-6-7.3-8.5-7.3-2.6-.4-3.4-.9c-1.8-1.2-5.3-18.8-4.6-22.9.5-2.9.9-3.3,2.8-2.7,1.2.4,3.7.9,5.5,1.2,2.7.4,3.2.2,3.2-1.5s-.4-2.3-.9-2.7c-.6-.3-1.6-1.9-2.5-3.5-1.4-2.8-1.3-3.1,1.1-5,1.4-1.1,3.2-2,4-2s1.3-.7,1.1-1.6c-.2-1-2.2-2.2-5-3.1-5.1-1.5-6.5-2.7-5-4.6.6-.7,1.3-2.9,1.7-5,.6-3.1.4-3.7-1-3.7s-2.8.9-4.2,2c-4.1,3.2-6,2.6-8.5-3-1.3-2.7-2.9-5-3.5-5-1.4,0-2.8,4.4-1.9,5.9,1,1.5-.5,4.1-2.3,4.1s-3.4-.9-5.6-2c-7.6-3.9-8.4-2.2-2.8,5.9l3.7,5.4-2.9,2.3c-1.7,1.3-3.5,2.4-4.2,2.4-1.9,0-2.7,2.1-1.2,3.1.8.5,2.6.9,4,.9s3.7.8,4.9,1.8c2.1,1.7,2.1,1.9.6,6.2-.8,2.4-1.3,4.7-1,5.2.8,1.3,4.1.9,5.4-.7,2.1-2.5,4.9-1.8,6.4,1.7,3.1,7.5,4.7,13.9,4.6,18.4-.4,19-.3,21.2,1.9,24.2,2.4,3.4,2.6,5.4.9,8.2-.9,1.3-.9,2.7-.3,4.6,1.4,3.8,3.3,4.1,3.7.7.2-2.2.8-2.8,2.8-2.8,3.1,0,3.9,3.4,1.6,6.7-1.7,2.4-2.3,12.8-.7,12.8s1.4-.7,2.1-1.5c1.2-1.4,1.5-1.4,3.1.1,2.7,2.4,2.4,6-.6,8-3.8,2.5-3.3,10.1.8,11.9,1.9.9,2.2,1.7,2,5.8-.1,3.5.4,5.4,1.7,6.7s1.7,2.8,1.3,6.3c-.4,3,0,5.6,1.1,7.8.9,1.7,1.6,4.6,1.6,6.2,0,4.7,2.1,9.7,4.2,9.7s3.6,4.6,2.1,6.1-3.2.9-5.9.7l-4.9-.3v-4.1c0-2.2-.7-4.9-1.5-5.9-.9-1.1-1.5-3.9-1.5-7.5s-.6-6.4-1.4-7.3c-.7-.9-1.7-4.9-2.1-8.9-.5-4-1.3-9.3-1.9-11.8s-1.2-6.1-1.3-8c-.2-1.9-.7-3.5-1.3-3.5-1.7,0-1.8,20.4-.1,25,2,5.3,2.4,41.9.6,52-1.6,9-1.6,9.7,0,17.5,3,15.5,4.2,46.9,1.9,51.1-.6,1.1-1.2,6.4-1.3,11.7-.2,7.9-.5,9.6-1.7,9.2-.8-.2-4.6-.6-8.6-.8l-7.2-.4-4.4,4.4c-5.9,5.9-6.9,11.7-3,17.3,1.9,2.9,1.8,17.9-.3,21-1.3,1.9-1.5,4.7-1.3,13.7.2,6.9.8,11.9,1.5,12.8.8,1,1.4,9,1.9,24,.6,18.5.5,23.1-.7,26-2.3,5.7-1.4,19.2,2.1,32.5,1.3,5.1,1.4,44,.1,46.5-1.4,2.7-1.5,18.4-.1,26,1.7,9.8,1.9,57.3.2,63.1-1.2,4.3-1.1,5.2.9,11,1.6,4.4,2.3,9.1,2.6,16.3.4,12.5.5,12.6,12.6,12.6s13.3.7,18.6,1.5c26.5,3.9,42.3,4.2,123.7,1.7,39-1.2,46-2.2,75.6-10.6,3.1-.9,6.4-1.6,7.5-1.6s2.9-.7,4.1-1.5c1.7-1.2,2.2-2.8,2.7-9.7.3-4.6.9-11.7,1.4-15.9.5-4.1.5-10.2,0-13.5-2.8-19.8-3.2-43.4-1.2-60.9.8-7.5.8-10.5-.1-17.5-1.3-9-1.4-61.4-.2-65.9s.8-4.9-.1-7.4c-1.6-4.3-2.5-53-1.2-64.6.6-5.5.6-10.9-.1-15.1-.5-3.6-1.4-10-1.8-14.2-.5-4.2-1.2-8.1-1.5-8.6s.3-1.7,1.4-2.7c3.3-2.9,2.7-9.9-1.2-15.6-4-5.8-7.4-7.9-13.1-7.9s-11.5,3.9-13.7,8c-2.3,4.2-2.9,1.6-2.7-12.3,0-8.4-.4-15.6-1.1-17.7-1.3-4.1-1.9-38.2-.7-48,1-8.6.9-11.3-.5-18.5-.6-3.6-1.2-19.9-1.3-40.7-.2-26.2-.5-35-1.4-36-1.7-1.6-1.6-4.1.4-8.2,1.5-3.3,1.5-3.8-.2-7.5-2.4-5.5-8.1-10.9-12.1-11.7-6.8-1.3-12,1.6-16.8,9.3-3.1,5.1-3.3,8.1-.6,13,2.1,3.9,1.3,7.3-1.6,7.3s-18.5-14.1-24.7-21c-8.4-9.3-9.2-11.7-9-26.1s.9-15.5,1.7-19.3c.9-3.7,1.6-8.8,1.6-11.4s.7-8.2,1.5-12.4c1.1-5.9,1.2-9,.4-13-.5-2.9-1.6-8.8-2.4-13.1-.7-4.3-2.3-9.7-3.4-12-2.4-5-8.7-11.8-14-15.1-3.3-2.1-13.4-5.8-15-5.5-.3.1-2.2.5-4.1,1.1ZM320.2,173.9c5.1,3.1,4.2,5.1-1.1,2.3-6.5-3.4-21.2.8-28.8,8.2-2.6,2.5-3.9,3.1-4.4,2.2-.5-.7-.1-1.7.8-2.4,1-.7,1.7-1.7,1.7-2.2,0-1.5,9.4-10,11.6-10.5,4.4-1,16.9.5,20.2,2.4ZM309,181.9c.7,1-5.5,7-10.7,10.3-5.2,3.4-9.3,9.2-11.2,15.9-1.8,6.6-2.1,7.1-3.6,6.1-2.3-1.3-1.2-10.4,1.9-16.8,3.6-7.2,12.7-16.4,16.8-16.9,3.3-.4,6,.1,6.8,1.4ZM316.9,181.7c.3.5-.3,1-1.4,1s-2.1-.5-2.1-1,.6-1,1.4-1,1.8.4,2.1,1ZM319.4,194.5c6.6,2.3,12,7.3,15.2,13.9,2.1,4.5,2.3,6,2.3,22.8s-.2,18.5-2.3,24.1c-2.5,6.6-8.8,15.3-11.2,15.4-.8,0-2.4.7-3.4,1.5-2.5,1.9-8.6,1.9-12.8.1-1.8-.8-4-1.7-4.8-2.1-5.7-2.3-9.7-5.9-11.6-10.5-4.9-11.5-5.4-49.6-.8-51.4.8-.3,1.4-1.1,1.4-1.9,0-2,8-9.2,13.5-12.1,5.4-2.8,6.1-2.8,14.5.2ZM203.4,202.8c0,1.4-2.6,3.9-4,3.9s-.9-.7-.6-1.6.6-2,.6-2.5.9-.9,2-.9,2,.5,2,1.1ZM207.2,212.4c-.3,3.2-4.4,4.6-5.4,1.9-1-2.6.4-4.6,3.1-4.6s2.6.4,2.3,2.7ZM194.4,214.2c0,1.6-2.7,3.2-3.7,2.1-.7-.7,1.6-3.6,2.8-3.6s.9.7.9,1.5ZM204.3,223.2c4.4.9,2.8,2.5-2.4,2.5s-6.2-1.2-3.8-4.4c1.6-2.2,1.9-2.2,2.5-.6.4,1,2,2.1,3.7,2.5ZM211.9,221.7c-2.7,1.2-3.5,1.2-3.5,0s1.2-1,2.8-.9c2.4,0,2.5.1.7.9ZM299.2,271.9c3.8,3.8,18.8,6.2,21.1,3.4.8-.9,2-1.6,2.8-1.6s1.6-.7,1.9-1.5c.7-1.8,4.3-2,4.8-.3.3.7.7,4.1,1,7.6.6,6.1.5,6.4-2.5,9.2-5.3,4.8-14.4,9-19.4,9s-4.5-.4-4.5-1-1.1-1.2-2.4-1.6c-1.3-.3-3.7-1.9-5.2-3.5-2.7-2.9-2.9-3.5-2.7-11,.1-4.4.5-8.4.8-9,.8-1.2,2.9-1.1,4.3.3ZM338.9,290c0,5.2-1.9,5.1-2.3-.2-.2-3.2,0-4.2,1-3.9.8.3,1.3,2,1.3,4.1ZM396,291.3c3.5,2.7,4.7,7.5,2.3,9-1.2.7-18.7,1.3-20.6.6-2.4-.8-1.3-3.2,3.2-7.7,5.4-5.5,9.7-6,15.1-1.9ZM333,293.4c.3,1,1,2.8,1.6,3.9,1.1,2.4-.4,6.4-2.5,6.4-4.3,0-6.4-6.4-3.3-9.9,2.3-2.6,3.5-2.7,4.2-.4ZM232.5,294.1c1.9.8,4.5,2.6,5.8,4,2.1,2.2,2.3,3.1,1.5,5.4s-1.6,2.7-5.1,3c-3.8.3-4.4,0-6.7-3.5-1.4-2.1-2.6-4.9-2.6-6.4,0-4.3,1.5-4.8,7.1-2.5ZM294.4,298.1c0,4-4.1,6.3-5.4,2.9-.4-1,.2-2.5,1.5-3.9,2.5-2.7,3.9-2.3,3.9,1ZM304.2,298.9c1.8,1.8,1.5,4.1-.8,6.6-2.4,2.5-3.9,2.7-6.3.9-1.5-1-1.6-1.6-.5-4.4,1.5-4,5.2-5.5,7.6-3.1ZM322.4,299.6c0,1.3-2.6,3.2-3.3,2.4-1.4-1.3-.6-3.3,1.3-3.3s2,.4,2,.9ZM282.1,302.2c.2.6-1.3,1.5-3.3,2.1-2.9,1-3.7.9-4.1-.3-.3-.8,0-1.9.8-2.4,1.8-1.1,6.1-.7,6.6.6ZM326,307.3c-.4,1.2-1,1.2-2.6.4-2.6-1.4-2.5-2.9.3-3.9,2.4-.9,3.4.6,2.3,3.5ZM318.4,307.7c3.6,7.1,1.8,18.6-3.3,20.4-7.4,2.7-11.9-4.7-9.7-15.9,1.5-7.5,2.3-8.5,7.1-8.5s4.1.4,5.9,4ZM340.6,305.4c1.8,1.6,2.5,6.3.9,6.3s-5.1-6.7-4.4-7.4,1.5-.7,3.5,1.1ZM396.8,308.8c3.1,2.4,2.6,3.9-1.4,3.9s-9.6-3.1-7.3-5.3c1.3-1.4,6.1-.6,8.7,1.4ZM275.9,311.5c0,1.8-2,1.5-2.3-.4-.3-1,.1-1.5,1-1.2.7.3,1.3,1,1.3,1.6ZM381.5,311.2c-.1,1.5-2.4,1.2-2.9-.3s.2-1.3,1.2-1c1,.1,1.7.7,1.7,1.3ZM266.7,314.9c.8,3-1.5,4.6-4.2,2.9-1-.7-1.1-1.3-.2-3,1.5-2.7,3.7-2.7,4.4.1ZM255.4,314.3c0,1.5-3.6,6.4-4.7,6.4-1.8,0-1.6-1.3.8-4.4,1.9-2.4,3.9-3.4,3.9-2ZM397.4,318.2c4.8,2.4,6,4.4,4.2,7.1-3.1,4.7-15.4,4.5-17.3-.3-.7-1.9-1.2-2.2-2.8-1.4-1.4.8-2.3.5-4.1-1.3l-2.2-2.4,2.1-2.1c3.2-3.2,13.5-3,20.1.4ZM300.2,322.9c-.3,2.8-1.1,5.4-1.7,5.8-.8.4-1.3,3.1-1.3,6.4-.1,6.8-1.3,7.4-2.1.8-.4-3.1-.1-5.7.9-7.6.8-1.6,1.4-4.2,1.4-5.7,0-3.7,1-6,2.2-5.3.6.4.8,2.8.6,5.6ZM236.8,319.3c2.3.9,1.9,3.3-1,6.1-3.1,2.8-4.4,2.2-4.4-2.1s1.4-5.5,5.4-4ZM263.9,324.7c-1.7,1.8-4.5,2.8-4.5,1.5s2.7-3.4,4.4-3.5c1.8,0,1.8.1.1,2ZM324.2,332.7c.2,2.3.9,5.2,1.6,6.4,2,3.2,2.8,8.7,1.5,10.3-.9,1-.8,1.9.7,3.6,2,2.3,4.4,6.3,4.4,7.2s-6.1.5-8.1-.5c-2.4-1.3-2.4-3.3-.2-6.7,1.5-2.2,1.5-2.7.3-3.1-4.6-1.6-7.9-9.2-4.5-10.6,1.5-.5,2.2-4.6.8-4.6s-1.5-.5-2.3-1c-1.2-.7-1.1-1.3,1-3.5,3.2-3.4,4.4-2.7,4.8,2.5ZM240.9,330.9c-1,3.4-2.3,4.4-3.1,2.5-.9-2.3.2-4.7,2.1-4.7s1.5.6,1,2.2ZM306.4,330.2c3.6,1.8,3.6,2.1.9,3.5-1.6.9-2.6.8-4.5-.5-2.7-1.7-3.2-4.5-.9-4.5s2.9.7,4.5,1.5ZM254.7,332.2c4.2,1.8,6.4,4.5,3.6,4.5s-2.8,1.3-4.8,2.9c-2,1.5-6.2,4.2-9.4,6-7.3,4-8.1,2.7-3.6-5.9,3-5.6,7.3-10.5,8.9-9.8.3.2,2.7,1.2,5.3,2.3ZM372.6,330.6c2.9,1.1,8.9,7.1,8.2,8.3-1.1,1.7-4.7.7-10-2.8-5.7-3.8-6.5-5-3.6-5.7,2.8-.7,3-.7,5.4.2ZM377,346c3.3,1.2,3.9,1.9,4.2,4.5.2,1.8-.1,3.2-.8,3.2-3.9,0-28-19.3-28-22.4s4.6,2.7,10.3,6.5,12.1,7.5,14.3,8.2ZM267.4,334.7c0,1.7-19.9,20.5-24.7,23.4-1,.5-2,.3-2.9-.6-1.3-1.2-.2-2.4,7.7-8.9,5-4.1,10.8-8.7,12.8-10.2s3.8-3.2,3.9-3.7c.5-1.3,3.2-1.3,3.2,0ZM308,339.2c1.7,1.6,3.4,2.3,4.5,2,1.4-.5,2,.1,2.4,2.2.3,1.5,1.3,5.4,2.2,8.5s1.3,6.3,1,7.2c-.3.8-2.3,2.4-4.4,3.5-2.1,1-5,3.1-6.5,4.5-3.3,3.3-4.7,1.8-2.5-2.7,2.2-4.7,4.7-12.9,4.7-15.4s-1.7-3.8-2.5-1.3c-.3,1.1-1.5,2.5-2.6,3.1-1.6.8-2.5.6-4.4-1.3-3.1-2.9-3.2-7.4-.3-10.5,2.8-3,5-2.9,8.4.2ZM398.8,338.9c.3,1.3.7,10.5,1.1,20.6.6,20.3.2,22.2-4.6,22.2s-4.9-2.7-4.9-10.3-.7-9.7-1.5-15.2-1.5-11.2-1.5-12.8c0-3.8,3.2-6.7,7.5-6.7s3.6.4,3.9,2.2ZM268.6,341.5c-.7.2-1.2.8-1.2,1.4,0,2.7-17.4,21.8-22.2,24.4-3.3,1.7-3.8,1.7-3.8.2s27.4-28.9,27.9-27.6c.2.7-.1,1.4-.7,1.6ZM294.4,344.9c-.1,1.8-.7,4.4-1.5,5.8s-1.5,3.8-1.5,5.5-.7,3.9-1.5,4.9c-.8,1.1-1.5,3.3-1.5,4.9s-.7,3.5-1.5,4.3c-.8.9-1.5,2.6-1.5,4s-.3,2.4-.8,2.4-4,6.7-5.6,11.4c-.5,1.5-.9,1.6-2.1.6-1.9-1.6-1.5-2.9,3.9-14.5,4.7-10,6.3-14.1,7.7-20,.6-2.2,1.4-4.4,2-5s.9-2.1.9-3.5.3-3,.7-3.3c1.4-1.5,2.3-.5,2.3,2.5ZM363.3,349.5c2,1.8,6.9,4.9,10.9,6.9s7.7,4.2,8.2,4.8c2.5,3,4.3,17.6,2.4,19.4-.3.3-2.6-1.7-5.1-4.4-6.2-6.9-22.3-28.2-22.3-29.5s-.4-1-1-1-1-.7-1-1.7c0-1.8-.1-1.8,7.9,5.5ZM270.4,349.8c0,1.4-2.7,6.3-6,10.9-1.4,1.9-2.9,4.3-3.5,5.2-4.7,7.8-12.3,17.7-13.6,17.8-1.5,0-3.9-3.8-3.9-6.2s3.5-4.8,7.8-9.2c4.2-4.5,10-10.7,12.7-13.9,4.9-5.6,6.5-6.8,6.5-4.6ZM284.8,352c-.3.9-1,1.7-1.5,1.7-1.1,0-1.2-3.4-.2-4.3,1.1-1.2,2.4.8,1.7,2.6ZM354.1,350.4c.4,1,1.1,2.2,1.5,2.8.5.5,4.5,5.9,9,12,4.4,6,10,13,12.3,15.5,8.6,9.3,14.7,19.2,12.8,21.1s-4.3.2-4.3-1.1-2.2-3.6-4.8-7.1c-6.7-8.9-26.2-37.7-26.2-38.8s-.7-1.4-1.5-2.1c-1.7-1.4-2-4-.5-4s1.4.8,1.7,1.7ZM348.4,353.9c0,.5-.4.8-1,.8s-1-1-1-2.3.2-1.9,1-.7c.5.8,1,1.8,1,2.2ZM276.4,352.8c0,.6-.6,2.3-1.4,3.7-.8,1.5-3.6,7.2-6.4,12.7-6.8,13.6-7,14-12.5,22.3-2.7,4-5.7,7.7-6.8,8.2-1.7,1-1.9.7-1.9-2.9s1.1-5.4,5.3-11.2c5.3-7.5,8.5-12.4,10.9-16.9.7-1.4,3.5-5.8,6.2-9.8,4.5-6.7,6.6-8.7,6.6-6.1ZM301.7,354.1c1.4,1.1,1.7,2.5,1.5,6.2-.3,4.3-.6,4.8-3.3,5.7-4.2,1.4-4.3,1.6-1.5,3.7l2.4,1.8-1.8,5.1c-2,5.7-1.4,8.2,1.4,5.6,1.6-1.5,1.8-1.3,2.9,3.1,1.7,6.7,3.7,4.4,3.3-3.8-.4-9.1,3.4-12.3,9.1-7.8,1.4,1.1,3.6,2,4.9,2,2.2,0,6.8,4.5,6.8,6.6s1.5,2.5,3.3,4.8c5.8,7.1,6.8,10.7,2.4,9-1.4-.5-5.7,4.2-5.7,6.4s-1.9,2.8-4.1,5.1c-3.5,3.5-4.7,4.1-8.4,4.1s-6,.7-4.3,2.7c1.6,1.9-.4,5.1-5.2,8.5-4.5,3.1-12.8,13.2-13.6,16.6-1,3.7-4.4,2.4-7.3-2.8-2.9-5.3-3.2-12.6-.7-16.5.9-1.3,1.6-3.2,1.6-4.2s.7-2.7,1.5-3.7c.8-1.1,1.5-2.8,1.5-3.9s.7-2.5,1.5-3.3c.8-.9,1.5-2.4,1.5-3.5s-.7-1.9-1.5-1.9-1.5.9-1.5,2.4-.7,2.9-1.5,3.6-1.5,2-1.5,3-.7,2.3-1.5,3-1.5,2.1-1.5,3.1c0,2.8-1.8,3.2-3.1.7q-1.3-2.3-2.4,1.2c-.6,1.9-1.7,4.8-2.5,6.3-1.3,2.6-1.2,3,.3,3.8,2.2,1.3,2.2,5.2.1,8.5-1.3,1.9-1.4,2.8-.5,3.7s1.3.6,1.7-1.1c.4-1.2,1-2.2,1.4-2.2,1.4,0,2.2,4,1.2,5.3-.5.7-1.3,3-1.6,5.2-1,5.2-3.1,8.5-5.7,8.5s-3.4-2.8-.5-5.9c2.6-2.7,3.4-6.5,1.7-7.6-.6-.3-1.4.2-1.9,1.1-1.1,2-3.2,1-3.2-1.4s.7-2.6,1.5-3.6c.8-1.1,1.5-2.6,1.5-3.4s.7-2,1.5-2.8c1.7-1.7,2-3.4.6-3.4s-1.3.9-1.6,2-1.2,2-2,2c-1.6,0-2.9-3.5-2-5,.4-.6-.6-3.4-2.1-6.3-2.8-5.5-3.3-10.2-1.3-14.9,1-2.4,1.7-2.8,4.9-2.8,5.1,0,5.4.8,2,4.3-1.6,1.7-2.7,3.4-2.4,3.9,1,1.5,7.5-4.4,8.1-7.4.6-2.8,2-4.5,2.9-3.5.3.3.9,2.7,1.4,5.4l.9,4.8-.4-5.5c-.2-3-.7-7.4-1.1-9.8-.4-2.8-.2-4.2.5-4.2s1.6-1.1,2.1-2.5,2-3,3.4-3.6c2.1-1,2.4-1.7,2.3-7,0-6.1,1.3-8.5,5.6-10.2,1.8-.7,2.2-2.7.8-4.3-1.6-1.7,0-8.5,2.3-9.4,2.8-1.2,2.8-1.1,4.9.4ZM351.5,357.9c.5,1.3,2.5,5,4.4,8.3s3.8,6.7,4.2,7.5,5.9,8.5,12.2,17c12.3,16.4,17.4,25.1,18.5,31.2,1,5.6-1.4,4.9-4.7-1.5-1.5-2.8-5-8.6-7.7-12.7s-5.5-8.5-6.2-9.7c-1.3-2.2-8.5-13.7-12-19.1-1-1.5-2.2-3.7-2.7-4.9-.5-1.1-1.5-2.4-2-2.8-.6-.3-1.1-1.5-1.1-2.6s-.4-1.9-1-1.9-1.2-1.1-1.6-2.5c-.3-1.3-1.2-2.9-2-3.6-1.6-1.3-1.9-4.9-.4-4.9s1.5,1,2.1,2.2ZM281,361.8c-1.6,3.9-6.8,16.9-8.6,21.6-.7,1.8-1.8,3.8-2.6,4.4-1.9,1.5-1.8,3.9.1,3.9s4,4.3,3.2,6.4c-.4,1-1.8,1.6-3.6,1.6-3.1,0-4.9-1.4-3.1-2.5.5-.3,1-1.8,1-3.1,0-3.1-2.4-2.7-2.8.4-.2,1.2-.7,2.2-1.2,2.2s-1.1,1.5-1.5,3.2c-.3,1.8-1.2,4.6-2,6.3-.7,1.6-1.9,4.5-2.6,6.3-1.8,5-4.7,8.2-7.5,8.2s-2.4-.5-2.4-1.1c0-2.6,2.4-10.6,3.6-12,.8-.8,1.4-1.8,1.4-2.1s2.4-4.2,5.4-8.5,8.7-14.1,12.6-21.8c4-7.7,7.6-14.2,8-14.5.3-.3,1-1.4,1.4-2.4.4-1.3,1-1.6,1.7-.9s.5,2.1-.5,4.4ZM339.2,360.8c.2,1.3,1,3.2,1.8,4.3s1.4,3,1.4,4.2.6,3.5,1.4,5.1c.8,1.5,2.5,5,3.9,7.8,2.8,5.8,7.1,13.9,9.5,17.7.9,1.5,3.6,5.7,6,9.5,2.4,3.7,4.8,7.7,5.5,8.8s2.4,3.6,4,5.6c1.5,2,2.7,4,2.7,4.4s1.3,2.4,2.8,4.4c1.6,2,3.2,4.3,3.6,5.1.8,1.7,2,3.8,5.9,9.7,2.7,4.3,3.4,6.3,2,6.3s-4.3-3.6-12.5-14.6c-17.6-23.3-31.8-46.5-31.8-51.9s-.4-2.6-.9-2.9c-.5-.4-1.2-2.8-1.6-5.6-.4-2.7-1.3-5.4-2.1-6.1-.8-.6-1.4-2.2-1.4-3.4s-.7-2.8-1.5-3.5c-1.9-1.5-2.1-8.4-.2-7.8.6.3,1.4,1.5,1.5,2.9ZM320.5,366c-1.3,1.3-2.6.3-1.6-1.2.3-.6,1.1-.8,1.7-.5.6.4.6,1-.1,1.7ZM351.3,372.9c.6,1.3,1.9,3.5,2.9,5,2.4,3.7,10.5,16.5,11.7,18.6,1.8,3,14.6,22.6,16.6,25.4,1,1.5,1.9,3,1.9,3.2,0,.3,1.4,2.8,3,5.4,2.8,4.7,4.2,11.8,2,11-.5-.2-6.4-8.6-13.2-18.8-14.1-21.2-13.4-20.1-18.3-30-9.7-19.6-10.7-22-8.7-22s1.4,1,2.1,2.2ZM237.2,376.3c1.6.5,2.2,1.3,2,2.8-.3,2.3-4.1,3.2-8.5,2.1l-2.6-.6,2.3-2.5c2.5-2.6,3.2-2.7,6.8-1.8ZM241.6,386.4c2.2,2,2.5,10.5.4,12.2-.7.6-1.7,2.6-2,4.4-.6,2.9-.8,3-2,1.4-.7-.9-2.2-1.7-3.2-1.7s-3-.7-4.2-1.6c-1.8-1.3-2.2-2.5-2.2-7.2s.3-5.9,2.8-7.4c3.5-2.2,8-2.3,10.4-.1ZM400.7,391.6c2.3,4,2.1,6.3-.7,9-4,3.7-6,2.5-6.4-3.8-.4-6.7.1-8.1,3.1-8.1s2.9,1,4,2.9ZM225.4,394.7c0,2-.8,3.5-2.5,4.6-4.4,2.9-6-.4-2.4-5,2.8-3.5,4.9-3.4,4.9.4ZM348.2,402.2c4.8,4,5.3,11.5.7,11.5s-3.4-.8-6.3-6.1c-1.8-3.3-1.9-3.9-.6-5.8,1.9-2.7,2.6-2.6,6.2.4ZM333.9,409.1c1,2.9,1.1,4.3.2,5.7-.8,1.3-.8,2.4.1,4.1,1,1.8,1,3.1-.1,6.3-1.1,3.3-2,4.1-4.7,4.6-4.3.9-6.1,3.3-5.3,7,.3,1.7,0,3.5-.7,4.4-1,1.3-1.1,2-.1,3.9,1.7,3,1,9-1,9.4-.8.1-2.7-.8-4.1-2.1-2.3-2.1-2.6-3.2-2.6-8.8s.5-6.9,1.5-8.1c1.4-1.6,1.2-2-3-4.5-5.9-3.6-6.5-5.2-3.2-8,3-2.7,5.7-2.9,7.5-.8,1.6,1.9,5.9,2,6.6.1.3-.8,1.9-1.7,3.7-2,2.2-.5,2.8-.9,2-1.7s-2.5-.8-6.2.1c-2.8.7-5.8.9-6.6.6-1.9-.7-2-4.6-.1-4.6s3.6-2.2,6.2-4.9c5.9-6,8.1-6.1,9.9-.7ZM241.3,411.1c2.5,4.6-3.2,9.4-5.8,4.9-.7-1.3-.5-2.6.7-4.5,2-3.4,3.5-3.5,5.1-.4ZM402.2,416.7c.4,10.3-.2,12.2-3.6,11.8-2.2-.2-2.7-.9-3-3.3-.1-1.7-.7-5.5-1.3-8.7-.6-3.1-.8-6.1-.4-6.8.4-.6,2.3-1,4.3-.8l3.7.3.3,7.5ZM356,417.4c4.7,4.9,5.6,7.3,3.6,9.5-.8,1-2,1.8-2.7,1.8-1,0-7.5-8-7.5-9.3s2-5.7,2.4-5.7,2.2,1.7,4.2,3.7ZM230.8,428.2c0,7.1-.4,15.2-.7,18-.6,4.4-.5,4.7.5,2.2,1.2-2.8,5.8-4,5.8-1.4s-3.1,7.7-4.6,7.7-1.9,1.1-2.4,2.4c-1.1,2.9-4.9,4.4-6.1,2.5-.5-.8-.9-11.2-.9-23.2v-21.8l4.3.3,4.2.3v13ZM244.3,422.1l2.3,2.4-2.3,3.1c-2.6,3.6-2.1,3.4-5.3,1.9-3.9-1.7-4.4-4.7-1.2-7.5,3.4-2.9,3.7-2.9,6.5.1ZM261.2,421.9c.4,2.3-5.9,10.9-7.8,10.5-1.9-.3-1.5-5.5.6-7.8.8-.8,1.4-2,1.4-2.6,0-2.6,5.3-2.7,5.8-.1ZM343.3,426.7c2.4,1.3,3.2,6.5,1.8,12.7-1.7,7.1-2.7,7.6-2.7,1.2s-.6-6.3-1.3-7.4c-.9-1.3-1.2-3.7-.8-7,.3-2.8.7-4,.9-2.7.2,1.2,1.1,2.6,2.1,3.2ZM354.2,439.4c-.2,2.7-.8,3.9-2,4.1-1.5.3-1.8-.4-1.8-4.4s-.5-5.1-1.6-5.9c-1.4-1-1.5-1.5-.4-3.4q1.2-2.3,3.7,1.8c1.7,2.9,2.3,5.2,2.1,7.8ZM264.6,430.2c2.1,2.1-5.1,23.5-7.9,23.5s-1.7-13.3.3-17.1c2.7-5.2,6-8,7.6-6.4ZM309,431.9c1.3,1.3,2.4,2.6,2.4,3s-2.2,1-5,1.4c-2.7.4-4.7,1.1-4.4,1.6s1.8.6,3.3.3c3.5-.7,5.6,1.6,6.4,7,.4,2.2,1.2,4.4,1.9,5,.7.5,2,2.3,2.8,3.9s3.5,5.1,5.9,7.8c3.4,3.8,4.5,5.8,4.6,8.6.1,2.9.6,3.7,2.7,4.4,3.6,1.2,4.2,3.4,2,7.2-2.8,4.8-8.6,7.7-15.1,7.4-5.6-.3-7.9-2.1-4.2-3.3,1.4-.4,2.1-1.5,2.1-3.1,0-2.4-.3-2.5-4.7-2.3-3.7.3-4.8,0-4.8-1.1s1.2-1.4,5.5-1.2c3,.1,6.1-.2,6.9-.7,1.9-1.2.6-4.1-1.9-4.1s-2-.5-2-1,1.5-1,3.3-1,3.9-.5,4.7-1.1c1.6-1.1-6.5-.7-12.6.6-2.9.6-3.4.3-5.8-3.1-1.4-2.1-2.6-5.1-2.6-6.6,0-6.4-1.2-6.1-5.7,1.6-2.4,4.2-4.9,7.6-5.6,7.6-2.1,0-3.7-2.2-3.7-5s-.5-3.1-1.2-3.8c-1.3-1.3-1.3-8.1.1-9.5s4.1,4.7,4.1,8,2.3,2.2,3.3-2.3c.4-2.1.6-5.6.2-7.8-.4-2.8,0-4.9,1.6-8,5-9.7,7.5-12.6,10.7-12.6s3.5,1,4.8,2.2ZM367.9,432.9c1.5,1.8,3.3,4.4,3.9,5.8s2.3,3.6,3.9,4.8c1.5,1.3,2.7,3,2.7,3.8s2,3.4,4.4,5.7c7,6.8,10.6,12.5,10.6,16.9s-.4,3.8-1.5,3.8-1.5-1-1.5-3-.8-3.7-2.1-4.8c-4.1-3.3-6-5.7-6.6-8.2-.5-2.4-7.9-10-9.6-10s-1.3-1.4-1.9-3c-.6-1.9-1.9-3.2-3.4-3.6-3.4-.9-7.5-6.4-6.7-9.2.8-3.3,4.6-2.8,7.8,1ZM248.4,434.3c1.7,1.5,2.8,3,2.3,3.4-.4.5-3.1,1.1-5.9,1.5-4.6.6-5.4.4-7.3-1.6-1.1-1.3-2.1-3-2.1-3.8.1-1.4.3-1.3,1.4.1,1.7,2.3,2.8,2.3,4.4-.2,1.6-2.7,3.4-2.5,7.2.6ZM334.2,435.1c.7,3.4-.9,12.6-2.1,12.6s-4.1-12.5-3.1-14.1c1-1.7,4.9-.5,5.2,1.5ZM402.4,442.2c0,7.5-.2,8.5-1.8,8.5s-2.3-.5-3-1.2c-1.4-1.4-1.6-10.4-.2-11.3.6-.3,1-1.5,1-2.6s.7-1.9,2-1.9,2,.7,2,8.5ZM252.4,444.7c0,4.4-10.9,8.3-12.4,4.5-1-2.7.4-4.2,5.2-5.7,5.3-1.7,7.2-1.4,7.2,1.2ZM368.7,448.6c3.7,3.8,6.7,7.4,6.7,7.9s2.5,3.7,5.6,7.3c3.1,3.5,6,7.4,6.5,8.6.5,1.3,1.3,2.3,1.9,2.3s1,.7,1,1.6.6,2.8,1.4,4.2c1.6,3.2,3.7,11.2,4.4,16.6.2,2.2,1.1,4.6,1.8,5.4,1.8,1.7,1.9,5.5.2,5-.7-.3-1.4-1.6-1.6-3.1-.2-1.4-1-3.1-1.8-3.7-.8-.7-1.4-2-1.4-2.9s-.7-2.6-1.5-3.7c-.8-1-1.5-3.9-1.5-6.4,0-4.1-.5-5-5.4-10-3-3-6.5-5.8-7.8-6.1-4.1-1.2-9.8-.9-12.8.6s-3,1.3-3.8-.1c-.5-.9-.5-3.5-.1-5.8.7-4-.4-18.7-1.6-20.7-.9-1.4.2-3.9,1.8-3.9s4.3,3.1,8,6.9ZM340,455.1c-.7,8.6-1.1,10.5-2,9.5-.8-.8-1.9-17.8-1.2-19.4.5-1.5.9-1.5,2.2-.4,1.4,1.1,1.5,2.7,1,10.3ZM344.4,452.7c0,1.6-.4,3-1,3s-1-1.4-1-3,.5-3,1-3,1,1.3,1,3ZM355.4,454.1c0,1.9-3.7,6.3-4.5,5.4-.4-.4-.4-2,0-3.7.5-2.2,1.2-3.1,2.6-3.1s1.9.6,1.9,1.4ZM264.2,456.7c.2,1.4.8,2.9,1.2,3.4.5.5.5,1.7,0,2.7-.7,1.2-.6,2,.1,2.4,2.7,1.7,3.4,9.5.8,9.5s-2.2-1.4-3.6-3c-1.4-1.7-3.5-3-4.7-3-2,0-2.2-.5-2.1-5.8,0-6.8,1.6-9.4,5.4-9s2.7,1,2.9,2.8ZM333.4,456.6c0,3.2-1.6,4.9-3.1,3.4s0-6.3,1.7-6.3,1.4,1.1,1.4,2.9ZM239,458.3c-.9,1.3-1.6,3.2-1.6,4.4s-.6,2-1.4,2-1.6.9-1.9,2.1-1,1.8-1.7,1.4c-.8-.5-.7-1.4.4-3.1.9-1.3,1.6-2.8,1.6-3.4,0-1.8,4.2-7,5.2-6.4s.2,1.7-.6,3ZM270.4,457.5c0,1.3-1.2,2.2-2.2,1.6s-.1-2.4,1.3-2.4.9.4.9.8ZM250.4,460.2c1.3,1.6.6,3.5-1.5,3.5s-2.8-1.7-2.1-3.5c.7-1.9,2-1.9,3.6,0ZM277.4,465c.6,4.4.5,4.7-1.4,4.1-2.1-.7-4.5-3.2-4.6-4.7,0-.4.6-1.6,1.3-2.7,2.1-3.4,4.1-2,4.7,3.3ZM400.5,469c-.8.8-1.1.5-1.1-.9,0-2.7,1.4-4.1,1.8-1.9.2.9-.1,2.2-.7,2.8ZM229,468.2c.9,3.6-.2,5.5-3,5.5s-3.1.3-4,.6c-2.6,1-2.9-2.2-.5-5.5,2.9-3.9,6.6-4.2,7.5-.6ZM242.2,466.9c1.9,1.9,1.4,3.8-1.8,6.5-4.7,3.9-4,5.3,2.6,5.3s7.9.8,10.7,1.7l5.2,1.8-9.5.8c-11.3.9-14.4.4-13.5-2.2.3-1.1.1-2.2-.5-2.6-1.5-.9-1.2-3.4,1.1-8.2,2.1-4.4,3.6-5.2,5.7-3.1ZM252.9,471.7c0,1.9-.6,2.6-2.6,2.8-3.4.4-5.7-2.2-3.9-4.4.8-.8,2.5-1.4,3.9-1.2,2,.2,2.6.9,2.6,2.8ZM357.4,472.7c0,.9-5.8,6-6.8,6s-1.4-.5-2.2-1c-1.2-.8-.9-1.4,2-3.8,3.1-2.6,7-3.3,7-1.2ZM260.4,475.2c0,.8-.7,1.5-1.5,1.5-1.6,0-2-1.2-.8-2.3,1.1-1.2,2.3-.8,2.3.8ZM378.7,476.3c.9.3,2.4,1.8,3.2,3.3,1.3,2.6,1.3,3-.5,4.6-2.5,2.3-2.5,4.1,0,5.5,2.6,1.4,2.5,4-.1,8.7-2.7,5-5,7.2-5.6,5.6-.3-.7-1.3-2.3-2.3-3.5-1.7-2.1-1.9-2.2-3.7-.7-1,.9-2.5,1.9-3.3,2.3-.8.3-2.7,1.4-4.2,2.4-9.7,6.2-18.2,11.2-18.9,11.2s-.9-.9-.9-2c0-2,2.3-4.8,5.6-7,1.7-1,1.6-1-.6-.4-1.4.4-4.3.7-6.5.6-4.8,0-5.7,1.1-4.9,5.9.3,2.3-.1,5.1-1,7.4-.9,2.1-1.6,5.4-1.6,7.5s-.9,5-3,7.8c-1.6,2.3-3,4.8-3,5.6,0,2.2,1.9,3,2.6,1.2.3-.9,1.2-1.6,2-1.6,1.8,0,1.8,4.7-.1,8-.8,1.4-1.4,3.9-1.5,5.7,0,1.7-.6,4.4-1.4,6-4.1,8.1-5,11.4-3.7,13.5,1,1.7,1,2.3-.5,3.9-.9,1-2.7,1.9-3.8,1.9s-3.2.7-4.4,1.6c-1.4,1-3.8,1.4-6.9,1.2-4.2-.3-4.8-.6-4.4-2.3,1.1-6.5-.4-24-3.5-39.3-1.5-7.7-1.1-9.4,3.9-16.5.9-1.3.9-2,.1-2.5-1.4-.8,0-5.2,1.6-5.2s1.3-2.7-.2-3.2c-1.9-.7.2-2.8,2.8-2.8s2.4-.6,2.4-1.4.7-1.9,1.5-2.6,1.5-2.3,1.5-3.5-.7-2.8-1.5-3.5c-4.4-3.7,2.3-5.2,18.3-4.2l8.3.5-.2,3.8c-.2,2.1-.1,4.1.2,4.3.3.3,2.5-1.3,4.9-3.5,3.8-3.6,4.2-4.2,2.7-5.1-1.5-.8-1.3-1.2,1.5-3.6,1.8-1.5,3.8-3.4,4.5-4.2.9-1.1,1.6-1.2,2.9-.4s2.2.5,4.1-1.2c2.4-2.3,3-4.9,1.3-5.9-1.4-.8.6-3.4,3.5-4.6,1.9-.8,8.9-.4,12.8.7ZM395.7,475.3c.9.9-.4,3.5-1.4,2.8-.5-.3-.9-1.2-.9-2,0-1.4,1.2-1.9,2.3-.8ZM432.6,484.3c1,.3,2.1,1.6,2.4,3,.5,1.9-.2,3.2-3.4,6.5-3.9,3.9-4.3,4-9.8,3.7-4.8-.3-6-.7-7.6-2.9-2.5-3.3-1.1-6.7,4-9.8,3.6-2.1,8.4-2.2,14.4-.5ZM234.4,487.7c0,3.1-3.6,11-5,11s-1.2-1-1.5-2.1c-1-3.2-2.5-.4-2.5,4.8s-1.5,9.3-3.4,9.3-3-3.8-1.2-6.5c1.1-1.6,1.6-4.7,1.6-9.4s.4-7.2.9-7.5c.4-.3,1.9.3,3.1,1.4,2.5,2.2,4,2.6,4,1.1s.4-2.2,1-3.6c1.2-3.3,3-2.4,3,1.5ZM277,485.9c1.1,3.9,3.4,5.9,5.5,4.8,2.3-1.3,4.6-.4,5.2,2,.7,2.6,0,3-4.8,3s-9.5-3-9.5-7.4,2.3-6.4,3.6-2.4ZM212.8,487.2c3,2.8,3.2,4.4,1.1,8.4-1.9,3.8-7.3,4.6-13.4,2-2.4-1.1-4.9-1.9-5.7-1.9-2.2,0-2.6-1.9-.8-4.9,3.6-6.1,13.9-8.1,18.8-3.6ZM259.9,488.7c0,1.2-1.9,1.6-9.9,1.8-6.2.2-10.3-.1-11-.8-2.1-2.1,1.8-3,11.4-2.8,7.7.3,9.5.6,9.5,1.8ZM306.2,491.4c-.2.9-2.1,2.5-4.3,3.7-6.6,3.4-7.7,4.8-6.4,8.4.7,2.2.7,3.6,0,5.1-2.2,4.1-1.3,14.5,3.3,36.7,1,4.4,1.6,11.1,1.4,15l-.3,6.9-3.5.3c-1.9.1-4.6.5-6,.8-2.3.6-2.4.7-.5,1.4,1.1.5,4.1.9,6.7.9,2.6.1,5,.6,5.3,1.2.9,1.4.3,1.8-3.3,2.3-1.8.2-3.8.9-4.6,1.5-1.1.9-2.3.8-5.4-.4-2.2-.9-5.1-1.5-6.4-1.3-2,.3-2.3.9-2.3,4.2s.5,4.1,1.3,4.3c.7.3,1.2-.5,1.2-2.1,0-3.1,1.6-4.2,3.7-2.4.9.7,3,1.7,4.7,2.3,2.3.8,3.2,1.8,3.7,4.2.8,3.8.4,4.3-3,4.3s-3.1-.9-4.3-3c-1.8-3.1-4.8-4.1-4.8-1.5,0,4-5.6-1.7-6.4-6.6-.8-4.2-.2-5.1,5.2-7.8,4.3-2.2,4.3-2.3,2.6-4.2-1.5-1.6-1.8-4-2-13.2-.3-15-.2-14.7-1.5-14.7s-1,2.3-.6,7.9c.5,8.2-.3,11.5-2.4,9.4s-.7-20.2,1.5-23.5c1.5-2.4,1.7-4,1.1-10.5-.5-6.1-.3-8.9,1-12.8,1.9-5.6,3.9-7.9,10.5-12.1,9.5-6,15.5-8,14.8-4.7ZM270.2,493.5c.4,2.3-2.2,6.8-5.3,9.4-2.5,2.1-4.2,1.2-2.1-1.1.9-1,1.6-2.6,1.6-3.5,0-2.5,3.2-7.7,4.5-7.3.5.2,1.1,1.3,1.3,2.5ZM254.8,496.6c.7,1.1-2.8,2.1-8.1,2.1s-7.5-.8-6.7-2.1c.7-1.2,14.1-1.2,14.8,0ZM237.4,503.5c0,2.7-.6,5.7-1.5,6.8-.8,1-1.5,3-1.5,4.4s-.7,4.4-1.7,6.8c-1.2,3.2-1.3,4.6-.5,5.4s1.3.4,1.8-1.9c.3-1.8,1.2-3.4,2-3.7s1.4-1.2,1.4-2c0-2,6.5-7.5,9.8-8.1,1.5-.3,4-1,5.6-1.5,2.8-.9,6.3.2,15.6,4.9,1,.6,1.7,3.1,2.1,8.3.4,4.1,1.2,9.2,1.9,11.3,2.4,7.1-.5,33.2-3.7,34.3-1,.3-1.3-2.1-1.3-9.5s-1.2-14.7-2.6-10.9c-1,2.5.3,18.7,1.6,20s1,3.5,1.1,6.5c.1,3.1.4,6.7.8,8.1.6,2.2.8,2,1.9-2.3.7-2.6,1.7-4.7,2.2-4.7,1.4,0,1.3,19.6-.1,22.3-.7,1.1-1.3,5.2-1.5,9-.1,3.8-.7,7.4-1.2,7.9-1.5,1.5-16.8,1.5-18.4,0-.9-.9-1.4-5.8-1.6-17-.1-8.6-.9-22.6-1.8-31.1-.8-8.4-1.4-19.4-1.3-24.5.2-7.5-.1-9.2-1.4-9.4-2.6-.5-2.9,6.2-1.7,44.1,1.3,38.4,1.2,39.5-3.1,41.7-1.5.9-2.4.8-3.5-.1-1.3-1.1-1.5-3.5-1-15.8,1.2-26.2,1.5-64,.6-64.6-1.4-.8-2,2.3-2.1,10.8,0,4.5-.4,9.1-.8,10.1-.6,1.7-.9,1.5-2.8-1.3-1.8-2.9-1.9-3.6-.7-6.9,1.5-4.2,1.9-18.8.5-19.6-1.2-.8-2.8,1.3-3.7,4.9-.3,1.7-1.3,4.1-2,5.5-.8,1.4-1.7,4.7-2.1,7.4-.9,5.5-2.3,6.4-3.4,2.2-1.9-7.1,1.6-19.8,7.8-27.8,2.3-3.1,4.3-6.5,4.3-7.5s.7-2.8,1.5-3.9,1.5-4.1,1.5-7,.3-5.4.7-5.7c1.6-1.6,2.3-.4,2.3,4.1ZM411.1,508.9c-.6,3.2-1.5,5.8-1.9,5.8-1,0-1.1-12.4-.1-13.4.4-.3,1.2-.1,1.9.6.9,1,.9,2.7.1,7ZM256.4,502.7c0,1.3-1.3,1.7-7.2,2.3-5,.5-7.5-.4-6.4-2.2.9-1.4,13.6-1.5,13.6-.1ZM368.8,505.6c.9,1.3-7.8,8.1-14.1,11-1.1.5-2.4,1.5-2.8,2-.8,1.4-3.5,1.4-3.5.1s.7-1.3,1.6-1.7c.9-.3,3-1.9,4.7-3.4,1.7-1.6,3.7-2.9,4.3-2.9s1.4-.7,1.8-1.5c.3-.8,1.2-1.5,1.9-1.5s2-.7,2.7-1.5c1.4-1.7,2.6-1.9,3.4-.6ZM431.8,505.9c.2.7.9,3,1.5,5.1,1.1,3.4,1.1,4.1-.5,5.8-1.3,1.5-3.1,1.9-7.9,1.9-6.9,0-7.5-.5-7.5-6.6s1.3-7.4,8.1-7.4,6.1.4,6.3,1.2ZM213.4,508.6c1.7,3.3,1.3,9.9-.7,10.9s-2.3.7-3,.5-2.8.3-4.7,1.2c-5.3,2.6-8.3,1.4-9.1-3.5-.7-4-.1-7.5,1.7-9.8.7-.7,3.6-1.2,7.9-1.2s7,.3,7.9,1.9ZM388.8,509.7c3.4,2,8.9,9.1,11.9,15.2,1.8,3.7,1.8,3.8-.2,8-1.1,2.4-2.9,6.4-4,9-1,2.5-3.1,5.4-4.6,6.4-3.7,2.4-11.1,2.2-15.5-.5-4.3-2.6-7-2.7-7-.3s7.1,6.4,13.3,7.3c5.5.9,6.2,1.3,5.2,2.8-.9,1.6-10.7,1.3-12.9-.4-2.4-1.8-5.6-2-5.6-.3s1.2,2.1,2.6,3.2c3.5,2.5,16.8,2.8,20.4.5,1.4-.9,3.9-1.9,5.6-2.2,3-.6,3.2-.4,3.9,3,.3,1.9.3,7.6-.1,12.7l-.8,9.1-.8-8.4c-.8-9.1-2.2-12.3-3.4-7.5-.9,3.9-3.9,13.1-5.8,17.4-1.4,3.4-5.5,8.1-10.6,11.9-2,1.6-2.2,2.2-1.3,3.2,1,1,2.1.6,5.7-1.9l4.4-3.2-.5,6.8c-.3,4.9-.2,6.3.6,5.2.6-.8,1.1-2.3,1.1-3.3,0-3.1,2.5-1.3,2.8,2,.4,4.1-5,11.1-10.8,14-5.4,2.6-14.1,3.1-16,.8-.7-.8-2.1-1.5-3.2-1.5s-2.1-.7-2.4-1.5c-.4-.8-1-1.5-1.5-1.5s-2.5-1.6-4.6-3.6c-3.2-3.1-3.5-3.8-2.2-4.8,1.4-.9,1.5-2.6.8-11.1-1.2-13.6-2.5-23.9-4-30.7-1-4.6-1.1-6.5-.1-9.2.9-2.3.9-4.2.3-5.9-1.7-4.4-2.5-19.1-1.2-21.6.7-1.3,4.7-3.9,9.4-6.1,4.5-2.1,11.1-6.4,14.7-9.4,7.3-6.3,10.9-7.1,16.4-3.6ZM401.5,514c-.8.8-1.1.3-1.1-1.9.1-2.5.2-2.7,1.1-1.1.8,1.4.8,2.2,0,3ZM431.5,525.3c6,.2,6.9.8,6.9,4.5s-3.9,7.8-8.2,8.1c-9.6.5-12.8-1.3-12.8-7.3s3.1-7.4,7-6.3c1.4.4,4.6.8,7.1,1ZM211.3,527.4c1.3,1.2,2.3,3.5,2.7,7,.6,4.8.5,5.2-2,6.8-1.5,1-4.8,1.9-7.4,2-6.7.3-9.2-2.1-9.2-8.9s.4-5.6.8-6.2c1.6-2.6,12.2-3,15.1-.7ZM409,527.1c.7,1.8-1.4,5.8-2.7,5.1-1.6-1-1.1-6.5.6-6.5s1.8.6,2.1,1.4ZM342.4,540.7c0,4.4-.2,5-2.1,5s-2-.4-1.4-4.3c.8-4.8,1.2-5.7,2.6-5.7s.9,2.2.9,5ZM435.8,547.3c.4,1.4.9,11.7,1.2,22.9.4,17.5.3,20.9-1.1,23.5-1.6,3.1-1.8,3.2-6.8,2.5-2.9-.4-6.5-1.6-8-2.7-3-2.1-4.2-1.8-4.2,1.3s-.4,2-1,2.1c-1.3.4-1.8-9.3-.6-11.1s1.2-1.2,2.5-.2c1.4,1.1,1.6,1.1,1.6-.5,0-6.7,2.3-34.3,2.9-36,.9-2.1,9.5-5.6,11.8-4.7.6.2,1.4,1.6,1.7,2.9ZM345.2,549.1c.5,2.5-3.8,6.8-6.1,6.2-1.3-.3-2.1.3-2.8,2.2-.8,2.2-1.2,2.4-1.9,1.2-.4-.8-.6-2.7-.3-4.3.4-2.3.8-2.5,2-1.5,1.2.9,1.9.6,3.8-1.8,1.4-1.6,2.4-3.3,2.5-3.7,0-1.6,2.5-.1,2.8,1.7ZM211.8,552.9c1.5,2.9,1.7,5.8,1.3,22.3-.4,21.1-1.6,27.1-5.2,26-1.1-.3-3.4-.8-5.2-1.2-2.9-.5-3.2-.9-3.7-5.2-.4-2.5-.7-12.9-.9-23.1-.2-18.3-.2-18.5,2-18.8,1.2-.2,2.7-1,3.3-1.8.7-.8,2.5-1.4,4-1.4s3.1.8,4.4,3.2ZM404.4,551.2c0,.8-.4,1.5-1,1.5s-1-.7-1-1.5.5-1.5,1-1.5,1,.7,1,1.5ZM219.5,569.4c.2,5.2-.6,7.7-2.2,6.8-1-.7-1.2-10.5-.3-13,1.1-2.7,2.3.4,2.5,6.2ZM338.9,565.6c.8,1.4-3,3.2-4.9,2.5-3-1.1-1.6-3.4,2-3.4s2.5.4,2.9.9ZM409.5,615.2c1.9,52.6,2.8,71.8,3.4,76.5.6,4.2.5,4.7-2.5,6.8l-3.1,2.3-2.8-3c-3.1-3.3-2.6-4.6,1.9-4.6s2.5-.4,2.2-2.5c-.4-3.4-2.6-5.4-5.9-5.5-2.8,0-2.8-.1-2.9-7,0-3.9.4-8.1.8-9.5.5-1.4,1.1-10.6,1.4-20.5.8-34.9,1.6-53,2.5-56.8.6-2.1,1.2-8.8,1.5-14.8.2-6.1.5-11.3.5-11.7.5-2.3,2,22.9,3,50.3ZM230.6,593.7c-.4,18.7-.7,20.7-2.7,17-1-1.8-1-3-.3-4.5.6-1.1,1.2-8.3,1.3-16,.2-7.7.4-15.8.5-18l.3-4,.6,4.5c.4,2.5.5,11.9.3,21ZM347.1,575.9c-.2,1.3-.4.5-.4-1.7-.1-2.2.1-3.2.4-2.3.2,1,.2,2.8,0,4ZM330.4,580.3c0,1.5-5.3,5.4-7.4,5.4-4,0-3.8-1.3.6-3.6,4.5-2.2,6.8-2.8,6.8-1.8ZM312.2,586.9c-.7,1.9-8.6,3.2-10.4,1.8-2.3-2-.6-3,5.2-3s5.4.4,5.2,1.2ZM318.9,586.6c.3.5.1,1.2-.4,1.5-1.3.8-4.2-.4-3.5-1.5.7-1.2,3.1-1.2,3.9,0ZM281.5,590c-.1,1.2-1.5.9-1.9-.4-.3-.6.1-1,.8-.8.6.3,1.1.8,1.1,1.2ZM327.4,590c0,.7-1.7,2.1-3.7,3.1-3.6,1.7-3.7,1.9-1.8,3.2,1,.8,2.8,1.4,4,1.4s3.2.8,4.5,1.7c1.7,1.2,4.5,1.8,8.9,1.8,6.7,0,8.9,1.5,5.3,3.4-1.5.8-3.1.7-6-.3-2.2-.8-5-1.2-6.1-.9-1.2.3-4.3-.3-6.9-1.3-3.5-1.3-7-1.7-13.5-1.6-7.5.2-9.4-.1-12.3-1.8-1.9-1.2-3.4-2.6-3.4-3.1,0-1.6-10.6-1.1-12,.6s-4.6,2-5.4.6c-1-1.6,7.1-5,12.4-5.2,4-.2,5.4.1,6.2,1.4.5.9,1.5,1.7,2.2,1.7s1.9.7,2.6,1.5c.9,1,3.2,1.5,7.5,1.5,8.7,0,9.5-.5,9.5-5.1s0-3.9,4-3.9,4,.4,4,1.3ZM219.9,592.7c.8,1.6,1.5,3.8,1.5,5,0,2.9-2.9,8.2-4,7.5s-1.4-13.8-.3-14.8c1-1,1.1-.9,2.8,2.3ZM333.4,593.6c0,1.7-.4,3.2-.9,3.5-1.2.8-2.3-2.3-1.6-4.5,1-2.9,2.5-2.2,2.5,1ZM314.7,593.2c-.4,1.5-9.6,1.2-10.1-.3-.3-1,.9-1.2,4.9-1,3,.2,5.3.7,5.2,1.3ZM397.2,597.2c.6,1.4.8,2.5.4,2.5-1.2,0-3.2-2.3-3.2-3.7,0-2.2,1.6-1.5,2.8,1.2ZM295.3,600.1l2.2,2.3-3.7,4.4c-4,4.8-5.3,5.8-10.1,7.5-2.6.9-3.5.9-4.4-.2-.6-.8-2.2-1.4-3.5-1.4-4,0-3.5-1.1,5.1-10.5,3.4-3.8,4.6-4.4,8.1-4.4,3-.1,4.6.5,6.3,2.3ZM308.9,606.7c0,2-.6,2.6-2.8,2.8-1.6.2-3.6.1-4.4-.3-1.4-.5-1.2-.9.8-3.1,3-3.2,6.4-2.9,6.4.6ZM325.5,606.9c2.3,1.8,4.4,3.8,4.6,4.4.5,1.4-9.4,4.7-11.5,3.9-1-.4-2.2.2-3.2,1.5l-1.6,2.2-1.8-2.7c-3.3-5,.5-12.5,6.3-12.5s4.6,1.3,7.2,3.2ZM432.9,605.9c3.4,1.6,4.5,2.8,4.5,4.5,0,2.6-2.2,4-7.7,4.9-3.5.5-4.3.3-5.7-1.7-1.7-2.4-2-5.6-1-8.3.9-2.2,4.5-2,9.9.6ZM212.4,608.5c2.9,2.2,3.6,5.9,1.5,8.6-1.1,1.5-2.9,2-7.7,2.1-3.5.1-7.1-.2-8.1-.7-4-2.1-4.2-10.2-.3-11.9,3.1-1.3,11.7-.2,14.6,1.9ZM399.5,622.4c.3,35.9-.5,51.4-2.5,44.6-.2-1-.8-8.6-1.2-16.8-.5-10.4-1-13.7-1.4-10.8-.3,2.3-1.4,5.1-2.3,6.1s-1.7,2.4-1.7,3c0,1.5-4.2,8.2-6.5,10.5-1.2,1.3-3.5,1.7-9.3,1.7s-7.8-.1-12.3-4c-6.2-5.3-18.9-22-23.9-31.4-4.6-8.8-5.3-14.1-2-15.1,2-.6,4.7,1.4,20.4,15.9,7.8,7.1,14.4,9.5,23,8.2,7.9-1.2,11.4-5.5,15.7-19.4,2.9-9.7,3.9-7.8,4,7.5ZM350.2,612.7c.5,0,1.2.7,1.6,1.5.3.8,1.2,1.5,2,1.5s1.6.3,1.8.7c.5,1.3,6.6,5.3,7.9,5.3s2.1.8,3.1,1.7c2.7,2.5,16.3,2.5,20,.1,1.4-.9,2.9-1.4,3.2-1.1.9,1-6.4,7.3-9.2,8-6.5,1.6-18.5-2.7-25.4-9.1-2.1-1.9-3.8-3.8-3.8-4.1s-1.1-1.6-2.5-2.9-2.5-3-2.5-3.7c.1-1,.4-.9,1.4.3.7,1,1.8,1.8,2.4,1.8ZM307,615c1.1,1.2,2.3,3.3,2.6,4.7.7,2.9,2.5,8,4.4,12.8.8,1.8,1.4,4.2,1.4,5.3s.5,3,1.2,4.2c.6,1.2,1.4,4.8,1.8,8.2.7,5.4,4.1,16.6,7.7,25.3.8,1.8,1.3,3.8,1.1,4.3-.4,1.3-17.8,2.1-17.8.8s.6-1.2,1.4-1.5c2.6-1,4-6,2.8-10.7-.6-2.3-1.8-7.4-2.7-11.2-.9-3.9-2.3-9.3-3.1-12.1s-1.4-5.9-1.4-6.9-.6-4.1-1.4-6.9c-3.4-11.7-4.1-16.7-2.5-17.7,1.9-1.2,2.1-1.2,4.5,1.4ZM298,621.7c1.2,3.6,2.9,10.1,3.9,14.5.9,4.4,2.4,10.6,3.2,13.9,1.8,7.2.9,8.7-4,6.7-1.7-.7-5.9-2-9.2-2.8-3.3-.9-6.6-1.7-7.2-1.9-2.4-.6-1.3-2.1,2.6-3.6,2.1-.9,4.6-2.7,5.5-4.1,1.5-2.3,1.6-3.1.2-8.8-1.7-7.7-2.4-17.9-1.2-19.7,1.7-2.8,4-.6,6.2,5.8ZM254.2,621.3c2.4,1.7,2.9,5.6.9,7.2s-2.4.8-5.1,0c-4.4-1.4-5.1-2.5-3.7-6.1,1.2-3.1,4.4-3.6,7.9-1.1ZM271.2,623.2c.4,3.1-1.9,5.5-5.9,6.1-3.2.5-3.8.3-4.4-1.5-1.5-4.7,1.2-7.1,7.5-6.7,1.7.1,2.6.8,2.8,2.1ZM320.1,622.9c.5.7,2.4,5.1,4.2,9.8,13.3,34.5,22.3,51.6,32.8,62.7,9.8,10.3,19.4,13.5,27.4,9.4,4.6-2.4,6.4-1.6,5.3,2.4-1.3,4.3,1.9,4-38.1,3.3-16.5-.3-19.5-.5-20.9-2-1.6-1.6-1.5-1.9,1.9-5.8,4.1-4.5,4.6-7.7,2.3-15.1-.7-2.4-2.2-7.1-3.1-10.4-1-3.3-2.4-7.8-3-10-.7-2.2-2.1-6.7-3-10-1-3.3-2.3-7.6-3-9.5s-2.1-6.2-3-9.5c-1-3.3-2.5-7.9-3.3-10.2s-1.1-4.6-.7-5.2c.8-1.5,3-1.4,4.2.1ZM331.4,625.7c1,1.9,4.1,8.2,6.9,14,9.5,20,17.1,29.1,28.4,34.3,7.1,3.2,12.3,2,19.1-4.4,1.5-1.5,3.4-2.5,4.1-2.3,1.4.6,2.5,10.3,1.3,11.1-.5.2-.8,3.3-.8,6.9,0,18-13.4,23-26.6,9.9-10.4-10.3-18.7-24.7-28.4-49.1-2.8-7.1-6-15-7.1-17.6-1-2.6-1.9-5.2-1.9-5.8,0-2.3,3.2-.4,5,3ZM281.5,627.7c1.8,2.2,3.7,4,4.3,4,1.8.1,5.6,3.7,5.6,5.4s-4.9,2.2-5.4.3c-1.5-4.7-1.5-4.8-3.5-3.8-1.6.9-2.4.5-5-2.4-3-3.5-3.8-5.5-2.4-6.8,1.4-1.5,3.4-.5,6.4,3.3ZM435.9,626.8c1.4,2.6,1.6,5.5,1.1,17.2-.3,7.8-.6,16.4-.5,19.2,0,7.2-1.9,13.5-4.2,13.5s-2.1-.5-2.4-1c-.3-.6-2.1-1-3.8-1h-3.2l.4-8.6c.2-5.2-.2-10.8-1.1-14.2-.8-3.2-1.4-10.4-1.3-16.2v-10.5l6-.6c3.3-.3,6.3-.6,6.7-.7s1.5,1.2,2.3,2.9ZM243.6,628.7c-.4,3.7-4,9.2-5.7,8.7-1.8-.7-.7-7.9,1.7-10.4,2.9-3.1,4.4-2.4,4,1.7ZM210.9,628.5c1.8,1.3,5.5,9.1,5.5,11.5s-.6,3.7-1.4,5.2c-1.9,3.6-.5,8.2,3.4,11.6,3.5,3,5.1,7.2,5.5,14.9.4,6.9-2.1,15.2-4.4,14.8-1.3-.3-1.6-1.5-1.4-5.6.3-5.6-.1-6-3.1-3.7-4.4,3.3-12.8.4-14.6-5.1-1.3-3.7-1-39.4.3-41.2.5-.6,2.2-1.2,3.8-1.2s3.1-.5,3.4-1c.7-1.2,1.6-1.2,3-.2ZM267.4,635.7c.6,1.1,1.4,4.3,1.7,7.1q.6,5.1-1.7,3.8c-2.4-1.5-7.3-10.7-6.4-12.1,1-1.6,5.3-.8,6.4,1.2ZM354.8,655c5.6,5.5,10.3,8.3,16.2,9.7,6,1.3,12.6.1,16-3.2,1.6-1.4,2.4-1.6,2.9-.7.5.7.1,1.7-.8,2.4-1,.7-1.7,1.7-1.7,2.4s-.5,1.1-1.2,1.1-2,.8-3,1.7c-1.4,1.3-3.7,1.7-8.8,1.7s-7.3-.3-12.5-3.9c-5.4-3.7-13.5-13.4-13.5-16.2s-.4-1.3-1-1.3-1-.8-1-1.8c.1-1.3.6-1,2.2,1.2,1.2,1.6,4,4.7,6.2,6.9ZM238.7,650.3c2.5,1.9,4.8,4.2,5.1,4.9.6,1.7-8.2,7.1-9.4,5.9s-2.5-14.4-1.3-14.4,3,1.6,5.6,3.6ZM269.7,660.7c3.4,0,4.3,1.7,2.1,4.1-1.2,1.3-3,1.9-5.8,1.9s-4.4-.4-6.9-4.2c-1.9-3-2.7-5.5-2.7-8.8v-4.5l5.3,5.7c3.9,4.2,6,5.8,8,5.8ZM270.2,653.5c.3.9-.3,1.3-1.9,1-1.2-.1-2.4-.9-2.7-1.6-.3-.9.3-1.3,1.9-1,1.2.1,2.4.9,2.7,1.6ZM290,657.7c1.6.6,3.5,2,4.2,3.1,2,3.2-.1,4.9-5.9,4.9s-7.5-2.1-6.2-5.7c1.2-3.4,3.2-3.9,7.9-2.3ZM250.4,659.7c2.6,2.6,2.5,3.6-.6,6.5-4.3,4-7.3,2.7-7.4-3.3,0-1.4,3.6-5.2,5-5.2s1.9.9,3,2ZM306,663.4c2.7,3,4.1,7,2.8,8.3s-10-3.1-11.2-6.3c-1.4-3.8-.8-4.7,2.9-4.7s3.9.9,5.5,2.7ZM240.6,668.2c.3,2.7-.1,4-1.8,5.6-2.9,2.7-4.2,1.8-4.2-2.8s1.2-6.3,3.8-6.3,1.9,1,2.2,3.5ZM263.2,670.3c3.2,2.5,3.6,2.6,7.5,1.3,2.3-.7,5-2,6-2.8,1.7-1.4,2-1.4,3.2.2,1,1.4,1,2.5-.2,6-.8,2.3-1.9,4.6-2.4,5.1-.5.6-.9,1.7-.9,2.4,0,2-6.8,10.2-8.5,10.2s-8.4-7.9-9.2-11c-.3-1.4-1.2-3.4-1.9-4.5-2-2.7-1.7-7.2.4-8.4,2.3-1.4,2.1-1.4,6,1.5ZM285.1,680.9c-.4,4.4-2,9.3-4.3,14-.8,1.4-1.4,3.5-1.4,4.6s-.7,2.2-1.5,2.6c-.8.3-1.5,1.7-1.5,3.1s-.4,2.5-1,2.5-1.6,1.5-2.4,3.2c-4.5,10.4-8,8.7-12.9-6.2-4-12.3-5-17.1-3.9-18.2s1.3-.6,1.8.8c.9,2.3,3.9,5.5,7.5,7.8,2.5,1.6,2.8,1.6,6.1-.3,4-2.4,6.5-5.6,9.8-12.9,1.4-2.8,2.9-5.2,3.3-5.2s.7,1.9.4,4.2ZM417.4,680.7c0,2.1-.5,3-1.6,3s-1.4-.5-1-1.6c.3-.9.6-2.2.6-3s.5-1.4,1-1.4,1,1.3,1,3ZM437.2,683c2.2,1.5,1.4,6.4-1.5,8.7-3,2.3-8.1,2.3-10.9-.1-1.8-1.5-1.8-6.4.1-8.2,1.6-1.6,9.9-1.8,12.3-.4ZM240.4,683.4c0,.5-.5,1.5-1,2.3-.8,1.2-1,1.1-1-.8s.5-2.2,1-2.2,1,.3,1,.7ZM396.4,687.9c0,1-.4,1.8-1,1.8s-1-1.5-1-3.3.3-2.8,1-1.7c.5.8,1,2.3,1,3.2ZM318.3,686.9c1.2,3.1-.2,5.4-4,6.7-5.5,1.9-8.1-2.7-3.9-6.9s6.8-2.6,7.9.2ZM213.9,686.9c2.2,1,2.5,1.7,2.5,5.9s-.4,5.1-2.1,5.9c-1.6.9-2.6.8-4.4-.4-1.4-.9-4.1-1.6-6.1-1.6-6.4,0-9.1-4.1-5.8-8.8,1.3-1.8,2.5-2.2,7.4-2.2s7.1.5,8.5,1.2ZM251.8,687.3c.3.9.6,12.9.6,26.8,0,22-.3,26.3-2,33.1s-2.6,8.3-3.3,8.7c-.6.5-3,.7-5.2.6-3.9-.3-4-.4-4.3-4.6-.2-2.3.1-4.2.6-4.2,1.3,0,1.9-3.8,3.7-22.9.8-9.1,1.9-16.9,2.4-17.4s1.1,3,1.5,9c.4,5.4.9,11.8,1.3,14.3l.6,4.5.8-4c.4-2.2.8-13.3.8-24.8.1-18.7.7-23.7,2.5-19.1ZM328.4,687c7.4,6.1,5.1,11.4-3,7.2-3.2-1.6-4-5.1-1.8-7.3s2.9-1.5,4.8.1ZM239.6,691.7c1.3,2.4,1.8,4.7,1.4,7.3-.4,3.9-4.4,9.4-5.7,8-.7-.8-1.3-11-1-16.6.2-3.9,2.8-3.2,5.3,1.3ZM305.4,694.8c0,2.4-.4,2.9-2.4,2.9-2.9,0-5.6-2.4-5.6-5s1.8-2.9,5.3-1.7c2.1.7,2.7,1.5,2.7,3.8ZM286.9,695.4c-.4,1-1,3.1-1.3,4.8-.3,1.6-1.1,3.5-1.8,4.3-.8.7-1.4,2.2-1.4,3.3s-.4,1.9-.9,1.9-1.4,1.2-2,2.7c-.6,1.6-2,4.1-3.1,5.8-1.1,1.6-2.5,3.9-3,5-3.4,6.3-4.2,7.5-5.1,7.5s-.9-.9-.9-2,.5-2,1-2,1.3-.8,1.7-1.8c1.2-3.6,4.5-10.2,5.4-10.8.5-.3.9-1.6.9-2.8s.7-2.9,1.5-3.6,1.5-2.1,1.5-3.2.7-2.6,1.5-3.4c.8-.9,1.5-2.6,1.5-3.9,0-2.1,1.1-2.9,4.4-3.4.4,0,.5.7.1,1.6ZM400.6,697.8c.5,2.6.3,3.8-1.2,5.3-3.4,3.5-5.3-.9-3-6.9,1.3-3.5,3.3-2.7,4.2,1.6ZM230.4,701.4c-.1,3.8-.3,4.4-1.1,3-.9-1.6-.4-7.7.7-7.7s.4,2.1.4,4.7ZM291.4,700.1c0,1.2-.7,3.1-1.5,4.2-.8,1-1.5,2.9-1.5,4s-.7,2.7-1.5,3.4-1.5,2-1.5,3-.7,2.3-1.5,3-1.5,2.1-1.5,3.2-.6,2.1-1.4,2.4-1.7,1.6-2,3c-.4,1.3-1.1,2.4-1.6,2.4-1.3,0-1.3-.7.3-3.8.8-1.5,2.1-4.2,3-6,.9-1.9,1.7-4.2,1.7-5.2s.7-2.3,1.5-3,1.5-2.5,1.5-4,.7-3,1.5-3.4c.8-.3,1.5-1.6,1.5-2.9s.3-2.7.6-3c1.1-1.1,2.4.3,2.4,2.7ZM297.4,705.9c0,2.2-.6,5.2-1.4,6.6-.7,1.5-4.2,8.5-7.8,15.7-6.1,12.5-6.5,13-9.7,13.3s-3.3.2-2.6-2.5c.3-1.5,1.3-3.5,2.1-4.4.8-.8,1.4-2,1.4-2.6s.7-1.3,1.5-1.7c1.2-.4,10.5-18.4,10.5-20.3s4.3-9.2,5.1-8.7c.5.3.9,2.3.9,4.6ZM306.7,706.7c-.3,3.8-1.2,7.2-6.9,24.8-2.1,6.3-4.4,11.7-5.3,12.2-1.1.5-2.4.2-4-1.2-2.4-1.9-2.4-2-.9-5.1,3-6.2,7.8-18,7.8-19.3s.6-2.8,4.4-11.7c2.2-5.1,5.2-4.8,4.9.3ZM435.6,706.2c.8,2.6,2.1,26.6,2.1,37.7.1,7.5-5.5,11.1-11.1,7.2-2.4-1.7-2.8-4.1-1.1-7.8.9-1.9.8-3.9-.5-9-1.6-6.6-2.3-29.6-.9-31s3-.6,5.7-.4c4.6.3,5,.5,5.8,3.3ZM314.8,714.2c-.2,14.9-3.2,30.5-6.8,34.4-.9,1-1.6,2.3-1.6,2.9,0,1.8-3.5,1.4-5.3-.6-1.5-1.7-1.5-2.3-.2-7.3,3.5-12.4,4.6-16.6,5.5-20.5.5-2.2,1.3-5.1,1.9-6.5.5-1.3,1.3-4.1,1.6-6.2.5-3.2,1-3.8,2.8-3.5,2,.3,2.2.8,2.1,7.3ZM213.3,708.6c.8.5,1.8,3.5,2.4,6.8,1.1,7.1.8,37.2-.4,39.4-1,1.9-8.5,3.1-11.1,1.7-.9-.4-1.9-1.6-2.2-2.5-.4-1.6-1.1-39.5-.7-43.1.2-2.6,8.9-4.2,12-2.3ZM258.5,710.9c1.1,2.6,2.5,4.9,5.3,9,1.2,1.9,1.6,3.6,1.1,5.5-.9,3.7-7.5,13.4-8.6,12.7-1-.6-1.3-27.7-.2-28.7,1-1.1,1.3-.9,2.4,1.5ZM339.1,716.1c.7.6,1.4,2.2,1.5,3.6.3,2.4,0,2.5-4.7,2.5s-5-.1-5.9-3.3c-.7-2.6-.6-3.6.4-4.2,1.7-1,7-.2,8.7,1.4ZM368.3,714.3c2.2.5,3.3,1.4,3.8,3.2.8,3.2-1.8,5.2-6.8,5.2s-4.9-1.1-4.9-5.4,1.5-4.3,7.9-3ZM355.8,716.9c1.1,1.5,1.2,2.6.5,4-.8,1.5-1.9,1.8-5.7,1.6-4-.3-4.7-.6-5-2.6-.6-4,.5-5.2,4.7-5.2s4.4.6,5.5,2.2ZM385.8,715.3c1.9.7,2.1,4.5.4,6.2s-6.3,1.6-8.9.2c-1.8-1-2.6-5-1.2-6.3.8-.9,7.6-.9,9.7-.1ZM396.6,717.7c3.9,4,3.2,6.2-1.9,5.8-3.3-.3-3.8-.6-4.1-3.1-.7-6.3,1.4-7.2,6-2.7ZM413.4,719.7c0,.6-1.1,1-2.5,1-2.3,0-3.4-1.8-1.9-3.3.9-.8,4.4,1.1,4.4,2.3ZM326.9,724.9c3.6,2.3,6.5,4.4,6.6,4.7,0,.3.2,2.2.3,4.1.2,1.9.7,5.1,1.1,7.1.5,2.7.3,4-1,5.2-2,2.1-8.1,2.2-11.5.2-1.4-.8-3.6-1.4-4.8-1.5-2.3,0-2.4-.3-1.9-5.3.3-2.8,1-7,1.6-9.2s1.3-5.2,1.6-6.8c.3-1.5.8-2.7,1-2.7.3,0,3.5,1.9,7,4.2ZM343,728.9c1.3,1.3,2.4,3,2.4,3.8s.6,2.5,1.4,3.6,1.7,3.6,2.1,5.5c.5,2.9.2,3.8-2,5.7-4,3.5-5.8,2.5-7.1-3.6-.7-2.9-1.7-5.8-2.2-6.5-1.4-1.6-2.6-8.3-1.7-9.6,1.1-1.8,4.6-1.2,7.1,1.1ZM366.3,729.3c1.7,1.4,4.4,4.3,6.2,6.5l3.2,4-2.3,2.5c-1.3,1.3-2.9,2.4-3.5,2.4-2.6,0-11.5-12.8-11.5-16.5s4.5-1.8,7.9,1.1ZM381.3,733.2c6.6,7,7.9,10.2,3.6,9.1-1.3-.3-4.6-2.9-7.2-5.7s-5.4-5.7-6-6.4c-2-2.1-1.5-3.5,1.1-3.5s4.3,2.1,8.5,6.5ZM356.2,733.1c4.7,6.2,6,9.9,4.2,12.1-2,2.4-4.4,1.7-6.4-1.8-4.2-7.1-5.6-10.2-5.6-12.9,0-4.6,3.2-3.5,7.8,2.6ZM388,729.3c-.4,1,.1,2.2,1,2.9,1.9,1.4,1.2,4.8-.8,4-1.2-.5-5.8-6.8-5.8-8s1.4-.5,3.1-.5c2.5,0,3,.3,2.5,1.6ZM399.7,736c.4,2.3.7,5.1.9,6.2.2,1.4-.3,2.1-1.7,2.3-1.5.2-2.5-.7-3.8-3.3-1.7-3.5-2.3-11.5-1-12.8,1.4-1.5,5.1,3.5,5.6,7.6ZM407.9,736.2c2.6,6.1,2.8,7.5.9,7.5-3.4,0-6.4-4-6.4-8.5s.3-4.5.7-4.9c.9-.9,3,1.8,4.8,5.9ZM223.6,743.4c.9,1,2.2,3.5,2.9,5.6,1.4,3.9,1.1,4.5-2.6,6.1-.6.3-.4.9.5,1.5,1.3.9,1.2,1.5-.7,4.8-1.2,2.1-2.6,3.6-3,3.3-.7-.5-1.2-20.6-.5-22.3.5-1.2,1.8-.8,3.4,1ZM275.3,745.6c.8.5,1.1,1.6.8,2.5-.5,1.3-1.1,1.4-3.2.4-1.4-.6-2.5-1.7-2.5-2.5,0-1.5,2.8-1.7,4.9-.4ZM288.2,745.9c-.7,2-4.8,2.3-4.8.4s.9-1.6,2.6-1.6,2.4.5,2.2,1.2ZM379.4,745.3c0,1-5,5.4-6.1,5.4s-1.1-2.7.7-4.4c1.5-1.6,5.4-2.2,5.4-1ZM392.4,747.1c0,1.7-6.3,6.6-8.4,6.6s-2.7-1.5-.8-3.1c5.6-4.7,9.2-6.1,9.2-3.5ZM365.7,748.4c.4.3.3,1.1-.2,1.7s-1.1,2.2-1.3,3.5c-.4,3.4-2.5,3.8-3.9.8-.8-1.8-.8-3,0-4.6,1.1-2,4.1-2.8,5.4-1.4ZM413.1,749.3c.2.6-2.3.9-6.4.7-8.1-.2-7.5-.1-6.9-1.1.7-1.1,12.9-.8,13.3.4ZM262.2,750.9c2.1,2.1,1.3,2.8-2.8,2.8s-5.2-1.4-3.3-3.3,4.8-.8,6.1.5ZM327.9,751.1c4.4.1,8.2.5,8.4,1.1.4.9-5.7,2.7-8.9,2.5-5.5-.2-14.5-1.6-14.2-2.3.1-.4.2-1.2.2-1.8s1.1-.9,3.3-.4c1.7.4,6.8.8,11.2.9ZM353.4,751.2c0,1.1-14.5,14.5-15.7,14.5-2.2,0-1.5-1.8,1.4-3.2,1.6-.8,3-2.5,3.4-4.2,1-3.5,5.5-7.5,8.7-7.6,1.2,0,2.2.2,2.2.5ZM416.8,751.5c.4.7-2.7,4.2-3.8,4.2s.1-1.1.7-2.5c1.2-2.6,2.2-3.1,3.1-1.7ZM304.2,758.4c.2.8-.5,1.3-1.7,1.3s-2.1-.6-2.1-1.6c0-1.8,3.1-1.5,3.8.3ZM357.9,761.4c-2.6,1.8-3.2.7-.9-1.6s2.1-1.4,2.3-.8-.4,1.6-1.4,2.4ZM378.4,758.4c0,.5-.7,1.7-1.5,2.7-.8,1.1-1.5,3-1.5,4.3,0,2.5-2.5,4.2-4,2.7s.7-8.1,2.8-9.3c2-1.2,4.2-1.4,4.2-.4ZM333.4,760.7c0,1.1-.7,2-1.5,2-1.5,0-2.1-2.1-.8-3.3,1.2-1.3,2.3-.7,2.3,1.3ZM438,761.9c3.9,2.3,4.2,3.6,1.3,7.2-4.5,5.7-16.4,1.8-14-4.6,1.3-3.4,5-6,7.4-5.2,1.1.3,3.5,1.5,5.3,2.6ZM248,760.9c.4.6.3,1.3-.3,1.5s-1.8,1-2.8,1.7c-1.8,1.3-1.7,1.5,1,4,2.6,2.4,2.7,2.6.7,2.6-3,0-6.2-3-6.2-5.7,0-4.1,5.7-7.2,7.6-4.1ZM278.9,762c-.6,1.9-2.2,13.6-2.4,17.4-.1.7-1.2,1.3-2.5,1.3-2,0-2.4-.6-2.9-4.1-.7-5.5-1.9-6.6-5.7-5.2-1.6.6-3.1.8-3.4.5-1.5-1.4-.4-6.9,1.7-9.2,2-2.1,3.3-2.5,9.1-2.7,6.6-.2,6.8-.1,6.1,2ZM232.2,764.5c.9,1,2.3,2.8,3,4,1,1.8,1,2.2-.2,2.2-2.5,0-7-4.5-6.3-6.3.8-2.1,1.3-2.1,3.5.1ZM285.8,763.3c1.3.5,1.4.9.5,2s-1.5,1.1-2.5.3c-.8-.6-1.1-1.5-.8-2,.6-1.1.8-1.1,2.8-.3ZM302,765.2c-.4,1.7-.2,2.5.6,2.5,9.4.2,22.6,1.4,24,2.1s4.1.6,8.4-.2c5.6-1,8-.9,14.8.5,9.7,2.1,17,4.7,16.8,6.1-.1.6-13.3,1.1-36.6,1.2-32.6.2-36.7.1-38.1-1.4-1.1-1.1-1.4-2.4-1-4.2.9-3.6,2.2-4.9,5.5-5.6,1.6-.3,3.4-1.3,4.1-2.1,1.7-2.1,2.2-1.7,1.5,1.1ZM214.2,767c1.6,1.3,1.5,4.2-.4,7.9-1.4,2.8-1.9,3-5.4,2.5-5.5-.7-10-4.1-10-7.6s.5-3.2,1.1-3.8c1.3-1.3,12.8-.5,14.7,1ZM255.2,766.4c-.2,1.1-1.4,1.9-3.1,2.1-2.2.3-2.7-.1-2.7-1.7s.6-2.1,3.1-2.1,3,.4,2.7,1.7ZM382.1,768.9c2.9,2.7,2.9,4.3.1,6.2-2.9,2.1-3.8,1.2-3.8-4s.4-5.3,3.7-2.2ZM258.2,774.8c3,1,4.7,3.3,3.6,5-.6,1-16.1,1.1-21.8.1l-4-.7,2.8-1.9c1.6-1,5.8-2.1,9.5-2.6,3.6-.4,6.6-.8,6.7-.9.1,0,1.5.4,3.2,1ZM436.8,779.9c.9,1.3,1.6,4.3,1.6,6.9,0,4.3-.3,4.9-3.5,6.9-1.9,1.2-3.9,1.9-4.4,1.5-2.6-1.6-4.1-14.1-1.9-16.3s6.5-1.4,8.2,1ZM356.9,782.2c3.3.9,6.5,2.3,7.2,3.3,2.5,3.5,3.4,4.2,5.8,4.2s3.6,1,5,2.2l2.6,2.3-3.8,4.5c-8,9.4-6.1,8.6-22.8,8.8-8.3.1-18.4.6-22.5,1.2-4.1.5-11.5.9-16.5.9-8.2,0-9.4-.2-13-2.7-3.8-2.6-4-3.1-4.3-8.5-.4-6.9,1.4-9.7,8.5-13.4,2.7-1.4,5.2-2.9,5.8-3.4,1.7-1.6,41.4-1.1,48,.6ZM270.4,785.7c4.7,2.4,6,4.5,6,10.1s-.5,4.7-4,7.9c-2.3,2.1-6.1,4.5-8.6,5.5-4.4,1.7-4.8,1.7-10.7-.3-5-1.6-6.3-2.5-6.5-4.4-.2-1.2-.8-2.7-1.2-3.2-.5-.5-.2-1.8.5-3,1.3-1.9,1.2-2.6-.6-6-2.2-4.1-1.8-7.2.9-7.9.9-.3,5.9-.5,11-.6,7.5-.1,10,.3,13.2,1.9ZM211.6,788.4c1.4,1.3,1.8,3.1,1.8,9s-.8,8.9-6.7,5.3c-4-2.4-6.4-9.8-4.7-14.4.8-2.2,7.2-2.1,9.6.1Z"/>
  <path class="st0" d="M296.4,212.6c-1.4,2.6-1.3,3.8.2,2.3s8-1.4,10.8.8c3.1,2.4,4,2.5,4,.2,0-4.5-12.8-7.3-15-3.3Z"/>
  <path class="st0" d="M319.6,211.9c-2.1,2.1-1.5,4.1,1.1,3.3,2.8-1,6.5-1,9.7,0l2.5.8-2.4-2.7c-2.7-2.8-8.7-3.6-10.9-1.4Z"/>
  <path class="st0" d="M297.3,220.3c-1.1,1.4-1,1.8.6,3,2.5,1.9,3.8,1.8,6.6-.5l2.4-1.9-2.8-1.1c-3.8-1.5-5.2-1.4-6.8.5Z"/>
  <path class="st0" d="M322.2,219.8c-3.6,2.1-2.1,3.9,3.2,3.9s5-.3,5-1.9c0-2.9-4.7-4.1-8.2-2Z"/>
  <path class="st0" d="M306.8,239.1c-.3.9-.1,2.3.6,3.2,1.9,2.1,11.9,1.6,13.4-.8,1.6-2.6.2-3.1-5.1-2-4,.9-5.1.8-6.5-.5-1.6-1.4-1.8-1.4-2.4.1Z"/>
  <path class="st0" d="M306.8,250.1c-1.8,1.4-1.7,1.5,1.8,3,5,2.1,9.1,2,11.9-.3l2.4-1.9-2.8-1.1c-4-1.5-11-1.4-13.3.3Z"/>
  <path class="st0" d="M330.9,297.7c-.8,1.3.4,3.2,1.6,2.5,1.2-.8,1.2-3.5,0-3.5s-1.3.4-1.6,1Z"/>
  <path class="st0" d="M314.1,381.3c-1.4,1.5-.6,3.4,1.4,3.4s1.9-.5,1.7-1.7c-.3-1.8-2-2.7-3.1-1.7Z"/>
  <path class="st0" d="M291.3,384.4c.6,1,1.9,2.9,3,4.2l1.9,2.4.7-2.2c.8-2.7-1.8-6.1-4.7-6.1s-1.7.3-.9,1.7Z"/>
  <path class="st0" d="M291.9,394.8c-.4,1.1-.4,2.3-.2,2.6.9.8,2.7-.7,2.7-2.2,0-2.3-1.8-2.7-2.5-.4Z"/>
  <path class="st0" d="M303.7,396c-.3.5.2,2.3,1,4,.9,1.8,1.9,4.5,2.2,6,.7,3.2,2.5,2.7,2.5-.8s.5-2.5,1.2-2.7c.7-.3,1.3-2,1.3-4,.2-3.5.1-3.6-3.8-3.4-2.1,0-4.1.5-4.4.9Z"/>
  <path class="st0" d="M297.8,441.3c.3.9.6,1.8.6,2,0,.3.5.2,1-.1,1.6-1,1.2-3.5-.6-3.5s-1.4.5-1,1.6Z"/>
  <path class="st0" d="M304.4,457.1c0,.8.5,1.8,1,2.1.6.3,1,1.7,1,3.1,0,2.6,2,4,4.5,3,1.2-.4.9-1.4-1.6-5.1-3.1-4.5-4.9-5.7-4.9-3.1Z"/>
  <path class="st0" d="M354.4,491.3c0,.9.5,1.4,1.2,1.2,1.8-.6,2.1-2.8.4-2.8s-1.6.7-1.6,1.6Z"/>
  <path class="st0" d="M362,496.3c-2.7,2.4-4.6,4.7-4.3,5.1,1.5,1.4,11.7-5.9,11.7-8.4s-2.4-1.3-7.4,3.3Z"/>
  <path class="st0" d="M355.1,607.4c-1,1.6,3.8,5.2,12.2,9.2,5.2,2.5,12.6,2.8,13.5.6.3-.8,1.1-1.5,1.8-1.5,1.5-.1,5.3-4.9,4.4-5.7-.3-.3-2.9.6-5.7,2-6.1,3.2-6.9,3.3-13.9.6-3-1.1-6.4-2.3-7.5-2.7-1.1-.3-2.5-1.2-3.1-2-.6-.9-1.3-1.1-1.7-.5Z"/>
  <path class="st0" d="M243.9,743.7c-.7,3.2.1,5.4,1.6,4.5,1.2-.8,1.2-6.2,0-6.9-.5-.4-1.2.7-1.6,2.4Z"/>
  <path class="st0" d="M111.2,168.4c-4.6.7-10.3,7.3-12.7,14.6-1.6,4.8-3.3,7.5-6.2,10.1-4.7,4.3-4.9,5.6-.8,5.6,9.5,0,37.6,21.3,41.2,31.2s3.3,1.8,8-5.6c4.9-7.7,5.6-9.5,3.5-9.7-6.1-.3-10.5-1.3-12.7-2.7-8-5.1-22.2-16.6-24-19.5-5.3-8.6.9-16.7,11.6-15,3,.5,5.7,2.6,14,10.9,10.9,10.8,13.2,12.1,20.1,10.9,4.3-.7,8.6-3.9,7.9-5.8-.3-.7-2.3-1.9-4.6-2.7-2.3-.7-7.2-4.2-11.5-8-15.3-13.7-21.3-16.2-33.8-14.3Z"/>
  <path class="st0" d="M512.4,186.2c-4.7,7.6-16.3,19.2-21.5,21.6-1.1.5-2.7,1.3-3.5,1.8-4.1,2.4-9.5,4.1-13,4.1s-5.7,1.2-3.4,3.1c2.6,2.1,6.4,8.6,6.4,10.8s.8,2.7,1.7,3.6c1.6,1.6,1.7,1.6,3-.1.7-1,1.3-2.6,1.3-3.5,0-2.4,7.1-8.4,19.7-16.8s15.9-9.2,19.8-6.7c3.8,2.5,3.4,7-1.1,11.2-4,3.9-7,4.3-10.6,1.4-3-2.3-4.8-1.1-4.8,3.1s-2.1,8.4-6.9,16.3c-2.2,3.5-4.8,8.7-5.8,11.5-1.6,4.6-1.6,5.4-.3,7.8,2.3,4,3.5,3.8,6.3-.9,1.4-2.4,3.6-5.5,4.9-6.8,5.4-5.6,8.8-10.9,8.8-13.6s.3-3.9.6-5.2c.6-2.2,1-2.3,5.4-1.7,7.9,1.1,13.4-2.2,16.1-9.7,2.1-5.9,0-11-8.1-19.3-3.7-3.9-7.7-8.9-8.9-11.3-1.2-2.3-2.5-4.2-3-4.2s-1.9,1.6-3.1,3.5Z"/>
  <path class="st0" d="M84.5,209.3c-.6,2.3-4,7.4-8.1,12.3l-7,8.5v6.8c0,8.2,2,13.3,7.8,19.9,4.4,4.9,13,9.9,20.4,11.7,5.3,1.4,14.4-.2,19.1-3.3,3.1-2,6.7-7.8,6.7-10.8.1-3.5,3.5-10,6.9-13,4.9-4.3,4.7-4.5-8.9-9.7-11.3-4.4-20.6-10.5-29-19.1l-6.9-7.1-1,3.8ZM95.4,227.7c4.5,2.3,5,4.4,2.3,8.8-3.6,5.7-7.5,10.2-8.9,10.2-3.2,0-10.4-10.9-10.4-15.7s.7-2.9,1.6-3.7c2.2-2.3,10.6-2.1,15.4.4ZM111.1,238.2c2.6,1.8,6.3,8.8,6.3,11.9s-6,8.6-8.6,8.6-3.3-.9-5.4-2c-3.5-1.8-4-2.5-4-5.4,0-5.1,5.7-14.4,9-14.6.3,0,1.5.7,2.7,1.5Z"/>
  <path class="st0" d="M533.2,239.7c-8.1,4.3-9.5,10.2-6.3,26.7.8,4.3,1.5,9.4,1.5,11.4,0,7.5-7.5,9.3-11.8,2.9-2.9-4.3-2.7-11.3.6-18.1,3.7-7.6,2.7-9.5-3.3-6.3-1.6.9-5.8,2.5-9.2,3.5-3.5,1.1-6.3,2.5-6.3,3s1.1,2,2.4,3c1.4,1.1,3.4,3.9,4.4,6.2,3.7,8,5.2,11.8,5.2,12.8,0,1.6,3.8,6.1,6.8,8.1,6.2,4.1,19.8-.1,23.6-7.3,1.8-3.4,1.9-4.2.7-12.5-.7-4.9-1.7-11.1-2.2-13.8-1.3-6.7,1.1-12,5.7-12.4,6.5-.6,9.8,10.1,5.9,19.5-1.7,4-2,7.3-.6,7.3s3.6-1.4,6.9-3c3.4-1.7,7.4-3,9-3,4.5,0,4.5-1,.2-4.7-2.1-1.8-4.8-5.4-5.9-7.8-1.2-2.5-3-6.5-4.2-9-3-6.6-5.9-8.5-13.3-8.5-4,.1-7.3.7-9.8,2Z"/>
  <path class="st0" d="M57.7,255.4c-.3,1-2.1,5-3.9,8.8-1.9,3.9-3.4,7.6-3.4,8.3s2,1.2,6.6,1.2,7.7.6,9.2,1.4,7.6,3.8,13.6,6.7c7.4,3.6,12.8,7.1,16.7,10.6,3.1,2.9,6.1,5.3,6.7,5.3s1.4-1.6,1.8-3.5c.3-1.9,2.1-5.6,4-8.1,3.7-5.2,3.6-6.4-.4-6.4s-14.7-3.3-22.6-6.9c-7.3-3.3-14.1-8.1-21.4-15-4.8-4.5-6-4.9-6.9-2.4Z"/>
  <path class="st0" d="M568.2,280.9c-1.4,1.8-4.7,4.4-7.4,5.8s-6.9,3.6-9.4,5c-4.1,2.4-14.8,7-22.6,10-1.7.6-4.3.8-5.7.4-3.5-.8-3.6,1.3-.3,6.4,1.3,2.1,2.7,5.2,3.1,7,1,4.7,3.2,5.1,6.1,1.4,3.1-4,13.7-10.9,23.9-15.7,7.1-3.4,8.9-3.8,15.9-3.9,4.7-.1,8.1-.5,8.3-1.2.2-.6-1.2-3.1-3.1-5.6-2.2-2.9-3.6-5.9-3.8-8.3-.4-5-1.9-5.4-5-1.3Z"/>
  <path class="st0" d="M52.4,284.9c-3,1.1-6.3,2.7-7.4,3.6-2.5,2.3-5.2,8-5.9,12.5-.3,2.2-2.2,7.1-4.2,11s-3.4,7.6-3.1,8.4c.4.9,2.4,1.3,6.1,1.3,9.4,0,25.2,6.4,40,16.1,4,2.7,7.8,4.9,8.3,4.9s1.3-1.2,1.7-2.8c.3-1.5,1.7-4.9,3.1-7.5,1.3-2.7,2.1-5.3,1.8-5.9-.3-.5-2.2-.7-4.3-.3-2.8.5-4.1.2-5-.9-1.1-1.3-.9-2.2,1.5-5.3,2.6-3.4,2.9-4.6,2.9-10.9s-.3-7.5-3.9-12.8c-8.4-12.2-18.9-16-31.6-11.4ZM65.2,296.4c3,1,7.3,3.4,9.6,5.4,3.8,3.4,4.1,4,4,8.8,0,3.5-.6,5.7-2,7.2-1.7,1.9-2.6,2.1-8.2,1.5-6.2-.7-17.7-5.1-21.4-8.4-1.3-1.1-1.8-3-1.8-6.9s.2-5.5,3.3-7.3c4-2.5,9.4-2.5,16.5-.3Z"/>
  <path class="st0" d="M574,304.4c-.3.4-.4,3.3,0,6.5.5,4.8.4,5.9-1,6.4-.9.3-2.4,0-3.3-.7-1.1-1-4.4-1.4-10.7-1.4-10.2.1-14.3,1.8-18.9,7.8-6.2,8.2-6.1,17,.3,30.1,3,6,4.5,10.6,4.8,14.3.5,6,2.1,6.9,5.3,2.9,2.3-3,10.9-8.6,16.9-11.1,2.5-1,5.6-2.9,6.9-4.1,2.2-2,2.3-2.4.8-3-.9-.3-3.5.1-5.6.9-4.1,1.7-10.5,1.2-16.2-1.1-3.5-1.4-6.9-7.1-6.9-11.6,0-12.3,12.8-19.1,25.4-13.5,6.5,2.8,9.1,7.6,11.1,20.1,1.3,8,10.6,13.7,14.8,9,2.3-2.5,2.2-2.7-2-6.6l-3.8-3.4-.5-12.4c-.7-14.1-2.3-18.7-9.2-25.6-3.9-4-6.6-5.1-8.2-3.5Z"/>
  <path class="st0" d="M30.1,333.4c-2.8,3.3-5.7,12.6-5.7,18.8s-.7,7.1-3,11.4c-1.7,3-2.6,5.9-2.2,6.3,1,1,5.7-.5,6.7-2.1,1.2-2.1,3.6-1.1,7.8,3.4,2.9,3,7.9,6.3,16.2,10.5,12.4,6.4,16.6,9.5,19.2,14.3,1.2,2.4,1.7,2.6,3,1.6,1.1-1,1.4-2.4.9-5.7-.8-6-2.7-8.7-11.2-16-8.3-7.1-9-9.2-5.4-16.2,1.7-3.3,2.6-4,4.9-4,4,0,10.9,2.6,14.8,5.6,3.7,2.8,5.3,2.5,5.3-1.2s.9-4.1,2-6.1c3.9-7.4,2.3-9.2-6.8-7.4-6,1.1-13.8.2-26.6-3.3-7.1-1.9-9.6-3.4-13.2-8.1-3-3.9-4.4-4.3-6.7-1.8ZM44.6,351.7c4.8,1.4,6,3.6,4.6,8.3-1.3,4.2-2.4,4.5-7.6,1.8-6.6-3.4-10-8-7.5-10.4,1-1,6.3-.8,10.5.3Z"/>
  <path class="st0" d="M222.8,341.1c-.3.9-.3,2.4.1,3.3.6,1.7.7,1.7,2.1-.2.8-1,1.3-2.4,1.1-2.9-.6-1.7-2.7-1.8-3.3-.2Z"/>
  <path class="st0" d="M599.7,373.2c-5.1,7.3-4.3,6.9-11.6,5.6-4.2-.7-11.5-.9-20.4-.5-11.8.6-14.3.4-17-1-3.1-1.5-3.3-1.5-4.3.3-1.2,2.3-.1,5.8,2.6,8.3,2.7,2.3,11.9,4.8,18.1,4.8s7.5,1.5,8.7,7.6c.9,4-2.2,8-7.4,9.5-3.2,1-4.7.9-9-.7-6.4-2.3-7.7-1.1-5.1,5,2.1,5.3,7.3,13.6,8.4,13.6s3.5-2.4,6.7-5.3c11.6-10.4,22.7-13.9,33-10.2,5,1.8,10,2,10,.4s-1.3-3-2.9-5.3c-5.4-8.1-6.5-12.5-5.8-24.1.5-8.6.3-10.5-.8-10.5s-2.2,1.1-3.2,2.5ZM594.9,389.9c3.5,1.6,3.1,3.3-1.7,6.8-5.5,4-9.2,4-11.2-.2-1.9-3.7-2-5-.4-6.6s9.9-1.6,13.3,0Z"/>
  <path class="st0" d="M13.3,383.9c-.1.2-.3,3.4-.5,7.3-.1,3.8-1,8.7-1.8,10.7-.9,2.2-1.6,6.6-1.6,10.6,0,6.1.4,7.4,3.1,11.1,5,7,13.7,9.8,20.1,6.5,4.6-2.4,6.2-4.2,10.3-11.9,4.9-9.1,7.2-12.3,9.7-13.6,4.3-2.3,10.8,3.4,10.8,9.7s-7,10.4-13.4,13.3c-2.5,1.1-4.6,2.6-4.6,3.4s2.2,2.6,5,4.1c2.7,1.5,6.3,3.9,8,5.2,4.2,3.6,5.5,2.7,5.6-3.7,0-3.3.9-7.5,2.4-10.9,1.3-3,2.5-8.3,2.7-11.6.4-5.3.1-6.7-2.1-10.3-6.4-10.1-17.3-13.2-24.8-7.1-2,1.7-5,5.7-6.6,9-5.3,10.5-6.8,12-11.6,12s-4.8-.6-6.4-2.3c-4.7-5-1.8-11.9,7.8-18.6,6.6-4.7,6.7-5.8.7-8.1-1.8-.7-5-2.1-7.3-3.1-3.8-1.8-5.2-2.2-5.5-1.7Z"/>
  <path class="st0" d="M595.3,424.5c-5.3,3.9-7,7.6-7.9,17.2-.9,9.9-1.4,11.5-4.8,15.2-3.1,3.3-8,3.8-10.5,1-3.3-3.6-2.2-9.1,3.3-17.1,2.8-4,5-7.7,5-8.1s-2.9-.7-6.4-.3c-3.7.3-7.7.1-9.5-.5-4.1-1.5-5,.4-2.7,5.6,1.2,2.6,1.6,5.9,1.4,11.2-.4,9.7,2.1,15.1,9,19.7,4,2.8,5.7,3.3,10.5,3.3s5.9-.3,10.1-4.3c3.1-2.9,4.6-5.3,4.9-7.7.3-1.9,1.1-7.5,1.7-12.3,1-6.8,1.8-9.5,3.7-11.8,4.3-5,8.8-3.5,9.9,3.3,1,5.8-1.3,11.5-6.7,17.1s-4.9,5.4-4.9,5.8,4.2,1,9.3,1.2c5,.2,10.1.6,11.2.8,2.5.5,3.3-3.2,1-5.1-1.2-1-1.5-3.5-1.5-11.7s-1.4-15.6-5.8-20.6c-4.6-5.2-14.7-6.1-20.3-1.9Z"/>
  <path class="st0" d="M7.4,449.4c-3.3,2.2-4,3.3-4,6.4,0,6.3,9,9.3,12.9,4.3,2.7-3.5,2.7-6.5-.1-9.1-3.4-3-6-3.5-8.8-1.6Z"/>
  <path class="st0" d="M30.1,453.4c-2,.5-3.7,4.1-3.7,7.8s3.2,6.7,6.3,6.7c6.6,0,9.4-9,4.1-13.1-2.7-2.1-3.4-2.3-6.7-1.4Z"/>
  <path class="st0" d="M50.7,457.2c-3.4,2.4-3.2,9.6.3,12.4,2.6,2.1,4.6,1.9,7.7-.7,1.8-1.6,2.4-8.6.9-10.9-1.3-2.1-6.5-2.6-8.9-.8Z"/>
  <path class="st0" d="M.4,482c0,.9.8,3.2,1.7,5.2,1.6,3.4,1.6,3.8-.2,8.8-1.2,3.1-1.9,7.7-1.9,11.4,0,5.5.4,6.8,3.1,10,4.2,5.3,9.8,8.3,15.6,8.3,9.4,0,13.3-4,16.5-16.7,3-12,5-14.2,12.4-14.3,3.8,0,6.8,4.2,6.8,9.6s-.6,4.9-4.3,8.6c-2.3,2.4-6.2,6-8.7,8-3.7,3.1-4.2,3.9-3,4.7.8.6,2.8,1.1,4.3,1.1s5.3,1.2,8.2,2.6c3,1.4,5.9,2.3,6.4,1.9.6-.3.7-3.4.4-7.3-.4-4.7,0-8.9,1.1-13.3,1.4-5.9,1.5-7,.1-11.7-2.6-8.6-10.1-15.2-17.5-15.2s-10.1,3.2-12,6.2c-1.7,2.7-4.9,14.2-5,17.6,0,1.4-1.5,3.9-3.5,5.9-2.9,2.9-4,3.4-6.3,2.8-1.5-.3-3.5-1.4-4.5-2.3-5.6-5.1-4.2-10.1,4.9-17.2,8.8-7,8.6-8.3-2.6-12.2-12.6-4.3-12-4.2-12-2.5Z"/>
  <path class="st0" d="M615.2,482.2c-3,1.7-4.5,6.4-2.9,9.2.5,1,2.1,2.5,3.5,3.3,2.4,1.2,2.9,1.1,5.4-.7,3.9-2.9,4.3-8.3.6-11.2q-3.1-2.5-6.6-.6Z"/>
  <path class="st0" d="M590.7,485.1c-1.6,3.4-1.6,3.8,0,7.1,1.5,3.2,2.1,3.5,5.7,3.5s4.2-.3,5.6-3.6,1.3-3.8-.4-6.7c-1.4-2.5-2.6-3.3-5.5-3.5-3.3-.3-3.8,0-5.4,3.2Z"/>
  <path class="st0" d="M569.9,488.2c-1.4,1.3-2.5,3.4-2.5,4.5,0,2.5,5.1,8,7.5,8s7.5-5.5,7.5-8-4.4-7-7.5-7-3.7,1.1-5,2.5Z"/>
  <path class="st0" d="M584.8,510.3c-4.5,1.6-10,6.3-12.8,10.8-1.5,2.4-1.7,4.1-1.1,10.5,1,12.1,1,15.4.2,17.9-1.2,3.3,1.4,3.8,9.3,1.8,8.6-2.3,21.2-1.8,34,1.3,13.3,3.2,12.5,3.3,12.2-1.4-.5-6.6-.4-11.6.3-18.5.6-6.1.5-6.7-2.2-10.5-3.5-4.7-9.5-9.1-15.5-11.2-6.2-2.2-19.3-2.6-24.4-.7ZM606,522.2c14.8,3.9,18.7,11.9,8.9,18.7-3.8,2.6-4.6,2.7-15.2,2.8-8.5,0-12.2-.4-15-1.7-6.2-2.8-8.3-5.2-8.3-9.4s.6-4.3,3.5-6.6c6.1-4.8,16.4-6.4,26.1-3.8Z"/>
  <path class="st0" d="M3.7,536.3c-.3.9-.1,3.1.6,4.9.9,2.7.8,4.8-1,12.3-2,8.8-2,9.3-.4,14.3,2,6,7.7,12.3,14.3,15.7,3.4,1.7,5.9,2.2,12.5,2.2,10.5,0,16.6-2.1,22.9-8,4.2-3.9,5-5.4,6.5-11.4,1.4-5.8,1.5-7.6.4-12s-1.6-8-1.9-11.6c-.6-5.1-1-6.4-2.2-6.1-.8.1-3.7.9-6.5,1.7-9,2.5-21.1,2.9-30.5.9s-9.7-2.4-11.3-3.2c-2.4-1.2-2.8-1.2-3.4.3ZM24.9,550c2,3.1,2.8,10.1,1.8,15.7-.7,3.9-1.2,4.5-3.6,4.8-4,.5-12.6-4.6-14.5-8.5-2.5-5.3.5-9.1,10.3-12.9q4.3-1.6,6,.9ZM48,551.8c8.9,5.5,5.9,15.4-5.6,18-3.8.9-4.6.7-6.6-1.2s-2.4-3.2-2.4-8.1.7-7.2,1.6-9c1.5-2.8,1.8-3,5.7-2.4,2.3.4,5.5,1.6,7.3,2.7Z"/>
  <path class="st0" d="M571,558.4c-1.2,1.2-.6,6.9,1,9.1,1.7,2.4,8.3,6.2,10.9,6.2s9.4,3.9,10.6,6.2c1.4,2.7.5,12.8-1.3,13.9-1.7,1.1-9.5,1.1-10.2,0-.6-.9-10.6-4.5-11.1-3.9-1,1.3-3.6,14-3.3,16.3.4,3.7,1.7,3.7,11,.2,6.9-2.6,13.4-3.3,26.1-2.9,6.2.2,7.2.5,9.7,3.2,1.5,1.6,3.3,3,3.9,3s2.3-2.6,3.7-5.8c2.1-4.7,2.5-6.7,2-11.3-.5-5.1.3-12.9,2-18.7,1-3.4-1.2-2.7-5.1,1.5l-3.4,3.7-3.3-1.7c-3.6-2-6.7-3.8-11.3-6.7-5.7-3.6-11-5.7-18.5-7.5-4.1-1-8.2-2.3-9-3-2.4-2-3.7-2.5-4.4-1.8ZM607,582.3c5.4,2.2,10.4,6.2,10.4,8.3,0,3.1-2.2,4.1-9.1,4.1s-7-.3-8.3-2.2c-2-2.8-2-3.9-.2-8.3,1.7-4,2-4.1,7.2-1.9Z"/>
  <path class="st0" d="M28.9,591.6c-10.6,2-18.2,8.4-21.2,17.7-1.9,6.1-1.3,10.7,2.2,15.8,3,4.4,4.4,9.4,3.4,12.6-1,3.7-1,8,0,8s2.1-1,3.4-2.3c2.7-2.4,14.6-8.6,21.5-11.1,5.6-2.1,15.5-2,21.5.1,6,2.2,7.6,1,5.2-3.7-1.3-2.6-1.5-4.4-.9-9.4,1.8-13-1.7-20.5-11.7-25.7-4.4-2.2-16.8-3.3-23.4-2ZM48.1,602.9c4.2,1.8,9.3,6.9,9.3,9.3,0,5.9-13.6,11.7-30.1,13-8.1.7-8.8.6-10.9-1.5s-2.1-3-1.7-6.2c.7-5,2.6-7.1,9.5-10.4,11-5.2,18.5-6.5,23.9-4.2Z"/>
  <path class="st0" d="M577.5,615.4c-3.9.8-8.5,4.9-10.9,9.6-1.9,3.7-2.2,6.1-2.2,15s-.3,11.3-2.1,14.7c-1.3,2.4-1.8,4.5-1.3,5s7,.4,15.4-.3c11.4-.9,14.5-1.5,14.8-2.7.1-1-1.4-2.1-4.5-3.3-7-2.7-13.2-5.9-15.1-8-2.4-2.7-2-10.7.9-14.6,5.1-6.9,22-4.7,29.3,3.9,3.6,4.4,4.1,7.2,2.6,16.1-1.1,7.1-1,8.3.6,13,1.7,4.7,6.2,9.9,8.5,9.9s2.1-2.9.5-5.2c-2.7-3.9-2.1-12.4,1.4-18.6,1.7-2.8,4.3-7.6,6-10.5,3.4-6,3.9-11.8,1.3-17.2-1.6-3.4-4.3-4.8-4.3-2.3s-7,11.8-8.2,11.8-2.7-2-5-4.5c-6.6-7.2-13.4-11.3-19.8-11.8-3-.3-6.6-.3-7.9,0Z"/>
  <path class="st0" d="M62.9,645.2c-7.3,6-25.4,12.5-35,12.5s-6.1-.8-8.7-1.7-5-1.4-5.3-1.1c-.4.3.3,2.5,1.5,4.9,1.6,3,2,5.2,1.6,7.7-1.4,9,4.1,20.4,12.7,26.3,4.9,3.3,5.2,3.4,15.1,3.4s15.9-1.6,22.4-9c6.2-7.1,8.2-11.6,8.2-18.6s-.5-6.8-3.2-10.8c-2.4-3.5-3.3-6-3.6-10.4-.5-6.4-1.3-6.8-5.7-3.2ZM65.1,660.6c6,3.7,5.6,9.1-1.1,14.6-3.5,2.9-5.2,3.6-7.8,3.3-2.8-.3-3.6-1-5.5-4.8-2.7-5.6-3-12.5-.5-13.9,2.9-1.8,11.4-1.3,14.9.8ZM40.3,665.8c1,1.7,2.2,5.5,2.6,8.5.9,7.7-.2,8.8-7.9,8-10.3-1.1-13.6-6.9-7.6-13.4,2.6-2.9,7.9-6,10.3-6.2.4,0,1.6,1.4,2.6,3.1Z"/>
  <path class="st0" d="M557,674.9c-2.7,11.1-3,10.3,4,10,9.8-.6,23.2,3.8,28.2,9.1,1.8,1.9,2.3,3.4,2,6.8-.3,4-.7,4.6-4,6.2-3.1,1.5-4.3,1.6-8,.7-4-1.1-10.7-4.1-16.8-7.5-3.8-2.2-8.3-1.9-10.8.8-1.2,1.3-2.2,3.1-2.2,4,0,1.4.7,1.6,4.5,1.1,4.3-.6,4.5-.5,10.7,5.3,3.9,3.7,8.2,6.7,11.2,7.8,4.7,1.8,5.1,1.8,9.8.1,6.4-2.3,10.3-5.8,12.4-11.2,1.5-3.9,1.5-4.7.1-8.8-2.2-6.4,0-7.5,6.5-3.1,2,1.4,4.3,2.5,5.1,2.5,1.4,0,2.7-4,2.7-8.7s.7-3.5,1.6-4.9c2.5-3.8.8-4.9-5.7-3.5-10.3,2.2-24.2-.6-39.2-8-2.6-1.3-5.7-3.2-6.7-4.2-1.1-.9-2.3-1.7-2.7-1.7s-1.7,3.3-2.7,7.2Z"/>
  <path class="st0" d="M68.3,697.7c-4.7.8-9.7,3.8-12.3,7.3-1.9,2.6-2.1,4.2-2.1,17.9v15.1l-2.7,2c-2.2,1.7-3.3,1.9-5.4,1.1-4.7-1.6-6.9-5.7-6.9-12.7s.4-6.8,2.8-9.8c4-5.3,3.6-6.3-2-5.4-2.7.5-6.9.9-9.5.9-6,.1-6.7,1-3.4,4.2,1.4,1.5,2.9,3.9,3.2,5.3,2.5,12.7,5.7,20.1,10,23,3,2.1,4.2,2.3,10.3,1.9,7.6-.6,11-2.4,14.4-8.1,1.7-2.7,1.9-4.9,1.8-16.1-.1-12,.1-13.1,2.1-15.3,2.5-2.7,4.5-2.9,7.5-.8,3.6,2.5,4.9,8.5,3.3,15-.7,3.1-1.7,5.8-2.2,6.1-.4.3-.8,1.6-.8,3,0,2.2.3,2.4,2.3,1.8,1.2-.4,4.7-.8,7.7-.8,7.2-.1,8.6-1,6.2-4-1-1.3-2.6-5-3.6-8.2-4.2-13.7-5-16-6.9-18.6-1.8-2.4-4.2-3.8-8.7-5-.8-.2-3.1-.1-5.1.2Z"/>
  <path class="st0" d="M549.9,725.4c-4.7,2.4-8.6,6.4-10.6,10.8-2.4,5.1-2.3,7.5.1,15.5,3.1,9.6,8.6,16.2,17.5,20.7,6.9,3.5,19.9,3.7,26.3.3,9.9-5.2,14-13.2,12.1-23.5-2.2-12.2-8-18.7-21.3-24-5.2-2.1-20-2-24.1.2ZM570.9,737.3c8.4,3.6,10.8,5,14.5,8.4,2.1,2,4.2,4.8,4.5,6.3,1.4,5.5-1.8,11-7.1,12.3-7.6,1.9-29.2-6.3-35.8-13.7-4.7-5.1-5-10.6-.8-13.9,2.5-2,3.5-2.2,11.7-1.7,5.3.3,10.7,1.2,13,2.3Z"/>
  <path class="st0" d="M91,746.8c-3,2.4-3.5,7.2-1,10.7,2.1,3,7.3,3,10.2-.1,3.1-3.3,2.8-7-.9-10.1s-4.9-3.2-8.3-.5Z"/>
  <path class="st0" d="M68.9,757.7c-1.9,3.7-1.9,5.5.1,8.4,2.6,4,9,4.1,11.6.2,1.6-2.3.8-6.7-1.7-9.1-3.5-3.6-8-3.4-10,.5Z"/>
  <path class="st0" d="M531.1,764.5c-.9.9-2.7,5.1-4.1,9.4-2.8,8.8-4.7,12.6-8.9,18.5-3.7,5.3-3.3,5.9,7.1,10.3,4.2,1.7,8.2,3.6,8.9,4.2,1.4,1.2,3.3.2,3.3-1.6s-.8-2-1.7-2.7c-6.9-5.7-9.4-15-5.2-19.5,2.1-2.2,2.2-2.2,6.2-.6,4.1,1.6,7.1,3.1,19.7,9.9,3.6,1.9,9.3,6.2,12.7,9.6,5.4,5.2,6.3,5.8,6.8,4.1.3-1,2-4.7,3.7-8,1.7-3.4,2.8-6.7,2.4-7.3s-2.6-1.1-4.9-1.1c-6.1,0-17-4.1-31-11.6-4-2.2-11.7-10.3-11.7-12.5s-1.5-3.1-3.3-1.1Z"/>
  <path class="st0" d="M51,765.8c-2.3,1.8-2.7,2.8-2.4,6.2.4,4.9,3.7,7.5,8.2,6.3,5.4-1.3,6.2-11.1,1-13.4-3.3-1.6-3.7-1.5-6.8.9Z"/>
  <path class="st0" d="M96.5,774.4c-6.4.9-11.3,5.3-13,11.8-.8,3.3-.6,5.6,1.1,12,3.3,12.8,3.4,14.7.3,18.3-1.5,1.8-3.4,3.2-4.2,3.2-2.9,0-7.5-3.5-8.9-6.9-2.5-6-1.6-11.1,3.3-17.7,1.3-1.7,2.3-3.6,2.3-4.2,0-1.6-4-1.4-7,.3-1.4.8-4.2,1.4-6.2,1.5-5.2,0-6.8.9-6.8,3.6s.3,2.4.8,2.4c.9,0,3.8,5.9,8.2,16.3,3.6,8.4,6.1,11,12.1,12.8,3.2,1,4.6.9,8.2-.5,6.5-2.4,12.3-8.4,13.2-13.3.7-4.6-.1-10.5-2.1-14.4-.7-1.4-1.6-4.9-2-7.7-.6-4.8-.4-5.3,2.4-8.2,3.8-3.8,6.1-3.8,9.8.1,5.9,6.1,6,13.9.3,21.1-2.7,3.4-3.8,6.8-2.2,6.8s18.9-4.4,19.7-5.1c.5-.4-.5-2.5-2.1-4.6-4-5.1-6.3-10.4-6.3-14.3,0-9-9.3-14.9-20.9-13.3Z"/>
  <path class="st0" d="M510.8,808.4c-.3,1.6-2,4.5-3.6,6.6s-2.7,4.4-2.5,5.1c.3.7,2.4,1.6,4.8,2,2.3.4,5.4,1.3,6.8,2,2.4,1.3,4.3,2.1,13.6,6.1,11.2,4.8,17.3,9.7,20,16.1,2.1,5.1,4.4,4.2,6.1-2.4.8-2.9,2.1-6.6,2.9-8.2,2.3-4.4,2-6.3-.8-5.6-6.4,1.6-33.1-11.9-41.4-20.9-3.9-4.2-5.1-4.4-5.9-.8Z"/>
  <path class="st0" d="M126.1,817.2c-3.5,4-17.9,15.1-26.6,20.3-4,2.5-6.7,3.4-10.7,3.6-3,.1-5.6.5-5.9.8s.4,1.8,1.7,3.4c2.5,3.1,5.3,8.5,6.3,12.2.8,2.9,3.5,2.6,5.1-.6s1.9-3.1,3-4.3c2.4-2.8,21.3-16.8,24.4-18.2.8-.4,3.5-1.8,5.9-3.2s5.2-2.5,6.2-2.5c3,0,3.1-1.8.4-5.4-1.5-1.9-3-4.7-3.4-6.2-1.1-4.1-2.7-4-6.4.1Z"/>
  <path class="st0" d="M291.7,838.6c-2.1,2.6-5.5,7.5-7.5,10.7-2,3.3-7.3,11.2-11.7,17.8-7.3,10.7-8.1,12.3-8.1,16.6s.3,6,12,6,11.6.9,10.5,5.9c-.3,1.6-.1,3.9.5,5,.9,1.8,2,2.1,7.4,2.1s7.6-.4,7.6-7.1.7-4.6,2-5.9c2.9-2.9,2.6-8.5-.5-12.2-2.5-2.9-2.5-3.1-2.5-22.8s-.2-19.9-1.6-20.4c-3.1-1.2-4.4-.5-8.1,4.3ZM285.2,867.9l-.3,9.3-6.2.3c-7.8.4-8-.5-2.1-9.1,5.3-7.8,6.9-9.7,8-9.7s.7,4.2.6,9.2Z"/>
  <path class="st0" d="M395.6,834.6c-.7.4-1.7,2.3-2.2,4.2s-2.4,8.3-4.3,14.4c-1.9,6-3.6,11.4-3.7,12-.7,2.9.2,3.5,5.1,3.5,16.3,0,28.6,10.8,24.9,22-.9,2.9-2.2,4.3-4.7,5.5-3.4,1.6-3.6,1.6-9.8-1.4-8.5-4.2-12-4.8-14.5-2.6-2.9,2.7-2.4,5.1,1.6,8.2,4.9,3.6,14,4.4,21.5,1.7,11.8-4.3,19.2-19.6,14.8-30.8-3.2-8.3-9.8-13.3-22.2-17-7.6-2.4-8.7-3.4-6.2-6,1.3-1.3,3.8-1.6,12.5-1.6s12.4-.2,15.1-7.9c.9-2.7.9-3.5-.2-4.2-1.8-1.1-26-1.1-27.7,0Z"/>
  <path class="st0" d="M230.4,837.8c-3.6,1.7-8.2,3.9-10.2,4.8-5.2,2.2-4.9,4.1.6,4.1s4.6.5,5,1.6c.3.9.6,13.2.6,27.4,0,25.5,0,25.9,2.1,27.1,2,1,12.5.9,13.2-.2.1-.2,0-15.5-.3-33.9-.6-38.7.3-36.2-11-30.9Z"/>
  <path class="st0" d="M332.7,837.6c-4.5,3.3-8.3,8.7-8.3,12s1.3,2.6,4.8-.8c1.6-1.7,4.1-3.3,5.6-3.7,6.1-1.5,12.6,4.6,12.6,11.6-.2,9.3-6.9,23.6-18.2,38.6-2.1,2.8-3.8,5.6-3.8,6.3s4.7,1.1,18.2.9l18.3-.3.8-3c.5-1.7,1.5-5.1,2.3-7.7.8-2.5,1.1-5.3.8-6.2-.5-1.3-1.2-1.1-4.2,1.2-3.1,2.4-4.6,2.7-12.4,3-10.3.5-11.1-.4-5.3-6.7,4-4.3,10.9-14.4,14.5-21.1,3.1-6.1,3.4-16.3.5-20.2-3.4-4.6-8.5-6.8-15.7-6.8s-7.1.4-10.5,2.9Z"/>
  <path class="st0" d="M501.4,836.6c-6.1,2.5-11.1,7.8-13.4,14-1,2.8-2.9,6-4.3,7.1-3.6,2.8-2.6,5.3,2.7,6.7,6.7,1.8,12.4,4,16.1,6.2,1.9,1.2,4.3,2.5,5.5,3,3.6,1.6,13.4,11.2,16,15.7,2.9,5,5.4,5.8,5.4,1.7s1.5-4.1,5.4-7.7c6.5-6.1,7.6-8.2,7.6-13.8-.1-11.5-9.9-25.8-21.8-31.4-7.3-3.5-13.4-4-19.2-1.5ZM514.3,846.7c6.5,3.5,11.5,7.8,16.5,14,2.9,3.7,3.6,5.4,3.6,9,0,5.8-1.2,7-7,7s-6.3-1-12.5-4.5c-8.7-5-12.2-8-16.6-13.9-3.8-5.2-3.7-7.7.6-11.5,4.6-4,8.1-4,15.4-.1Z"/>
  <path class="st0" d="M134.3,840.6c-4.2,1.4-8,4.3-11,8.5-4.5,6.2-4.1,12,1.7,22,3.6,6.5,4.4,8.8,4.2,12-.4,5.5-3.8,7.5-9.4,5.8-7.6-2.3-11.1-12.7-6.9-20.6,2.1-3.9,1.4-7.2-1.3-6.1-.9.4-3,1.2-4.7,1.8-11.3,3.8-12.9,5.8-7.7,9.6,1.5,1.1,3.7,3.7,4.8,5.8,6.7,13.3,15,19.1,23.4,16.3,6.1-2,10.7-7.2,11.5-12.8.7-5.3-.2-9.6-3.9-19.6-3.2-8.5-3.3-11.6-.3-14.4,4.6-4.3,9.6-2.3,13.6,5.5,2.5,5,2.7,11,.5,15.7-.9,1.9-1.4,4.1-1.1,5,.5,1.3,1.8,1,7.9-2.2,4-2.2,7.4-4.6,7.6-5.5s-.8-2.7-2.2-3.9c-1.4-1.3-4.5-6.1-6.9-10.7-2.3-4.6-5.3-9.2-6.7-10.2-3-2.2-9.4-3.2-13.1-2Z"/>
  <path class="st0" d="M474.6,867.4c-.3,1-.6,4.4-.7,7.5,0,5.1.5,6.4,4.1,11.5,5.4,7.8,5.7,8.8,3.5,13.1-4.2,8.2-10.4,7.7-17.3-1.5-4.2-5.5-6.4-6.5-7.5-3.6-.4.9-2.1,3.9-4,6.7-1.8,2.8-3.3,5.6-3.3,6.2,0,1.5,2.3,2.4,6.5,2.4s13.3,4,21,9.2c6.4,4.3,10.9,9.6,13.9,16.5s3.9,6.1,9.3-8c2-5.2,7.7-11.8,12.3-14.2,1.9-1,3-2.3,3-3.6,0-2-.4-2.1-6.3-1.5l-6.4.7-2.8-6.3c-3.3-7.5-10-17.7-15.4-23.5-2.2-2.4-4.7-6.3-5.6-8.8-1.9-4.8-3.1-5.6-4.3-2.8ZM494.9,905.9c2.7,3.2,3.5,5,3.3,7.3-.3,2.9-.4,3-5.2,2.7-5.2-.2-9.6-3-9.6-6s4.1-8.2,6-8.2,3.5,1.9,5.5,4.2Z"/>
  <path class="st0" d="M165,877.7c-2.1,2.2-7,6.5-11,9.4-16.6,12.6-21.6,19-21.6,28.1s.9,7.8,10.4,17c4.6,4.4,9.2,9.3,10.2,10.8l2,2.9,3.9-6.4c2.1-3.4,7-9.6,10.9-13.7,6.8-7,17.6-16.1,19.3-16.1.4-.1,2.1-1.1,3.6-2.3l2.8-2.3-3.5-4.6c-1.9-2.5-4.2-4.8-5.1-5.2-1.9-.7-3.5,0-3.5,1.5s-9,12.8-16.2,19.4c-11.8,10.8-17.1,12.6-22.7,7.9-2.6-2.2-3.1-3.3-3.1-7,0-5.5,2.3-8.1,14.5-16.7,11.2-7.8,15.5-13.2,15.5-19.2s-.7-7.5-1.9-7.5-2.4,1.8-4.5,4Z"/>
  <path class="st0" d="M197,913.8c-.9,1.3-1.6,3.1-1.6,4s-.7,2.2-1.5,2.9-1.5,1.7-1.5,2.2c0,1.3-5.2,8.1-10.4,13.6-4.2,4.5-13,10.9-17.8,13-1.6.6-2.8,1.7-2.8,2.3s2.1,3.5,4.8,6.4c2.6,2.8,6.3,7.2,8.2,9.6,5.6,7.4,7.5,8.4,15.5,8.3,8.7,0,13.8-2.5,21.1-10,6.7-6.8,10.6-15,11.2-23.1.5-7.8-1.5-11.4-9.8-17.8-3.2-2.5-7.6-6.6-9.8-9.1l-3.9-4.6-1.7,2.3ZM209.3,930.8c3.6,3.4,4.3,6.4,2.4,11.2-2,5.3-5,8.7-7.7,8.7s-9.6-5.7-11.2-9.6c-1.6-3.7-1-6.2,2-8.4,5.9-4.3,11.1-5,14.5-1.9ZM190.4,948.3c2.2,2,4.9,5.2,6.1,7.1l2.1,3.4-2.1,2.3c-1.2,1.3-4.8,3.2-7.8,4.1-5,1.6-6,1.6-8.2.4-4.1-2.3-5.1-5.3-3.5-10.5,1.7-5.8,5-10.4,7.5-10.4s3.7,1.6,5.9,3.6Z"/>
  <path class="st0" d="M435.9,920.2c-3.1,3-3.2,6.6-.1,10.1,2.1,2.6,2.5,2.7,5.3,1.5,2.9-1.2,5.3-4.6,5.3-7.5s-4.6-6.6-6.5-6.6-2.7,1.1-4,2.5Z"/>
  <path class="st0" d="M453.1,933.4c-.9.2-2.4,1.8-3.2,3.4-1.4,2.6-1.4,3.2-.1,5.8,2.6,4.9,9,4.9,11.6.1,1.6-3,1.2-5.5-1.3-7.8-2.3-2.2-3.5-2.4-7-1.5Z"/>
  <path class="st0" d="M417.3,938.9c-6.8,8.9-14.9,17.6-18.9,20.3-2.2,1.5-3.9,3.3-3.7,3.8.2.6,1.7,1.8,3.5,2.7,1.7,1,5.6,3.6,8.5,5.9,3,2.2,5.9,4.1,6.5,4.1,1.5,0,1.5-4.5,0-7.3-1.9-3.6-2.7-8.8-1.7-11.3.6-1.8,1.6-2.4,3.9-2.4s4.6,1.6,11.5,8.5,16.7,18.9,21,25.8c1.1,1.8,2,1.3,8.3-5.5l3.3-3.5-4.6-2.7c-6.2-3.7-22.2-19.7-27.3-27.5-2.7-4-4.5-8-4.9-10.7-.3-2.4-.9-4.4-1.4-4.4s-2.2,1.9-4,4.2Z"/>
  <path class="st0" d="M233.5,948.3c-1.2,1.5-2.1,3.3-2.1,4s-2.2,5.1-5,9.8c-5.1,8.7-16.8,21.5-24,26.2-3.6,2.4-5.3,5.4-3.1,5.4s3.5,2.7,6.7,6c3.3,3.3,6.2,6,6.7,6s.7-1.1.7-2.5c0-6.5,6.1-15.9,21.6-33.5,4.9-5.6,8.5-8.8,10.4-9.3,2.6-.7,2.8-1,1.8-2.7-.7-1-2.2-2.4-3.5-3.1-1.2-.7-3.4-2.9-4.9-5.1-1.5-2.1-2.8-3.8-3-3.8s-1.2,1.2-2.3,2.6Z"/>
  <path class="st0" d="M466.6,951.3c-3,2.1-3,7.3.1,10.2,3,2.8,5.8,2.8,8.5-.1,2.8-3,2.8-6.8-.1-9.5-2.7-2.6-5.4-2.8-8.5-.6Z"/>
  <path class="st0" d="M248.7,968.5c-1.2,2.6-5.4,8.7-9.4,13.7-3.9,4.9-8.8,11.5-10.8,14.5-3.3,5-3.6,6.1-3.6,12.7s0,7.2,4.4,11.7c2.4,2.5,7.2,5.9,10.7,7.6s8,4.7,10.1,6.6c4.1,3.9,5.3,3.3,5.3-2.4,0-8.4,18.7-35.5,26.8-38.9,4-1.7,3.7-3.2-1-5.5-2-.9-4.9-3.4-6.6-5.4-3.2-3.8-5.2-3.8-5.2,0,0,6.1-8.8,21.8-17.7,31.5-4.7,5.2-6,6.1-8.9,6.1s-8.8-3.2-10.4-6.9c-1.6-4.1,1.6-10.1,11.1-20.6,10-11.1,12.3-15.3,11.6-21.3-.3-2.4-1.3-5.3-2.4-6.3-1.8-1.8-1.9-1.8-4,2.9Z"/>
  <path class="st0" d="M382.9,975.5c-9.3,3.3-16.5,12.7-16.5,21.4,0,17.9,21.2,37.7,36.3,33.8,5.8-1.6,11.1-5.3,14.7-10.2,2.6-3.6,3-4.9,3-10.8,0-11.6-7.4-23.5-19.2-31.1-4.9-3.2-13.9-4.7-18.3-3.1ZM392.2,985.3c11.9,5.9,22.6,22.9,20.1,31.9-1.8,6.6-8.4,8.3-16.2,4.4-5.3-2.8-15.7-13.2-18.5-18.7-2.5-4.8-3-13.8-.9-16.4,3.5-4.4,8.3-4.8,15.5-1.2Z"/>
  <path class="st0" d="M285.4,1002.4c.1,1.6.7,3.9,1.5,5.3,1,1.8,1.4,6.2,1.5,16.1,0,13.2-.1,13.7-3.1,19.8-2.3,4.5-4.1,6.7-7,8.4-2.1,1.2-3.9,2.7-3.9,3.3,0,1.8,7.7,3.6,12.5,2.9,5.3-.8,10.2.6,16.2,4.8,3.1,2.3,4.6,2.8,5.4,2s.7-1.7-.5-3.4c-2.4-3.5-2-5.7,1.9-10s5.6-7.6,11-20.4c2.1-5,5.8-11.4,8.2-14.4,5.2-6.5,4.7-8-2.2-6.1-4.9,1.4-9.1,5.7-12.9,13.3-3.1,6-4,6.4-10.4,4.1-5.4-1.8-5.7-2.1-6-5.6-.2-2.7.6-5.4,3.3-10.3,3.9-7.1,4-9.5.2-9.5s-4.1-.7-6-1.5c-2-.8-5-1.5-6.7-1.5-2.6,0-3,.3-3,2.7ZM303.5,1034.4c3.8,2.3,3.7,5.1-.3,11.4-2.7,4-3.8,4.9-5.8,4.7-2.3-.3-2.5-.8-2.8-5.8-.2-4.1.3-6.3,1.8-8.8,2.3-3.7,3.1-3.9,7.1-1.5Z"/>
  <path class="st0" d="M340.8,1009.4c.4,3.8,1.2,10.4,1.7,14.8,2.6,23,2.3,29.6-1.8,37.9-2.3,4.5-.4,5,6.8,2.1,3.5-1.5,7.3-3.3,8.3-4.1,1.9-1.3,1.9-1.5-.7-6.7s-3.1-9.1-4.3-17.4c-2.4-17.3-1.3-18.8,7.6-10.1,4.6,4.6,14.3,16.9,17.6,22.4,1,1.5,1.4,1.7,2.5.6.7-.6,2.1-1.2,3-1.2,1.6,0,8.9-3.7,8.9-4.5s-3.5-3.2-7.7-6.8c-9.1-7.5-10.1-8.4-21.3-18.6-15.5-14.1-16.7-15.1-19-15.1s-2.3.2-1.6,6.7Z"/>
</svg>