<?xml version="1.0" encoding="UTF-8"?>
<svg id="Layer_1" xmlns="http://www.w3.org/2000/svg" version="1.1" viewBox="0 0 283.7 283.9">
  <!-- Generator: Adobe Illustrator 29.0.1, SVG Export Plug-In . SVG Version: 2.1.0 Build 192)  -->
  <defs>
    <style>
      .st0 {
        fill: #ffc500;
      }
    </style>
  </defs>
  <g id="Layer_2">
    <g id="Layer_1-2">
      <path class="st0" d="M141.9,192.8c2.8-5.6,5.6-11.1,8.3-16.6,10.9-21.7,21.7-43.4,32.6-65.1,14.5-28.9,28.9-57.8,43.4-86.7,2.7-5.4,5.4-10.8,8.1-16.2,2.5-4.9,6.9-7.2,12.2-7.9,3-.3,5.9-.4,8.9-.3,4.9,0,9.7,0,14.6,0,6.7,0,12.2,4.5,13.4,10.8.6,3.1,0,6.4-1.4,9.2-7.4,14.7-14.8,29.4-22.1,44.2-13,26-26.1,52-39.1,78.1-12.4,24.8-24.8,49.6-37.3,74.4-9.8,19.6-19.6,39.2-29.5,58.8-2,4.1-4.9,7.1-9.5,8.1-5.6,1.3-11.3-1.4-14-6.5-3.1-5.9-6.1-11.8-9-17.8-6.7-13.4-13.4-26.8-20.1-40.2-7.7-15.4-15.4-30.7-23.1-46.1-9.4-18.7-18.8-37.4-28.2-56.2-8.7-17.4-17.4-34.7-26.1-52.1-7.5-14.9-14.9-29.8-22.4-44.6C-1,14.6-.5,8.9,3.4,4.6,5.9,1.7,9.5,0,13.3,0c7.2-.1,14.4-.1,21.5,0,4.5,0,8.8,1.3,12.1,4.7,1.1,1.2,2,2.6,2.8,4.1,9.5,18.8,18.9,37.7,28.3,56.5,15,30,30.1,60,45.1,90,6,12,12,24,18,35.9.2.4.5.9.8,1.5Z"/>
    </g>
  </g>
</svg>