<?xml version="1.0" encoding="UTF-8"?>
<svg id="Layer_2" data-name="Layer 2" xmlns="http://www.w3.org/2000/svg" viewBox="0 0 875.13 79.47">
  <defs>
    <style>
      .cls-1 {
        fill: #de545f;
        stroke-width: 0px;
      }
    </style>
  </defs>
  <g id="Layer_1-2" data-name="Layer 1">
    <g>
      <path class="cls-1" d="M44.85,77.91h-19.29v-.21c3.34-6.15,4.17-9.59,4.17-17.73V5.32l-11.99.42c-4.07.21-11.05,11.58-15.96,18.56l-1.77-.73L4.07,1.56h62.37l3.96,22.01-1.77.73c-5.11-6.99-11.58-18.36-15.96-18.56l-11.99-.42v54.65c0,8.24.83,11.58,4.17,17.73v.21Z"/>
      <path class="cls-1" d="M75.93,77.7c2.09-5.84,2.61-11.05,2.61-20.34v-14.91c0-6.78-2.4-10.64-5.11-13.45v-.21l14.91-5.84v13.14h.52c4.59-5.01,10.32-12.62,17.73-12.62l-.21,12.93-1.36.21c-2.08-.94-6.05-1.88-8.45-1.88-1.77,0-5.11,2.09-7.72,5.74v16.79c0,9.28.21,14.6,2.5,20.44v.21h-15.44v-.21Z"/>
      <path class="cls-1" d="M115.24,77.7c1.67-5.84,2.61-11.16,2.61-20.34v-14.5c0-6.57-2.4-10.64-5.11-13.35v-.73l15.44-5.84v34.31c0,9.07.21,14.6,2.5,20.44v.21h-15.44v-.21ZM115.97,7.3c0-3.65,2.82-6.57,6.36-6.57,3.75,0,6.57,2.92,6.57,6.57s-2.82,6.36-6.57,6.36c-3.55,0-6.36-2.82-6.36-6.36Z"/>
      <path class="cls-1" d="M176.05,38.59l-1.67.42c-4.8-8.87-10.74-11.37-16.06-11.37-5.74,0-8.87,2.71-8.87,6.88,0,6.26,6.99,8.34,14.39,11.37,7.61,3.13,15.33,6.99,15.33,17.42,0,11.06-8.97,16.17-20.75,16.17-6.05,0-11.68-1.36-16.27-2.92l-1.15-14.91,1.67-.42c4.9,9.91,10.33,14.18,17.42,14.18s10.01-3.96,10.01-8.45c0-5.94-5.11-8.45-11.05-10.95-7.72-3.34-17.1-6.47-17.1-17.63s9.7-14.91,19.4-14.91c5.21,0,10.53,1.04,13.45,2.19l1.25,12.93Z"/>
      <path class="cls-1" d="M203.58,79.47c-6.57,0-12.41-2.92-12.41-13.14V29.31h-6.05v-1.88l15.44-13.97h1.15v11.68h14.6v4.17h-14.6v36.82c0,4.59,2.4,6.99,7.2,6.99,3.96,0,6.36-1.25,7.3-2.09l1.15,1.46c-2.92,4.17-7.72,6.99-13.77,6.99Z"/>
      <path class="cls-1" d="M222.46,68.31c0-12.62,17.1-18.56,29.62-20.55v-5.21c0-8.45-2.61-12.1-10.74-12.1-5.32,0-10.95,1.56-15.44,4.59l-1.46-1.46c4.69-5.84,12.52-10.12,21.69-10.12,12.52,0,16.27,7.61,16.27,16.48v27.22c0,3.23,1.15,5.21,4.38,5.21,2.29,0,3.96-.94,5.74-2.82l1.46,1.25c-1.77,3.65-5.42,8.34-12.2,8.34-5.84,0-8.87-3.55-9.39-8.03-3.75,4.38-9.8,8.34-17.21,8.34s-12.72-4.28-12.72-11.16ZM240.71,72.8c4.9,0,9.18-2.5,11.37-5.11v-16.37c-9.8,1.88-19.82,6.47-19.82,14.29,0,4.38,3.13,7.2,8.45,7.2Z"/>
      <path class="cls-1" d="M279.61,77.7c2.09-5.84,2.61-11.05,2.61-20.34v-14.91c0-6.78-2.4-10.64-5.11-13.45v-.21l14.91-5.84v10.64l.52.1c4.8-6.26,10.53-10.22,18.25-10.22,10.12,0,15.75,6.26,15.75,16.06v17.73c0,9.49.21,14.6,2.5,20.44v.21h-15.44v-.21c2.19-5.84,2.61-11.47,2.61-20.34v-15.44c0-6.05-2.82-10.95-10.53-10.95-5.01,0-9.6,2.09-13.14,6.78v19.5c0,9.28.21,14.6,2.5,20.44v.21h-15.44v-.21Z"/>
      <path class="cls-1" d="M380.47,1.56v.21c-2.19,3.13-2.92,9.39,0,17.52l16.27,44.01,14.5-39.42c4.38-11.99,2.29-18.56-.21-22.11v-.21h15.96v.21c-4.69,5.11-6.68,9.39-9.8,17.83l-21.9,59.13h-4.28l-22.11-59.97c-3.55-9.49-5.74-13.14-9.39-17v-.21h20.96Z"/>
      <path class="cls-1" d="M423.12,68.31c0-12.62,17.1-18.56,29.62-20.55v-5.21c0-8.45-2.61-12.1-10.74-12.1-5.32,0-10.95,1.56-15.44,4.59l-1.46-1.46c4.69-5.84,12.51-10.12,21.69-10.12,12.51,0,16.27,7.61,16.27,16.48v27.22c0,3.23,1.15,5.21,4.38,5.21,2.29,0,3.96-.94,5.74-2.82l1.46,1.25c-1.77,3.65-5.42,8.34-12.2,8.34-5.84,0-8.87-3.55-9.39-8.03-3.75,4.38-9.8,8.34-17.21,8.34s-12.72-4.28-12.72-11.16ZM441.38,72.8c4.9,0,9.18-2.5,11.37-5.11v-16.37c-9.8,1.88-19.82,6.47-19.82,14.29,0,4.38,3.13,7.2,8.45,7.2Z"/>
      <path class="cls-1" d="M480.28,77.7c2.09-5.84,2.61-11.05,2.61-20.34v-14.91c0-6.78-2.4-10.64-5.11-13.45v-.21l14.91-5.84v10.64l.52.1c4.8-6.26,10.53-10.22,18.25-10.22,10.12,0,15.75,6.26,15.75,16.06v17.73c0,9.49.21,14.6,2.5,20.44v.21h-15.44v-.21c2.19-5.84,2.61-11.47,2.61-20.34v-15.44c0-6.05-2.82-10.95-10.53-10.95-5.01,0-9.6,2.09-13.14,6.78v19.5c0,9.28.21,14.6,2.5,20.44v.21h-15.44v-.21Z"/>
      <path class="cls-1" d="M602.2,79.47c-24.82,0-40.47-17.42-40.47-39.74S577.69,0,603.97,0c11.89,0,21.07,3.13,26.7,5.01l2.29,17.83-1.88.52c-8.97-13.56-16.58-19.19-28.16-19.19-19.61,0-28.79,15.54-28.79,35.67s8.03,35.46,28.06,35.46c11.79,0,20.34-4.9,20.34-15.23,0-7.09-1.04-10.85-4.9-16.79v-.21h19.61v.21c-3.44,6.26-4.28,9.8-4.28,18.25v6.99c-4.9,3.34-14.08,10.95-30.77,10.95Z"/>
      <path class="cls-1" d="M643.29,68.31c0-12.62,17.1-18.56,29.62-20.55v-5.21c0-8.45-2.61-12.1-10.74-12.1-5.32,0-10.95,1.56-15.44,4.59l-1.46-1.46c4.69-5.84,12.51-10.12,21.69-10.12,12.51,0,16.27,7.61,16.27,16.48v27.22c0,3.23,1.15,5.21,4.38,5.21,2.29,0,3.96-.94,5.74-2.82l1.46,1.25c-1.77,3.65-5.42,8.34-12.2,8.34-5.84,0-8.87-3.55-9.39-8.03-3.75,4.38-9.8,8.34-17.21,8.34s-12.72-4.28-12.72-11.16ZM661.54,72.8c4.9,0,9.18-2.5,11.37-5.11v-16.37c-9.8,1.88-19.82,6.47-19.82,14.29,0,4.38,3.13,7.2,8.45,7.2Z"/>
      <path class="cls-1" d="M700.44,77.7c2.09-5.84,2.61-11.05,2.61-20.34v-14.91c0-6.78-2.4-10.64-5.11-13.45v-.21l14.91-5.84v13.14h.52c4.59-5.01,10.33-12.62,17.73-12.62l-.21,12.93-1.36.21c-2.09-.94-6.05-1.88-8.45-1.88-1.77,0-5.11,2.09-7.72,5.74v16.79c0,9.28.21,14.6,2.5,20.44v.21h-15.44v-.21Z"/>
      <path class="cls-1" d="M773.03,38.59l-1.67.42c-4.8-8.87-10.74-11.37-16.06-11.37-5.74,0-8.87,2.71-8.87,6.88,0,6.26,6.99,8.34,14.39,11.37,7.61,3.13,15.33,6.99,15.33,17.42,0,11.06-8.97,16.17-20.75,16.17-6.05,0-11.68-1.36-16.27-2.92l-1.15-14.91,1.67-.42c4.9,9.91,10.32,14.18,17.42,14.18s10.01-3.96,10.01-8.45c0-5.94-5.11-8.45-11.05-10.95-7.72-3.34-17.1-6.47-17.1-17.63s9.7-14.91,19.4-14.91c5.21,0,10.53,1.04,13.45,2.19l1.25,12.93Z"/>
      <path class="cls-1" d="M819.03,38.59l-1.67.42c-4.8-8.87-10.74-11.37-16.06-11.37-5.74,0-8.87,2.71-8.87,6.88,0,6.26,6.99,8.34,14.39,11.37,7.61,3.13,15.33,6.99,15.33,17.42,0,11.06-8.97,16.17-20.75,16.17-6.05,0-11.68-1.36-16.27-2.92l-1.15-14.91,1.67-.42c4.9,9.91,10.32,14.18,17.42,14.18s10.01-3.96,10.01-8.45c0-5.94-5.11-8.45-11.05-10.95-7.72-3.34-17.1-6.47-17.1-17.63s9.7-14.91,19.4-14.91c5.21,0,10.53,1.04,13.45,2.19l1.25,12.93Z"/>
      <path class="cls-1" d="M873.46,64.45l1.67,1.36c-3.55,7.51-10.74,13.66-21.59,13.66-14.5,0-24.41-10.64-24.41-26.91,0-17.94,12.1-29.1,25.24-29.1s21.8,11.47,20.44,23.57h-35.15v1.56c0,14.18,7.61,22.11,19.09,22.11,5.53,0,10.85-1.77,14.71-6.26ZM840.09,43.18l23.99-.52v-1.15c0-9.49-3.34-13.87-9.91-13.87-7.3,0-12.62,6.15-14.08,15.54Z"/>
    </g>
  </g>
</svg>