<?xml version="1.0" encoding="UTF-8"?>
<svg id="Layer_1" data-name="Layer 1" xmlns="http://www.w3.org/2000/svg" viewBox="0 0 877.6 76.4">
  <defs>
    <style>
      .cls-1 {
        fill: #de545f;
      }
    </style>
  </defs>
  <polygon class="cls-1" points="0 10.1 22.9 10.1 22.9 75 31.7 75 31.7 10.1 54.5 10.1 54.5 2.3 0 2.3 0 10.1"/>
  <path class="cls-1" d="M84.2,19.6c-3.3,0-6.2.8-8.8,2.5-2.6,1.7-4.4,3.9-5.4,6.6h-.6v-8.2h-8.1v54.5h8.4v-34.5c0-2.5.6-4.7,1.8-6.6,1.2-1.9,2.8-3.4,4.9-4.5s4.4-1.7,7.1-1.7c1.1,0,2.2.1,3.2.2,1,.2,1.7.3,1.9.3v-8.4c-.5,0-1.2-.1-2.1-.1-.9-.1-1.7-.1-2.3-.1Z"/>
  <rect class="cls-1" x="98.6" y="20.5" width="8.4" height="54.5"/>
  <path class="cls-1" d="M102.8,0c-1.6,0-3,.6-4.2,1.7s-1.8,2.5-1.8,4,.6,2.9,1.8,4c1.2,1.1,2.6,1.7,4.2,1.7s3-.6,4.2-1.7,1.8-2.5,1.8-4-.6-2.9-1.8-4c-1.1-1.1-2.5-1.7-4.2-1.7Z"/>
  <path class="cls-1" d="M147.4,45l-8.1-2c-3.2-.8-5.6-1.8-7.1-3s-2.3-2.9-2.3-4.9c0-2.3,1.1-4.3,3.3-5.8s5-2.3,8.3-2.3c2.4,0,4.4.4,6,1.2s2.8,1.8,3.7,3,1.6,2.4,2.1,3.7l7.5-2.1c-1.3-3.9-3.5-7-6.6-9.4-3.1-2.4-7.3-3.6-12.7-3.6-3.8,0-7.3.7-10.3,2s-5.4,3.2-7.1,5.6-2.6,5.1-2.6,8.2c0,3.8,1.2,6.9,3.5,9.4,2.3,2.5,6,4.3,11,5.5l9.1,2.1c2.7.6,4.8,1.6,6.1,2.9s2,2.9,2,4.8c0,2.3-1.2,4.3-3.5,6s-5.4,2.5-9.3,2.5c-3.4,0-6.2-.7-8.3-2.2s-3.6-3.7-4.3-6.6l-8,2c1,4.6,3.3,8.2,6.9,10.6,3.6,2.4,8.3,3.6,13.8,3.6,4.2,0,8-.7,11.2-2.1s5.7-3.4,7.5-5.8c1.8-2.5,2.7-5.3,2.7-8.4,0-3.8-1.2-6.9-3.6-9.4s-6-4.3-10.9-5.5Z"/>
  <path class="cls-1" d="M196.2,67.5c-.6.1-1.3.2-2.3.2-1.2,0-2.4-.2-3.5-.6s-2-1.2-2.7-2.3c-.7-1.2-1-2.9-1-5.3v-31.9h11.6v-7.1h-11.6V7.4h-8.4v13.1h-8.2v7.1h8.2v34.1c0,3.2.7,5.8,2.2,7.9s3.3,3.6,5.6,4.7c2.3,1,4.6,1.5,6.9,1.5,1.6,0,2.9-.1,3.9-.3,1-.2,1.8-.4,2.4-.7l-1.7-7.5c-.4,0-.8.1-1.4.2Z"/>
  <path class="cls-1" d="M244.5,22.9c-2.1-1.3-4.4-2.1-6.6-2.5-2.3-.4-4.3-.6-6.1-.6-2.7,0-5.5.4-8.4,1.1-2.8.7-5.4,2-7.8,3.9-2.4,1.9-4.3,4.4-5.7,7.8l8,2.8c.9-2,2.5-3.9,4.8-5.6,2.3-1.8,5.4-2.6,9.4-2.6s6.7,1,8.6,2.9c1.9,1.9,2.9,4.7,2.9,8.2v.3c0,1.3-.5,2.3-1.4,2.8-1,.5-2.5.9-4.5,1.2-2.1.2-4.8.6-8.1,1-2.5.3-5,.8-7.5,1.3-2.5.6-4.8,1.4-6.8,2.5-2.1,1.1-3.7,2.6-4.9,4.6s-1.8,4.5-1.8,7.6c0,3.6.8,6.6,2.5,9.1s3.9,4.4,6.7,5.7c2.8,1.3,6,2,9.4,2,3.2,0,5.9-.5,8.1-1.4,2.2-.9,4-2.1,5.3-3.4s2.3-2.6,2.8-3.8h.4v7.4h8.4v-36.1c0-4.3-.7-7.8-2.1-10.4s-3.4-4.5-5.6-5.8ZM243.6,55.3c0,2.3-.6,4.4-1.8,6.5s-2.9,3.7-5.2,5-5.1,2-8.4,2-6.1-.7-8.3-2.2-3.2-3.7-3.2-6.6c0-2.1.6-3.8,1.7-5.1,1.1-1.2,2.7-2.2,4.5-2.8,1.9-.6,3.9-1.1,6.1-1.4.9-.1,2.1-.3,3.5-.4s3-.4,4.5-.6c1.6-.2,2.9-.5,4.1-.9,1.2-.3,2-.7,2.3-1.2v7.7h.2Z"/>
  <path class="cls-1" d="M301.7,22c-2.8-1.5-6-2.3-9.7-2.3-4.1,0-7.5.8-10.1,2.5s-4.5,3.9-5.8,6.7h-.7v-8.5h-8.1v54.5h8.4v-32.7c0-3.2.6-5.9,1.8-8.1,1.2-2.2,2.9-3.9,5-5.1,2.1-1.2,4.5-1.7,7.2-1.7,3.9,0,6.9,1.2,9.2,3.6,2.2,2.4,3.3,5.7,3.3,10v34.1h8.4v-34.6c0-4.6-.8-8.5-2.3-11.5-1.6-3.1-3.8-5.4-6.6-6.9Z"/>
  <polygon class="cls-1" points="380.5 63.5 379.7 63.5 358.1 2.3 348.9 2.3 375.6 75 384.7 75 411.4 2.3 402.1 2.3 380.5 63.5"/>
  <path class="cls-1" d="M450,22.9c-2.1-1.3-4.4-2.1-6.6-2.5-2.3-.4-4.3-.6-6.1-.6-2.7,0-5.5.4-8.4,1.1-2.8.7-5.4,2-7.8,3.9s-4.3,4.4-5.7,7.8l8,2.8c.9-2,2.5-3.9,4.8-5.6,2.3-1.8,5.4-2.6,9.4-2.6s6.7,1,8.6,2.9,2.9,4.7,2.9,8.2v.3c0,1.3-.5,2.3-1.4,2.8-1,.5-2.5.9-4.5,1.2-2.1.2-4.8.6-8.1,1-2.5.3-5,.8-7.5,1.3-2.5.6-4.8,1.4-6.8,2.5-2.1,1.1-3.7,2.6-4.9,4.6-1.2,2-1.8,4.5-1.8,7.6,0,3.6.8,6.6,2.5,9.1s3.9,4.4,6.7,5.7c2.8,1.3,6,2,9.4,2,3.2,0,5.9-.5,8.1-1.4s4-2.1,5.3-3.4,2.3-2.6,2.8-3.8h.4v7.4h8.4v-36.1c0-4.3-.7-7.8-2.1-10.4-1.6-2.6-3.4-4.5-5.6-5.8ZM449.1,55.3c0,2.3-.6,4.4-1.8,6.5s-2.9,3.7-5.2,5c-2.3,1.3-5.1,2-8.4,2s-6.1-.7-8.3-2.2c-2.2-1.5-3.2-3.7-3.2-6.6,0-2.1.6-3.8,1.7-5.1,1.1-1.2,2.7-2.2,4.5-2.8,1.9-.6,3.9-1.1,6.1-1.4.9-.1,2.1-.3,3.5-.4s3-.4,4.5-.6c1.6-.2,2.9-.5,4.1-.9,1.2-.3,2-.7,2.3-1.2v7.7h.2Z"/>
  <path class="cls-1" d="M507.3,22c-2.8-1.5-6-2.3-9.7-2.3-4.1,0-7.5.8-10.1,2.5s-4.5,3.9-5.8,6.7h-.7v-8.5h-8.1v54.5h8.4v-32.7c0-3.2.6-5.9,1.8-8.1,1.2-2.2,2.9-3.9,5-5.1,2.1-1.2,4.5-1.7,7.2-1.7,3.9,0,6.9,1.2,9.2,3.6,2.2,2.4,3.3,5.7,3.3,10v34.1h8.4v-34.6c0-4.6-.8-8.5-2.3-11.5s-3.9-5.4-6.6-6.9Z"/>
  <path class="cls-1" d="M592.2,46.5h19.2c-.1,4.2-1,7.9-2.7,11-1.8,3.3-4.3,5.8-7.5,7.6-3.2,1.8-6.9,2.7-11,2.7-4.5,0-8.5-1.1-12.1-3.3s-6.5-5.5-8.6-9.8-3.2-9.6-3.2-15.9,1-11.6,3.1-15.9c2.1-4.3,4.9-7.6,8.4-9.8s7.4-3.3,11.8-3.3c2.6,0,5,.4,7.2,1.1s4.2,1.7,5.9,3.1c1.7,1.3,3.2,3,4.5,4.9s2.3,4.1,3.1,6.4h9.1c-.7-3.5-1.9-6.7-3.6-9.6-1.8-2.9-3.9-5.4-6.6-7.5-2.6-2.1-5.6-3.7-8.9-4.9s-6.9-1.7-10.7-1.7c-4.7,0-8.9.9-12.8,2.6-3.9,1.7-7.2,4.2-10.1,7.5-2.8,3.2-5,7.2-6.6,11.8s-2.3,9.8-2.3,15.5c0,7.7,1.4,14.3,4.1,19.9,2.7,5.6,6.5,9.9,11.4,12.9s10.5,4.5,17,4.5c5.8,0,10.9-1.2,15.4-3.6s8-5.9,10.5-10.3,3.8-9.6,3.8-15.6v-7.8h-27.7v7.5h-.1Z"/>
  <path class="cls-1" d="M667.4,22.9c-2.1-1.3-4.4-2.1-6.6-2.5-2.3-.4-4.3-.6-6.1-.6-2.7,0-5.5.4-8.4,1.1-2.8.7-5.4,2-7.8,3.9-2.4,1.9-4.3,4.4-5.7,7.8l8,2.8c.9-2,2.5-3.9,4.8-5.6s5.4-2.6,9.4-2.6,6.7,1,8.6,2.9c1.9,1.9,2.9,4.7,2.9,8.2v.3c0,1.3-.5,2.3-1.4,2.8-1,.5-2.5.9-4.5,1.2-2.1.2-4.8.6-8.1,1-2.5.3-5,.8-7.5,1.3-2.5.6-4.8,1.4-6.8,2.5-2.1,1.1-3.7,2.6-4.9,4.6s-1.8,4.5-1.8,7.6c0,3.6.8,6.6,2.5,9.1s3.9,4.4,6.7,5.7c2.8,1.3,6,2,9.4,2,3.2,0,5.9-.5,8.1-1.4,2.2-.9,4-2.1,5.3-3.4s2.3-2.6,2.8-3.8h.4v7.4h8.4v-36.1c0-4.3-.7-7.8-2.1-10.4-1.7-2.6-3.5-4.5-5.6-5.8ZM666.5,55.3c0,2.3-.6,4.4-1.8,6.5s-2.9,3.7-5.2,5-5.1,2-8.4,2-6.1-.7-8.3-2.2-3.2-3.7-3.2-6.6c0-2.1.6-3.8,1.7-5.1,1.1-1.2,2.7-2.2,4.5-2.8,1.9-.6,3.9-1.1,6.1-1.4.9-.1,2.1-.3,3.5-.4s3-.4,4.5-.6c1.6-.2,2.9-.5,4.1-.9,1.2-.3,2-.7,2.3-1.2v7.7h.2Z"/>
  <path class="cls-1" d="M713.1,19.6c-3.3,0-6.2.8-8.8,2.5s-4.4,3.9-5.4,6.6h-.6v-8.2h-8.1v54.5h8.4v-34.5c0-2.5.6-4.7,1.8-6.6,1.2-1.9,2.8-3.4,4.9-4.5,2.1-1.1,4.4-1.7,7.1-1.7,1.1,0,2.2.1,3.2.2,1,.2,1.7.3,1.9.3v-8.4c-.5,0-1.2-.1-2.1-.1-1-.1-1.7-.1-2.3-.1Z"/>
  <path class="cls-1" d="M752.5,45l-8.1-2c-3.2-.8-5.6-1.8-7.1-3s-2.3-2.9-2.3-4.9c0-2.3,1.1-4.3,3.3-5.8s5-2.3,8.3-2.3c2.4,0,4.4.4,6,1.2s2.8,1.8,3.7,3,1.6,2.4,2.1,3.7l7.5-2.1c-1.3-3.9-3.5-7-6.6-9.4-3.1-2.4-7.3-3.6-12.7-3.6-3.8,0-7.3.7-10.3,2s-5.4,3.2-7.1,5.6-2.6,5.1-2.6,8.2c0,3.8,1.2,6.9,3.5,9.4,2.3,2.5,6,4.3,11,5.5l9.1,2.1c2.7.6,4.8,1.6,6.1,2.9s2,2.9,2,4.8c0,2.3-1.2,4.3-3.5,6s-5.4,2.5-9.3,2.5c-3.4,0-6.2-.7-8.3-2.2s-3.6-3.7-4.3-6.6l-8,2c1,4.6,3.3,8.2,6.9,10.6,3.6,2.4,8.2,3.6,13.8,3.6,4.2,0,8-.7,11.2-2.1s5.7-3.4,7.5-5.8c1.8-2.5,2.7-5.3,2.7-8.4,0-3.8-1.2-6.9-3.6-9.4-2.3-2.5-6-4.3-10.9-5.5Z"/>
  <path class="cls-1" d="M804.8,45l-8.1-2c-3.2-.8-5.6-1.8-7.1-3s-2.3-2.9-2.3-4.9c0-2.3,1.1-4.3,3.3-5.8s5-2.3,8.3-2.3c2.4,0,4.4.4,6,1.2s2.8,1.8,3.7,3,1.6,2.4,2.1,3.7l7.5-2.1c-1.3-3.9-3.5-7-6.6-9.4-3.1-2.4-7.3-3.6-12.7-3.6-3.8,0-7.3.7-10.3,2s-5.4,3.2-7.1,5.6-2.6,5.1-2.6,8.2c0,3.8,1.2,6.9,3.5,9.4,2.3,2.5,6,4.3,11,5.5l9.1,2.1c2.7.6,4.8,1.6,6.1,2.9s2,2.9,2,4.8c0,2.3-1.2,4.3-3.5,6s-5.4,2.5-9.3,2.5c-3.4,0-6.2-.7-8.3-2.2s-3.6-3.7-4.3-6.6l-8,2c1,4.6,3.3,8.2,6.9,10.6,3.6,2.4,8.2,3.6,13.8,3.6,4.2,0,8-.7,11.2-2.1s5.7-3.4,7.5-5.8c1.8-2.5,2.7-5.3,2.7-8.4,0-3.8-1.2-6.9-3.6-9.4-2.4-2.5-6-4.3-10.9-5.5Z"/>
  <path class="cls-1" d="M877.4,47c0-5.1-.7-9.4-2-12.9s-3.2-6.3-5.4-8.4c-2.3-2.1-4.8-3.7-7.6-4.6-2.8-.9-5.6-1.4-8.4-1.4-4.9,0-9.2,1.2-12.9,3.6-3.7,2.4-6.5,5.7-8.6,10-2,4.3-3.1,9.2-3.1,14.8s1,10.5,3.1,14.7c2,4.2,5,7.5,8.8,9.8s8.3,3.5,13.6,3.5c3.7,0,7-.6,10-1.7s5.4-2.8,7.5-4.8,3.4-4.5,4.3-7.2l-8.1-2.3c-.7,1.9-1.7,3.5-3,4.7s-2.8,2.2-4.6,2.8c-1.8.6-3.8.9-6,.9-3.4,0-6.4-.7-8.9-2.2-2.6-1.5-4.6-3.6-6-6.5-1.3-2.6-2-5.7-2.1-9.3h39.6v-3.5h-.2ZM837.8,43.3c.2-2.5.8-4.9,1.9-7.2,1.3-2.6,3.2-4.8,5.6-6.4s5.3-2.5,8.6-2.5c3,0,5.7.7,7.9,2.1s4,3.3,5.2,5.7,1.8,5.2,1.8,8.2h-31v.1Z"/>
</svg>