<?xml version="1.0" encoding="UTF-8"?>
<svg id="Layer_2" data-name="Layer 2" xmlns="http://www.w3.org/2000/svg" viewBox="0 0 875.81 80.04">
  <defs>
    <style>
      .cls-1 {
        fill: #000;
        stroke-width: 0px;
      }
    </style>
  </defs>
  <g id="Layer_1-2" data-name="Layer 1">
    <g>
      <path class="cls-1" d="M4.15,1.56L0,24.03l2.2.9.13-.19c.79-1.12,1.63-2.36,2.51-3.65,4.44-6.52,9.96-14.63,13.23-14.8l11.7-.41v54.36c0,8.01-.81,11.46-4.14,17.59l-.03.63h19.86v-.49l-.03-.13c-3.36-6.2-4.14-9.49-4.14-17.59V5.9l11.7.41c3.24.15,7.93,7.07,12.08,13.17,1.29,1.89,2.5,3.68,3.67,5.28l.13.18,2.19-.9-4.04-22.46H4.15Z"/>
      <path class="cls-1" d="M90.69,34.25c-.56.63-1.11,1.25-1.64,1.83h-.11v-13.27l-15.48,6.06v.52l.08.08c2.34,2.43,5.03,6.14,5.03,13.26v14.91c0,9.83-.63,14.75-2.59,20.24l-.02.59h16v-.49l-.02-.1c-2.24-5.7-2.48-10.81-2.48-20.34v-16.7c2.5-3.47,5.74-5.54,7.43-5.54,2.48,0,6.38.98,8.33,1.85l.08.03,1.68-.26.22-13.46h-.29c-6.63,0-11.94,5.98-16.21,10.79Z"/>
      <path class="cls-1" d="M128.78,57.54V22.82l-15.82,5.99-.18.07v1.04l.08.08c3.38,3.38,5.03,7.68,5.03,13.15v14.5c0,9.3-.99,14.65-2.6,20.26v.57s15.99,0,15.99,0v-.49l-.02-.1c-2.32-5.9-2.48-11.62-2.48-20.34Z"/>
      <path class="cls-1" d="M122.66,14.23c3.84,0,6.85-2.92,6.85-6.64s-3.01-6.85-6.85-6.85-6.64,3.01-6.64,6.85,2.92,6.64,6.64,6.64Z"/>
      <path class="cls-1" d="M164.27,45.91c-.74-.3-1.48-.6-2.2-.88-6.45-2.57-12.01-4.78-12.01-10.22,0-4.13,3.21-6.6,8.58-6.6,6.46,0,11.78,3.78,15.81,11.22l.1.19,2.12-.53-1.29-13.35-.16-.06c-2.8-1.1-8.08-2.21-13.56-2.21-12.32,0-19.68,5.68-19.68,15.2,0,10.56,8.29,14.07,15.61,17.18.56.24,1.11.47,1.66.71,6.17,2.6,10.88,5.03,10.88,10.69,0,5.19-3.55,8.17-9.73,8.17-7.07,0-12.36-4.33-17.16-14.03l-.1-.2-2.12.53,1.17,15.15v.19s.19.06.19.06c5.71,1.95,11.22,2.93,16.36,2.93,13.17,0,21.04-6.15,21.04-16.45s-7.66-14.45-15.51-17.68Z"/>
      <path class="cls-1" d="M216.33,71.09c-.38.34-2.5,2.01-7.11,2.01s-6.91-2.26-6.91-6.7V29.87h14.6v-4.74h-14.6v-11.68h-1.54l-15.61,14.13v2.29h6.05v36.74c0,8.78,4.39,13.42,12.69,13.42,5.73,0,10.84-2.59,14-7.11l.12-.17-1.46-1.86-.23.2Z"/>
      <path class="cls-1" d="M272.63,69.65c-1.83,1.94-3.43,2.73-5.53,2.73-2.83,0-4.1-1.52-4.1-4.93v-27.22c0-10.97-5.72-16.76-16.55-16.76-8.58,0-16.77,3.82-21.91,10.22l-.16.2,1.8,1.8.19-.13c4.28-2.89,9.85-4.54,15.28-4.54,7.62,0,10.46,3.2,10.46,11.82v4.97c-4.44.72-12.64,2.47-19.36,6.28-6.81,3.86-10.26,8.74-10.26,14.51,0,6.95,5.11,11.44,13.01,11.44,8.67,0,14.55-5.25,17.01-7.98.81,4.81,4.35,7.67,9.58,7.67,7.25,0,10.92-5.33,12.46-8.5l.1-.2-1.83-1.57-.19.2ZM252.12,51.94v15.93c-1.97,2.29-6.02,4.93-11.08,4.93s-8.17-2.65-8.17-6.91c0-9.3,14.3-12.96,19.25-13.94Z"/>
      <path class="cls-1" d="M327.15,57.54v-17.73c0-10.23-5.99-16.34-16.03-16.34-7.15,0-12.99,3.24-18.37,10.19l-.12-.02v-10.82l-15.48,6.06v.52l.08.08c2.34,2.43,5.03,6.14,5.03,13.26v14.91c0,9.83-.63,14.75-2.59,20.24l-.02.59h16v-.49l-.02-.1c-2.24-5.7-2.48-10.81-2.48-20.34v-19.41c3.34-4.37,7.66-6.59,12.86-6.59,8.92,0,10.25,6.68,10.25,10.67v15.44c0,8.84-.4,14.4-2.59,20.24l-.02.59h16v-.49l-.02-.1c-2.25-5.72-2.48-10.59-2.48-20.34Z"/>
      <path class="cls-1" d="M427.58,2.17v-.6h-16.52v.58l.05.07c3.57,5.05,3.62,12.4.17,21.85l-14.23,38.7-16-43.29c-3.03-8.44-2-14.45-.03-17.26l.05-.07v-.58h-21.53v.6l.08.08c3.37,3.57,5.63,7,9.33,16.9l22.18,60.15h4.67l21.97-59.32c3.01-8.12,4.95-12.52,9.75-17.74l.07-.08Z"/>
      <path class="cls-1" d="M473.3,69.65c-1.83,1.94-3.43,2.73-5.53,2.73-2.83,0-4.1-1.52-4.1-4.93v-27.22c0-10.97-5.72-16.76-16.55-16.76-8.58,0-16.77,3.82-21.91,10.22l-.16.2,1.8,1.8.19-.13c4.28-2.89,9.85-4.54,15.28-4.54,7.62,0,10.46,3.2,10.46,11.82v4.97c-4.44.72-12.64,2.47-19.36,6.28-6.81,3.86-10.26,8.74-10.26,14.51,0,6.95,5.11,11.44,13.01,11.44,8.67,0,14.55-5.25,17.01-7.98.81,4.81,4.35,7.67,9.58,7.67,7.25,0,10.92-5.33,12.46-8.5l.1-.2-1.83-1.57-.19.2ZM452.78,51.94v15.93c-1.97,2.29-6.02,4.93-11.08,4.93s-8.16-2.65-8.16-6.91c0-9.3,14.3-12.96,19.25-13.94Z"/>
      <path class="cls-1" d="M527.81,57.54v-17.73c0-10.23-5.99-16.34-16.03-16.34-7.15,0-12.99,3.24-18.37,10.19l-.12-.02v-10.82l-15.48,6.06v.52l.08.08c2.34,2.43,5.03,6.14,5.03,13.26v14.91c0,9.83-.63,14.75-2.59,20.24l-.02.59h16v-.49l-.02-.1c-2.24-5.7-2.48-10.81-2.48-20.34v-19.41c3.33-4.37,7.66-6.59,12.86-6.59,8.92,0,10.25,6.68,10.25,10.67v15.44c0,8.84-.4,14.4-2.59,20.24l-.02.59h16v-.49l-.02-.1c-2.25-5.72-2.48-10.59-2.48-20.34Z"/>
      <path class="cls-1" d="M617.67,43.65l.05.07c3.77,5.8,4.86,9.54,4.86,16.64,0,9.36-7.5,14.94-20.05,14.94-10.37,0-27.77-4.57-27.77-35.18,0-22.16,10.66-35.38,28.5-35.38,11.16,0,18.73,5.17,27.92,19.06l.11.17,2.31-.64-2.35-18.25-.46-.15c-5.52-1.84-14.77-4.92-26.5-4.92-25.04,0-42.52,16.46-42.52,40.02s16.76,40.02,40.75,40.02c15.29,0,24.19-6.27,29.51-10.01.51-.36.98-.69,1.42-.99l.12-.08v-7.14c0-8.36.83-11.92,4.24-18.12l.04-.63h-20.17v.58Z"/>
      <path class="cls-1" d="M693.47,69.65c-1.83,1.94-3.43,2.73-5.53,2.73-2.83,0-4.1-1.52-4.1-4.93v-27.22c0-10.97-5.72-16.76-16.55-16.76-8.58,0-16.77,3.82-21.91,10.22l-.16.2,1.8,1.8.19-.13c4.28-2.89,9.85-4.54,15.28-4.54,7.62,0,10.46,3.2,10.46,11.82v4.97c-4.44.72-12.64,2.47-19.36,6.28-6.81,3.86-10.26,8.74-10.26,14.51,0,6.95,5.11,11.44,13.01,11.44,8.67,0,14.55-5.25,17.01-7.98.81,4.81,4.35,7.67,9.58,7.67,7.25,0,10.92-5.33,12.46-8.5l.1-.2-1.83-1.57-.19.2ZM672.95,51.94v15.93c-1.97,2.29-6.02,4.93-11.08,4.93s-8.16-2.58-8.16-6.91c0-9.3,14.3-12.96,19.25-13.94Z"/>
      <path class="cls-1" d="M715.21,34.25c-.56.63-1.11,1.25-1.64,1.83h-.11v-13.27l-15.48,6.06v.52l.08.08c2.34,2.43,5.03,6.14,5.03,13.26v14.91c0,9.83-.63,14.75-2.59,20.24l-.02.59h16v-.49l-.02-.1c-2.24-5.7-2.48-10.81-2.48-20.34v-16.7c2.5-3.47,5.74-5.54,7.43-5.54,2.48,0,6.38.98,8.33,1.85l.08.03,1.67-.26.22-13.46h-.29c-6.63,0-11.95,5.98-16.21,10.79Z"/>
      <path class="cls-1" d="M761.26,45.91c-.74-.3-1.48-.6-2.21-.88-6.44-2.57-12.01-4.78-12.01-10.22,0-4.13,3.21-6.6,8.58-6.6,6.46,0,11.78,3.78,15.81,11.22l.1.19,2.12-.53-1.29-13.35-.16-.06c-2.8-1.1-8.08-2.21-13.56-2.21-12.32,0-19.68,5.68-19.68,15.2,0,10.56,8.29,14.07,15.61,17.18.56.24,1.11.47,1.66.71,6.17,2.6,10.88,5.03,10.88,10.69,0,5.19-3.55,8.17-9.73,8.17-7.07,0-12.36-4.33-17.16-14.03l-.1-.2-2.12.53,1.17,15.15v.19s.19.06.19.06c5.71,1.95,11.22,2.93,16.36,2.93,13.17,0,21.04-6.15,21.04-16.45s-7.66-14.46-15.51-17.68Z"/>
      <path class="cls-1" d="M807.25,45.91c-.74-.3-1.48-.6-2.21-.88-6.44-2.57-12.01-4.78-12.01-10.22,0-4.13,3.21-6.6,8.58-6.6,6.46,0,11.78,3.78,15.81,11.22l.1.19,2.12-.53-1.29-13.35-.16-.06c-2.8-1.1-8.08-2.21-13.56-2.21-12.32,0-19.68,5.68-19.68,15.2,0,10.56,8.29,14.07,15.61,17.18.56.24,1.11.47,1.66.71,6.17,2.6,10.88,5.03,10.88,10.69,0,5.19-3.55,8.17-9.73,8.17-7.07,0-12.36-4.33-17.16-14.03l-.1-.2-2.12.53,1.17,15.15v.19s.19.06.19.06c5.71,1.95,11.22,2.93,16.36,2.93,13.17,0,21.04-6.15,21.04-16.45s-7.66-14.46-15.51-17.68Z"/>
      <path class="cls-1" d="M873.75,64.34l-.18.21c-3.47,4.03-8.48,6.16-14.49,6.16-11.77,0-18.8-8.16-18.8-21.83v-1.28h35.12l.03-.25c.71-6.34-1.22-12.59-5.31-17.16-3.88-4.34-9.35-6.73-15.42-6.73-12.37,0-25.52,10.3-25.52,29.38,0,16.26,9.92,27.19,24.69,27.19,9.73,0,17.7-5.04,21.84-13.82l.1-.2-2.06-1.67ZM840.75,43.17c1.54-9.24,6.79-14.97,13.75-14.97,6.48,0,9.62,4.44,9.62,13.59v.87l-23.37.51Z"/>
    </g>
  </g>
</svg>